<svg width="1004" height="1004" viewBox="0 0 1004 1004" fill="none" xmlns="http://www.w3.org/2000/svg">
<path d="M541.864 4C559.048 4.0003 572.979 17.931 572.979 35.1152V104.984C707.047 134.184 816.289 229.865 864.438 355.758H691.962C646.509 291.231 571.428 249.074 486.5 249.074C373.313 249.074 277.614 323.952 246.234 426.874H875.438V426.879H884.366C888.722 450.664 891 475.176 891 500.22L890.991 502.836C889.77 695.585 753.735 856.348 572.438 895.572V968.646C572.437 985.83 558.507 999.761 541.322 999.761H433.537C416.362 999.761 402.439 985.837 402.438 968.662V895.972C266.479 867.235 155.715 770.208 107.72 642.464H279.493C324.779 708.242 400.603 751.365 486.5 751.365C600.502 751.365 696.762 675.406 727.433 571.339H245.567C245.568 571.34 245.568 571.341 245.568 571.343H88.2314C84.2831 549.083 82.1558 526.194 82.0078 502.836L82 500.22C82.0002 305.645 219.383 143.158 402.438 104.467V35.1152C402.439 17.9309 416.369 4.00004 433.554 4H541.864ZM418.059 33.7246C418.054 33.7795 418.049 33.8346 418.045 33.8896C418.049 33.8346 418.054 33.7795 418.059 33.7246ZM549.931 21.8105L549.72 21.6836C549.686 21.6641 549.653 21.6453 549.619 21.626C549.724 21.6863 549.828 21.7479 549.931 21.8105ZM433.158 19.5625C432.969 19.5672 432.782 19.5773 432.595 19.5889C432.78 19.5776 432.966 19.5682 433.152 19.5635L433.554 19.5576L433.158 19.5625ZM542.337 19.5654C542.313 19.5647 542.289 19.5631 542.266 19.5625C542.132 19.5591 541.998 19.5576 541.864 19.5576H541.863C542.022 19.5576 542.18 19.5605 542.337 19.5654Z" fill="white"/>
</svg>
