<svg width="551" height="636" viewBox="0 0 551 636" fill="none" xmlns="http://www.w3.org/2000/svg">
<g clip-path="url(#clip0_371_44)">
<path d="M450.032 36.2414C460.31 41.1004 464.703 53.3712 459.844 63.6488L440.088 105.437C512.015 160.809 550.295 248.922 543.495 337.831L440.339 289.06C431.399 237.616 398.417 191.174 347.625 167.16C279.929 135.156 201.523 152.881 153.653 205.565L441.045 341.438L441.045 341.437L535.303 386.001C531.183 401.458 525.614 416.762 518.533 431.741C463.703 547.714 336.28 606.046 216.218 578.115L195.555 621.822C190.695 632.099 178.424 636.492 168.147 631.633L103.683 601.156C93.4117 596.299 89.0213 584.035 93.8775 573.763L114.434 530.284C41.2457 474.653 2.43417 385.306 9.85045 295.334L112.586 343.906C121.071 396.05 154.225 443.281 205.597 467.569C273.778 499.804 352.825 481.594 400.595 428.027L18.3066 247.289C22.386 232.321 27.8276 217.502 34.6891 202.989C89.7068 86.6189 217.817 28.2858 338.238 56.9056L357.848 15.4269C362.707 5.14955 374.977 0.757212 385.255 5.61582L450.032 36.2414Z" fill="url(#paint0_linear_371_44)"/>
</g>
<defs>
<linearGradient id="paint0_linear_371_44" x1="461.263" y1="71.2676" x2="68.2347" y2="397.958" gradientUnits="userSpaceOnUse">
<stop stop-color="#276DD5"/>
<stop offset="1" stop-color="#276DD5" stop-opacity="0"/>
</linearGradient>
<clipPath id="clip0_371_44">
<rect width="551" height="636" fill="white"/>
</clipPath>
</defs>
</svg>
