<svg width="466" height="158" viewBox="0 0 466 158" fill="none" xmlns="http://www.w3.org/2000/svg">
<rect x="3" width="460" height="158" rx="11" fill="#1A1A1A"/>
<path d="M156.832 32.923C159.021 32.923 160.913 33.3358 162.507 34.1616C164.12 34.9681 165.349 36.1299 166.194 37.647C167.058 39.164 167.49 40.9499 167.49 43.0047C167.49 45.0594 167.058 46.8453 166.194 48.3624C165.349 49.8603 164.12 51.0125 162.507 51.819C160.913 52.6063 159.021 53 156.832 53H150.581V32.923H156.832ZM156.832 50.8396C159.425 50.8396 161.402 50.1579 162.766 48.7945C164.129 47.4118 164.811 45.4819 164.811 43.0047C164.811 40.5083 164.12 38.5591 162.737 37.1573C161.374 35.7554 159.405 35.0545 156.832 35.0545H153.203V50.8396H156.832ZM173.569 32.923V53H170.947V32.923H173.569ZM184.402 53.2016C183.077 53.2016 181.886 52.9712 180.83 52.5103C179.793 52.0302 178.977 51.3773 178.382 50.5516C177.786 49.7066 177.479 48.7369 177.46 47.6423H180.254C180.35 48.5832 180.734 49.3802 181.406 50.0331C182.098 50.6668 183.096 50.9837 184.402 50.9837C185.65 50.9837 186.63 50.6764 187.34 50.0619C188.07 49.4282 188.435 48.6216 188.435 47.6423C188.435 46.8742 188.223 46.25 187.801 45.77C187.378 45.2899 186.85 44.925 186.217 44.6754C185.583 44.4257 184.728 44.1569 183.653 43.8688C182.328 43.5232 181.262 43.1775 180.456 42.8319C179.668 42.4862 178.987 41.9485 178.411 41.2188C177.854 40.4699 177.575 39.4713 177.575 38.2231C177.575 37.1285 177.854 36.1587 178.411 35.3138C178.967 34.4688 179.745 33.8159 180.744 33.355C181.762 32.8942 182.923 32.6637 184.229 32.6637C186.111 32.6637 187.647 33.1342 188.838 34.0752C190.048 35.0161 190.729 36.2643 190.883 37.8198H188.003C187.907 37.0517 187.503 36.3796 186.793 35.8035C186.082 35.2082 185.141 34.9105 183.97 34.9105C182.875 34.9105 181.982 35.1985 181.291 35.7746C180.6 36.3315 180.254 37.1189 180.254 38.1367C180.254 38.8664 180.456 39.4617 180.859 39.9226C181.281 40.3834 181.79 40.7387 182.386 40.9883C183 41.2188 183.855 41.4876 184.949 41.7949C186.274 42.1597 187.34 42.5246 188.147 42.8895C188.953 43.2351 189.644 43.7824 190.221 44.5313C190.797 45.2611 191.085 46.2596 191.085 47.5271C191.085 48.5064 190.825 49.4282 190.307 50.2923C189.789 51.1565 189.02 51.8574 188.003 52.3951C186.985 52.9328 185.785 53.2016 184.402 53.2016ZM208.365 38.7992C208.365 40.4699 207.789 41.8621 206.637 42.9759C205.504 44.0705 203.766 44.6178 201.423 44.6178H197.563V53H194.942V32.923H201.423C203.689 32.923 205.408 33.4703 206.579 34.5648C207.77 35.6594 208.365 37.0709 208.365 38.7992ZM201.423 42.4574C202.883 42.4574 203.958 42.1405 204.649 41.5068C205.341 40.8731 205.686 39.9706 205.686 38.7992C205.686 36.3219 204.265 35.0833 201.423 35.0833H197.563V42.4574H201.423ZM220.725 53.2016C218.863 53.2016 217.163 52.7696 215.627 51.9054C214.091 51.0221 212.871 49.8027 211.969 48.2472C211.085 46.6725 210.644 44.9058 210.644 42.9471C210.644 40.9883 211.085 39.2312 211.969 37.6758C212.871 36.1011 214.091 34.8817 215.627 34.0175C217.163 33.1342 218.863 32.6925 220.725 32.6925C222.607 32.6925 224.316 33.1342 225.853 34.0175C227.389 34.8817 228.599 36.0915 229.482 37.647C230.366 39.2024 230.807 40.9691 230.807 42.9471C230.807 44.925 230.366 46.6917 229.482 48.2472C228.599 49.8027 227.389 51.0221 225.853 51.9054C224.316 52.7696 222.607 53.2016 220.725 53.2016ZM220.725 50.926C222.127 50.926 223.385 50.5996 224.499 49.9467C225.632 49.2938 226.515 48.3624 227.149 47.1526C227.802 45.9428 228.128 44.541 228.128 42.9471C228.128 41.334 227.802 39.9322 227.149 38.7416C226.515 37.5317 225.642 36.6004 224.528 35.9475C223.414 35.2946 222.147 34.9681 220.725 34.9681C219.304 34.9681 218.037 35.2946 216.923 35.9475C215.809 36.6004 214.926 37.5317 214.273 38.7416C213.639 39.9322 213.323 41.334 213.323 42.9471C213.323 44.541 213.639 45.9428 214.273 47.1526C214.926 48.3624 215.809 49.2938 216.923 49.9467C218.056 50.5996 219.324 50.926 220.725 50.926ZM250.053 53H247.431L236.889 37.0133V53H234.268V32.8942H236.889L247.431 48.8521V32.8942H250.053V53ZM257.142 32.923V53H254.521V32.923H257.142ZM258.64 28.5734L252.505 31.8572V29.8984L258.64 26.2978V28.5734ZM278.201 32.923L270.626 53H267.601L260.026 32.923H262.82L269.128 50.2347L275.436 32.923H278.201ZM283.697 35.0545V41.7661H291.013V43.9264H283.697V50.8396H291.877V53H281.076V32.8942H291.877V35.0545H283.697ZM298.465 50.8684H305.493V53H295.844V32.923H298.465V50.8684ZM331.742 53H329.12L318.578 37.0133V53H315.957V32.8942H318.578L329.12 48.8521V32.8942H331.742V53ZM345.312 53.2016C343.45 53.2016 341.75 52.7696 340.214 51.9054C338.678 51.0221 337.458 49.8027 336.556 48.2472C335.672 46.6725 335.231 44.9058 335.231 42.9471C335.231 40.9883 335.672 39.2312 336.556 37.6758C337.458 36.1011 338.678 34.8817 340.214 34.0175C341.75 33.1342 343.45 32.6925 345.312 32.6925C347.194 32.6925 348.903 33.1342 350.44 34.0175C351.976 34.8817 353.186 36.0915 354.069 37.647C354.952 39.2024 355.394 40.9691 355.394 42.9471C355.394 44.925 354.952 46.6917 354.069 48.2472C353.186 49.8027 351.976 51.0221 350.44 51.9054C348.903 52.7696 347.194 53.2016 345.312 53.2016ZM345.312 50.926C346.714 50.926 347.972 50.5996 349.086 49.9467C350.219 49.2938 351.102 48.3624 351.736 47.1526C352.389 45.9428 352.715 44.541 352.715 42.9471C352.715 41.334 352.389 39.9322 351.736 38.7416C351.102 37.5317 350.228 36.6004 349.115 35.9475C348.001 35.2946 346.733 34.9681 345.312 34.9681C343.891 34.9681 342.624 35.2946 341.51 35.9475C340.396 36.6004 339.513 37.5317 338.86 38.7416C338.226 39.9322 337.91 41.334 337.91 42.9471C337.91 44.541 338.226 45.9428 338.86 47.1526C339.513 48.3624 340.396 49.2938 341.51 49.9467C342.643 50.5996 343.911 50.926 345.312 50.926Z" fill="white"/>
<path d="M168.475 111.356H153.143L150.606 118.691H142.499L156.342 80.1403H165.331L179.174 118.691H171.012L168.475 111.356ZM166.379 105.179L160.809 89.0748L155.239 105.179H166.379ZM192.07 92.5493C193.062 91.1521 194.423 89.994 196.151 89.0748C197.916 88.1188 199.92 87.6409 202.162 87.6409C204.773 87.6409 207.126 88.2843 209.222 89.5712C211.354 90.858 213.027 92.6964 214.24 95.0863C215.49 97.4394 216.116 100.179 216.116 103.304C216.116 106.429 215.49 109.205 214.24 111.632C213.027 114.021 211.354 115.878 209.222 117.202C207.126 118.525 204.773 119.187 202.162 119.187C199.92 119.187 197.934 118.728 196.206 117.809C194.515 116.889 193.136 115.731 192.07 114.334V133.251H184.349V88.1372H192.07V92.5493ZM208.229 103.304C208.229 101.465 207.843 99.8844 207.071 98.5608C206.335 97.2004 205.343 96.1709 204.093 95.4723C202.879 94.7737 201.556 94.4244 200.122 94.4244C198.725 94.4244 197.401 94.7921 196.151 95.5275C194.938 96.226 193.945 97.2555 193.173 98.6159C192.437 99.9763 192.07 101.576 192.07 103.414C192.07 105.252 192.437 106.852 193.173 108.212C193.945 109.573 194.938 110.62 196.151 111.356C197.401 112.054 198.725 112.404 200.122 112.404C201.556 112.404 202.879 112.036 204.093 111.301C205.343 110.565 206.335 109.517 207.071 108.157C207.843 106.797 208.229 105.179 208.229 103.304ZM229.447 92.5493C230.44 91.1521 231.801 89.994 233.529 89.0748C235.293 88.1188 237.297 87.6409 239.54 87.6409C242.151 87.6409 244.504 88.2843 246.599 89.5712C248.732 90.858 250.405 92.6964 251.618 95.0863C252.868 97.4394 253.493 100.179 253.493 103.304C253.493 106.429 252.868 109.205 251.618 111.632C250.405 114.021 248.732 115.878 246.599 117.202C244.504 118.525 242.151 119.187 239.54 119.187C237.297 119.187 235.312 118.728 233.584 117.809C231.892 116.889 230.514 115.731 229.447 114.334V133.251H221.726V88.1372H229.447V92.5493ZM245.607 103.304C245.607 101.465 245.221 99.8844 244.449 98.5608C243.713 97.2004 242.72 96.1709 241.47 95.4723C240.257 94.7737 238.933 94.4244 237.5 94.4244C236.102 94.4244 234.779 94.7921 233.529 95.5275C232.315 96.226 231.323 97.2555 230.55 98.6159C229.815 99.9763 229.447 101.576 229.447 103.414C229.447 105.252 229.815 106.852 230.55 108.212C231.323 109.573 232.315 110.62 233.529 111.356C234.779 112.054 236.102 112.404 237.5 112.404C238.933 112.404 240.257 112.036 241.47 111.301C242.72 110.565 243.713 109.517 244.449 108.157C245.221 106.797 245.607 105.179 245.607 103.304ZM285.537 119.077C282.853 119.077 280.426 118.617 278.257 117.698C276.125 116.779 274.433 115.455 273.183 113.727C271.933 111.999 271.29 109.959 271.253 107.606H279.525C279.636 109.187 280.187 110.437 281.18 111.356C282.21 112.275 283.607 112.735 285.371 112.735C287.173 112.735 288.589 112.312 289.618 111.466C290.648 110.584 291.162 109.444 291.162 108.047C291.162 106.907 290.813 105.969 290.114 105.234C289.416 104.499 288.533 103.929 287.467 103.524C286.438 103.083 285.004 102.605 283.165 102.09C280.665 101.355 278.625 100.638 277.044 99.9396C275.499 99.2042 274.157 98.1196 273.018 96.6856C271.915 95.2149 271.363 93.2663 271.363 90.8396C271.363 88.56 271.933 86.5746 273.073 84.8833C274.213 83.192 275.812 81.9052 277.871 81.0227C279.93 80.1035 282.283 79.644 284.93 79.644C288.901 79.644 292.118 80.6183 294.582 82.567C297.082 84.4789 298.461 87.1629 298.718 90.619H290.225C290.151 89.2954 289.581 88.2108 288.515 87.3651C287.486 86.4827 286.107 86.0415 284.379 86.0415C282.871 86.0415 281.658 86.4275 280.739 87.1997C279.856 87.9718 279.415 89.0932 279.415 90.5639C279.415 91.5934 279.746 92.4574 280.408 93.156C281.106 93.8178 281.952 94.3693 282.945 94.8105C283.974 95.2149 285.408 95.6929 287.247 96.2444C289.747 96.9798 291.787 97.7151 293.368 98.4505C294.949 99.1858 296.31 100.289 297.45 101.76C298.589 103.23 299.159 105.161 299.159 107.55C299.159 109.609 298.626 111.521 297.56 113.286C296.494 115.051 294.931 116.466 292.872 117.533C290.813 118.562 288.368 119.077 285.537 119.077ZM314.843 94.4796V109.26C314.843 110.29 315.082 111.043 315.56 111.521C316.075 111.962 316.92 112.183 318.097 112.183H321.682V118.691H316.828C310.32 118.691 307.067 115.529 307.067 109.205V94.4796H303.427V88.1372H307.067V80.5815H314.843V88.1372H321.682V94.4796H314.843ZM340.802 119.187C337.861 119.187 335.214 118.544 332.86 117.257C330.507 115.933 328.651 114.077 327.29 111.687C325.967 109.297 325.305 106.539 325.305 103.414C325.305 100.289 325.985 97.5313 327.345 95.1414C328.742 92.7515 330.636 90.9132 333.026 89.6263C335.416 88.3027 338.081 87.6409 341.023 87.6409C343.964 87.6409 346.63 88.3027 349.02 89.6263C351.41 90.9132 353.285 92.7515 354.645 95.1414C356.042 97.5313 356.741 100.289 356.741 103.414C356.741 106.539 356.024 109.297 354.59 111.687C353.193 114.077 351.281 115.933 348.854 117.257C346.464 118.544 343.78 119.187 340.802 119.187ZM340.802 112.459C342.199 112.459 343.505 112.128 344.718 111.466C345.968 110.768 346.961 109.738 347.696 108.378C348.431 107.017 348.799 105.363 348.799 103.414C348.799 100.509 348.027 98.285 346.483 96.7408C344.975 95.1598 343.119 94.3693 340.913 94.3693C338.706 94.3693 336.85 95.1598 335.342 96.7408C333.872 98.285 333.136 100.509 333.136 103.414C333.136 106.319 333.853 108.562 335.287 110.143C336.758 111.687 338.596 112.459 340.802 112.459ZM370.126 92.8802C371.118 91.2624 372.405 89.994 373.986 89.0748C375.604 88.1556 377.442 87.696 379.501 87.696V95.8032H377.461C375.034 95.8032 373.196 96.3731 371.946 97.5129C370.732 98.6527 370.126 100.638 370.126 103.469V118.691H362.405V88.1372H370.126V92.8802ZM413.105 102.752C413.105 103.855 413.031 104.848 412.884 105.73H390.548C390.732 107.936 391.504 109.665 392.864 110.915C394.225 112.165 395.898 112.79 397.883 112.79C400.751 112.79 402.792 111.558 404.005 109.095H412.333C411.45 112.036 409.759 114.463 407.259 116.375C404.759 118.25 401.689 119.187 398.049 119.187C395.107 119.187 392.46 118.544 390.107 117.257C387.79 115.933 385.971 114.077 384.647 111.687C383.36 109.297 382.717 106.539 382.717 103.414C382.717 100.252 383.36 97.4761 384.647 95.0863C385.934 92.6964 387.735 90.858 390.052 89.5712C392.368 88.2843 395.034 87.6409 398.049 87.6409C400.953 87.6409 403.545 88.2659 405.825 89.516C408.141 90.7661 409.924 92.5493 411.175 94.8657C412.461 97.1452 413.105 99.7741 413.105 102.752ZM405.108 100.546C405.071 98.5608 404.354 96.9798 402.957 95.8032C401.56 94.5899 399.85 93.9832 397.828 93.9832C395.916 93.9832 394.298 94.5715 392.975 95.7481C391.688 96.8879 390.897 98.4872 390.603 100.546H405.108Z" fill="white"/>
<g clip-path="url(#clip0_342_116)">
<path d="M113.463 62.8138C106.827 66.9145 102.728 73.9444 102.728 81.7554C102.728 90.5428 107.998 98.5491 116 101.869C114.439 106.946 112.096 111.632 109.169 115.929C104.875 121.982 100.386 128.231 93.7494 128.231C87.1133 128.231 85.1614 124.325 77.3542 124.325C69.7422 124.325 67.0096 128.426 60.7639 128.426C54.5181 128.426 50.2241 122.763 45.3446 115.733C38.9036 105.969 35.1952 94.6436 35 82.7318C35 63.3996 47.4916 53.05 59.9831 53.05C66.6193 53.05 72.0843 57.3461 76.1831 57.3461C80.0867 57.3461 86.3325 52.8547 93.7494 52.8547C101.557 52.6595 108.973 56.3697 113.463 62.8138ZM90.2361 44.6532C93.5542 40.7477 95.3108 35.8658 95.506 30.7887C95.506 30.2029 95.506 29.4218 95.3108 28.8359C89.6506 29.4218 84.3807 32.1556 80.6723 36.4517C77.3542 40.1619 75.4024 44.8485 75.2072 49.9256C75.2072 50.5114 75.2072 51.0973 75.4024 51.6831C75.7928 51.6831 76.3783 51.8784 76.7687 51.8784C82.0386 51.4878 86.9181 48.754 90.2361 44.6532Z" fill="white"/>
</g>
<defs>
<clipPath id="clip0_342_116">
<rect width="81" height="99.5902" fill="white" transform="translate(35 29)"/>
</clipPath>
</defs>
</svg>
