<svg width="466" height="158" viewBox="0 0 466 158" fill="none" xmlns="http://www.w3.org/2000/svg">
<rect x="3" width="460" height="158" rx="11" fill="#1A1A1A"/>
<path d="M155.478 50.5352H146.721L145.108 55H142.343L149.602 35.0382H152.626L159.856 55H157.091L155.478 50.5352ZM154.729 48.4037L151.1 38.2643L147.47 48.4037H154.729ZM162.041 44.9471C162.041 42.9883 162.482 41.2312 163.366 39.6758C164.249 38.1011 165.449 36.8721 166.966 35.9887C168.503 35.1054 170.202 34.6637 172.065 34.6637C174.254 34.6637 176.165 35.1918 177.797 36.248C179.429 37.3042 180.62 38.802 181.369 40.7416H178.229C177.672 39.5317 176.866 38.6004 175.809 37.9475C174.772 37.2946 173.524 36.9681 172.065 36.9681C170.663 36.9681 169.405 37.2946 168.291 37.9475C167.178 38.6004 166.304 39.5317 165.67 40.7416C165.036 41.9322 164.72 43.334 164.72 44.9471C164.72 46.541 165.036 47.9428 165.67 49.1526C166.304 50.3432 167.178 51.265 168.291 51.9179C169.405 52.5708 170.663 52.8972 172.065 52.8972C173.524 52.8972 174.772 52.5804 175.809 51.9467C176.866 51.2938 177.672 50.3624 178.229 49.1526H181.369C180.62 51.0729 179.429 52.5612 177.797 53.6174C176.165 54.6543 174.254 55.1728 172.065 55.1728C170.202 55.1728 168.503 54.7408 166.966 53.8766C165.449 52.9933 164.249 51.7738 163.366 50.2184C162.482 48.6629 162.041 46.9058 162.041 44.9471ZM187.892 37.0545V43.7661H195.208V45.9264H187.892V52.8396H196.073V55H185.271V34.8942H196.073V37.0545H187.892ZM206.405 55.2016C205.08 55.2016 203.889 54.9712 202.833 54.5103C201.796 54.0302 200.98 53.3773 200.385 52.5516C199.789 51.7066 199.482 50.7369 199.463 49.6423H202.257C202.353 50.5832 202.737 51.3802 203.409 52.0331C204.1 52.6668 205.099 52.9837 206.405 52.9837C207.653 52.9837 208.632 52.6764 209.343 52.0619C210.073 51.4282 210.437 50.6216 210.437 49.6423C210.437 48.8742 210.226 48.25 209.804 47.77C209.381 47.2899 208.853 46.925 208.219 46.6754C207.586 46.4257 206.731 46.1569 205.656 45.8688C204.331 45.5232 203.265 45.1775 202.458 44.8319C201.671 44.4862 200.989 43.9485 200.413 43.2188C199.856 42.4699 199.578 41.4713 199.578 40.2231C199.578 39.1285 199.856 38.1587 200.413 37.3138C200.97 36.4688 201.748 35.8159 202.747 35.355C203.764 34.8942 204.926 34.6637 206.232 34.6637C208.114 34.6637 209.65 35.1342 210.841 36.0752C212.051 37.0161 212.732 38.2643 212.886 39.8198H210.005C209.909 39.0517 209.506 38.3796 208.796 37.8035C208.085 37.2082 207.144 36.9105 205.973 36.9105C204.878 36.9105 203.985 37.1985 203.294 37.7746C202.603 38.3315 202.257 39.1189 202.257 40.1367C202.257 40.8664 202.458 41.4617 202.862 41.9226C203.284 42.3834 203.793 42.7387 204.388 42.9883C205.003 43.2188 205.857 43.4876 206.952 43.7949C208.277 44.1597 209.343 44.5246 210.149 44.8895C210.956 45.2351 211.647 45.7824 212.223 46.5313C212.799 47.2611 213.087 48.2596 213.087 49.5271C213.087 50.5064 212.828 51.4282 212.31 52.2923C211.791 53.1565 211.023 53.8574 210.005 54.3951C208.988 54.9328 207.787 55.2016 206.405 55.2016ZM223.311 55.2016C221.986 55.2016 220.795 54.9712 219.739 54.5103C218.702 54.0302 217.886 53.3773 217.291 52.5516C216.695 51.7066 216.388 50.7369 216.369 49.6423H219.163C219.259 50.5832 219.643 51.3802 220.315 52.0331C221.006 52.6668 222.005 52.9837 223.311 52.9837C224.559 52.9837 225.538 52.6764 226.249 52.0619C226.979 51.4282 227.343 50.6216 227.343 49.6423C227.343 48.8742 227.132 48.25 226.71 47.77C226.287 47.2899 225.759 46.925 225.125 46.6754C224.492 46.4257 223.637 46.1569 222.562 45.8688C221.237 45.5232 220.171 45.1775 219.365 44.8319C218.577 44.4862 217.895 43.9485 217.319 43.2188C216.762 42.4699 216.484 41.4713 216.484 40.2231C216.484 39.1285 216.762 38.1587 217.319 37.3138C217.876 36.4688 218.654 35.8159 219.653 35.355C220.67 34.8942 221.832 34.6637 223.138 34.6637C225.02 34.6637 226.556 35.1342 227.747 36.0752C228.957 37.0161 229.638 38.2643 229.792 39.8198H226.911C226.815 39.0517 226.412 38.3796 225.702 37.8035C224.991 37.2082 224.05 36.9105 222.879 36.9105C221.784 36.9105 220.891 37.1985 220.2 37.7746C219.509 38.3315 219.163 39.1189 219.163 40.1367C219.163 40.8664 219.365 41.4617 219.768 41.9226C220.19 42.3834 220.699 42.7387 221.294 42.9883C221.909 43.2188 222.763 43.4876 223.858 43.7949C225.183 44.1597 226.249 44.5246 227.055 44.8895C227.862 45.2351 228.553 45.7824 229.129 46.5313C229.705 47.2611 229.994 48.2596 229.994 49.5271C229.994 50.5064 229.734 51.4282 229.216 52.2923C228.697 53.1565 227.929 53.8574 226.911 54.3951C225.894 54.9328 224.693 55.2016 223.311 55.2016ZM236.472 37.0545V43.7661H243.789V45.9264H236.472V52.8396H244.653V55H233.851V34.8942H244.653V37.0545H236.472ZM269.722 40.7992C269.722 42.4699 269.146 43.8621 267.993 44.9759C266.86 46.0705 265.122 46.6178 262.78 46.6178H258.92V55H256.299V34.923H262.78C265.046 34.923 266.764 35.4703 267.936 36.5648C269.126 37.6594 269.722 39.0709 269.722 40.7992ZM262.78 44.4574C264.239 44.4574 265.314 44.1405 266.006 43.5068C266.697 42.8731 267.043 41.9706 267.043 40.7992C267.043 38.3219 265.622 37.0833 262.78 37.0833H258.92V44.4574H262.78ZM275.601 37.0545V43.7661H282.917V45.9264H275.601V52.8396H283.781V55H272.979V34.8942H283.781V37.0545H275.601ZM290.369 52.8684H297.397V55H287.748V34.923H290.369V52.8684ZM309.283 55.2016C307.421 55.2016 305.721 54.7696 304.185 53.9054C302.649 53.0221 301.429 51.8027 300.527 50.2472C299.643 48.6725 299.202 46.9058 299.202 44.9471C299.202 42.9883 299.643 41.2312 300.527 39.6758C301.429 38.1011 302.649 36.8817 304.185 36.0175C305.721 35.1342 307.421 34.6925 309.283 34.6925C311.165 34.6925 312.874 35.1342 314.411 36.0175C315.947 36.8817 317.157 38.0915 318.04 39.647C318.923 41.2024 319.365 42.9691 319.365 44.9471C319.365 46.925 318.923 48.6917 318.04 50.2472C317.157 51.8027 315.947 53.0221 314.411 53.9054C312.874 54.7696 311.165 55.2016 309.283 55.2016ZM309.283 52.926C310.685 52.926 311.943 52.5996 313.057 51.9467C314.19 51.2938 315.073 50.3624 315.707 49.1526C316.36 47.9428 316.686 46.541 316.686 44.9471C316.686 43.334 316.36 41.9322 315.707 40.7416C315.073 39.5317 314.199 38.6004 313.086 37.9475C311.972 37.2946 310.704 36.9681 309.283 36.9681C307.862 36.9681 306.595 37.2946 305.481 37.9475C304.367 38.6004 303.484 39.5317 302.831 40.7416C302.197 41.9322 301.881 43.334 301.881 44.9471C301.881 46.541 302.197 47.9428 302.831 49.1526C303.484 50.3624 304.367 51.2938 305.481 51.9467C306.614 52.5996 307.882 52.926 309.283 52.926Z" fill="white"/>
<path d="M175.592 115.326H168.361L151.988 90.5856V115.326H144.757V79.2227H151.988L168.361 104.014V79.2227H175.592V115.326ZM180.878 100.915C180.878 98.0231 181.446 95.4579 182.583 93.2197C183.753 90.9816 185.32 89.2599 187.283 88.0548C189.28 86.8496 191.501 86.2471 193.945 86.2471C196.08 86.2471 197.94 86.6775 199.524 87.5383C201.142 88.3991 202.433 89.4838 203.397 90.7922V86.7119H210.68V115.326H203.397V111.142C202.468 112.485 201.176 113.604 199.524 114.499C197.905 115.36 196.029 115.791 193.894 115.791C191.483 115.791 189.28 115.171 187.283 113.931C185.32 112.692 183.753 110.953 182.583 108.715C181.446 106.442 180.878 103.842 180.878 100.915ZM203.397 101.019C203.397 99.2627 203.053 97.7649 202.364 96.5253C201.676 95.2513 200.746 94.2872 199.575 93.6329C198.405 92.9443 197.148 92.5999 195.805 92.5999C194.462 92.5999 193.222 92.9271 192.086 93.5813C190.95 94.2355 190.02 95.1996 189.297 96.4736C188.608 97.7132 188.264 99.1938 188.264 100.915C188.264 102.637 188.608 104.152 189.297 105.461C190.02 106.735 190.95 107.716 192.086 108.405C193.257 109.093 194.496 109.438 195.805 109.438C197.148 109.438 198.405 109.111 199.575 108.456C200.746 107.768 201.676 106.804 202.364 105.564C203.053 104.29 203.397 102.775 203.397 101.019ZM229.673 108.663L236.904 86.7119H244.6L234.012 115.326H225.231L214.695 86.7119H222.442L229.673 108.663ZM275.261 100.399C275.261 101.432 275.192 102.362 275.054 103.188H254.136C254.308 105.254 255.031 106.872 256.305 108.043C257.579 109.214 259.146 109.799 261.005 109.799C263.691 109.799 265.602 108.646 266.738 106.339H274.538C273.711 109.093 272.127 111.366 269.786 113.156C267.444 114.912 264.569 115.791 261.16 115.791C258.406 115.791 255.926 115.188 253.723 113.983C251.554 112.743 249.849 111.004 248.609 108.766C247.404 106.528 246.802 103.946 246.802 101.019C246.802 98.0576 247.404 95.4579 248.609 93.2197C249.815 90.9816 251.502 89.2599 253.671 88.0548C255.84 86.8496 258.337 86.2471 261.16 86.2471C263.881 86.2471 266.308 86.8324 268.443 88.0031C270.612 89.1739 272.282 90.8439 273.453 93.0131C274.658 95.148 275.261 97.6099 275.261 100.399ZM267.771 98.333C267.737 96.4736 267.066 94.993 265.757 93.8912C264.449 92.7549 262.848 92.1867 260.954 92.1867C259.163 92.1867 257.648 92.7377 256.409 93.8395C255.203 94.9069 254.463 96.4048 254.188 98.333H267.771ZM291.746 86.2471C293.881 86.2471 295.758 86.6775 297.376 87.5383C298.995 88.3647 300.269 89.4493 301.198 90.7922V86.7119H308.481V115.532C308.481 118.184 307.947 120.542 306.88 122.608C305.812 124.709 304.211 126.361 302.076 127.567C299.941 128.806 297.359 129.426 294.329 129.426C290.266 129.426 286.926 128.479 284.309 126.585C281.726 124.691 280.263 122.109 279.919 118.838H287.098C287.477 120.146 288.286 121.179 289.526 121.937C290.8 122.729 292.332 123.125 294.122 123.125C296.223 123.125 297.927 122.488 299.236 121.214C300.544 119.974 301.198 118.08 301.198 115.532V111.09C300.269 112.433 298.977 113.552 297.325 114.448C295.706 115.343 293.847 115.791 291.746 115.791C289.336 115.791 287.132 115.171 285.135 113.931C283.138 112.692 281.554 110.953 280.384 108.715C279.247 106.442 278.679 103.842 278.679 100.915C278.679 98.0231 279.247 95.4579 280.384 93.2197C281.554 90.9816 283.121 89.2599 285.084 88.0548C287.081 86.8496 289.302 86.2471 291.746 86.2471ZM301.198 101.019C301.198 99.2627 300.854 97.7649 300.165 96.5253C299.477 95.2513 298.547 94.2872 297.376 93.6329C296.206 92.9443 294.949 92.5999 293.606 92.5999C292.263 92.5999 291.023 92.9271 289.887 93.5813C288.751 94.2355 287.821 95.1996 287.098 96.4736C286.409 97.7132 286.065 99.1938 286.065 100.915C286.065 102.637 286.409 104.152 287.098 105.461C287.821 106.735 288.751 107.716 289.887 108.405C291.058 109.093 292.297 109.438 293.606 109.438C294.949 109.438 296.206 109.111 297.376 108.456C298.547 107.768 299.477 106.804 300.165 105.564C300.854 104.29 301.198 102.775 301.198 101.019ZM313.684 100.915C313.684 98.0231 314.252 95.4579 315.388 93.2197C316.559 90.9816 318.126 89.2599 320.088 88.0548C322.085 86.8496 324.306 86.2471 326.751 86.2471C328.886 86.2471 330.745 86.6775 332.329 87.5383C333.948 88.3991 335.239 89.4838 336.203 90.7922V86.7119H343.485V115.326H336.203V111.142C335.273 112.485 333.982 113.604 332.329 114.499C330.711 115.36 328.834 115.791 326.699 115.791C324.289 115.791 322.085 115.171 320.088 113.931C318.126 112.692 316.559 110.953 315.388 108.715C314.252 106.442 313.684 103.842 313.684 100.915ZM336.203 101.019C336.203 99.2627 335.859 97.7649 335.17 96.5253C334.481 95.2513 333.552 94.2872 332.381 93.6329C331.21 92.9443 329.953 92.5999 328.61 92.5999C327.268 92.5999 326.028 92.9271 324.892 93.5813C323.755 94.2355 322.826 95.1996 322.103 96.4736C321.414 97.7132 321.07 99.1938 321.07 100.915C321.07 102.637 321.414 104.152 322.103 105.461C322.826 106.735 323.755 107.716 324.892 108.405C326.062 109.093 327.302 109.438 328.61 109.438C329.953 109.438 331.21 109.111 332.381 108.456C333.552 107.768 334.481 106.804 335.17 105.564C335.859 104.29 336.203 102.775 336.203 101.019ZM348.688 100.915C348.688 98.0231 349.256 95.4579 350.393 93.2197C351.563 90.9816 353.147 89.2599 355.144 88.0548C357.142 86.8496 359.363 86.2471 361.807 86.2471C363.667 86.2471 365.44 86.6603 367.127 87.4866C368.814 88.2786 370.157 89.346 371.156 90.6889V77.1051H378.49V115.326H371.156V111.09C370.261 112.502 369.004 113.638 367.385 114.499C365.767 115.36 363.89 115.791 361.756 115.791C359.345 115.791 357.142 115.171 355.144 113.931C353.147 112.692 351.563 110.953 350.393 108.715C349.256 106.442 348.688 103.842 348.688 100.915ZM371.207 101.019C371.207 99.2627 370.863 97.7649 370.174 96.5253C369.486 95.2513 368.556 94.2872 367.385 93.6329C366.215 92.9443 364.958 92.5999 363.615 92.5999C362.272 92.5999 361.033 92.9271 359.896 93.5813C358.76 94.2355 357.83 95.1996 357.107 96.4736C356.419 97.7132 356.074 99.1938 356.074 100.915C356.074 102.637 356.419 104.152 357.107 105.461C357.83 106.735 358.76 107.716 359.896 108.405C361.067 109.093 362.307 109.438 363.615 109.438C364.958 109.438 366.215 109.111 367.385 108.456C368.556 107.768 369.486 106.804 370.174 105.564C370.863 104.29 371.207 102.775 371.207 101.019ZM398.258 115.791C395.503 115.791 393.024 115.188 390.821 113.983C388.617 112.743 386.878 111.004 385.604 108.766C384.364 106.528 383.745 103.946 383.745 101.019C383.745 98.092 384.382 95.5095 385.656 93.2714C386.964 91.0332 388.737 89.3116 390.975 88.1064C393.214 86.8669 395.71 86.2471 398.465 86.2471C401.219 86.2471 403.716 86.8669 405.954 88.1064C408.192 89.3116 409.948 91.0332 411.222 93.2714C412.53 95.5095 413.185 98.092 413.185 101.019C413.185 103.946 412.513 106.528 411.17 108.766C409.862 111.004 408.071 112.743 405.799 113.983C403.561 115.188 401.047 115.791 398.258 115.791ZM398.258 109.489C399.566 109.489 400.789 109.179 401.925 108.56C403.096 107.905 404.026 106.941 404.714 105.667C405.403 104.393 405.747 102.844 405.747 101.019C405.747 98.2986 405.024 96.2154 403.578 94.7692C402.166 93.2886 400.427 92.5483 398.361 92.5483C396.295 92.5483 394.556 93.2886 393.145 94.7692C391.767 96.2154 391.079 98.2986 391.079 101.019C391.079 103.739 391.75 105.839 393.093 107.32C394.47 108.766 396.192 109.489 398.258 109.489ZM425.72 91.1538C426.649 89.6387 427.855 88.4508 429.335 87.5899C430.85 86.7291 432.572 86.2987 434.5 86.2987V93.8912H432.589C430.317 93.8912 428.595 94.4249 427.424 95.4923C426.288 96.5597 425.72 98.4191 425.72 101.07V115.326H418.489V86.7119H425.72V91.1538Z" fill="white"/>
<path d="M61.0844 67.0064C62.3211 66.913 64.2498 66.9731 65.5382 66.9732L73.7833 66.9759L84.5778 66.9716C86.6679 66.9698 88.9584 66.9209 91.0339 67.0069C91.13 67.6157 91.1537 68.5623 91.3278 69.1194C92.0825 71.5341 91.9512 73.5948 91.9824 76.097C92.019 78.3573 92.015 80.6182 91.9706 82.8784C91.9399 85.3189 91.8834 87.1372 91.2888 89.5085C91.1794 89.9449 91.2712 90.6543 91.0342 90.9985C87.2079 91.0731 83.1407 91.0091 79.2935 91.0098L60.9177 91.0055C60.8333 90.2324 60.7644 89.4181 60.6488 88.6567C59.7074 82.4563 59.7942 75.9394 60.5574 69.7258C60.6605 68.8867 60.7522 67.7858 61.0844 67.0064Z" fill="#FEFEFE"/>
<path d="M75.3307 39.0829C76.7315 39.0282 78.463 39.2153 79.6028 40.1132C84.7446 44.1639 87.8021 51.2236 89.0914 57.4835C89.1691 57.8611 89.3982 58.3823 89.3847 58.6853C88.8846 59.1225 85.2171 58.979 84.4345 58.9787L76.797 58.9696L68.5119 58.9809C67.5238 58.9849 63.2043 59.1488 62.7202 58.7008C62.5831 57.5726 64.1809 52.4528 64.6866 51.2402C65.3219 49.717 66.7686 47.403 67.2686 45.7698C67.9995 45.2551 68.3959 44.3382 69.0034 43.6149C71.12 41.095 72.1063 39.8523 75.3307 39.0829Z" fill="#FEFEFE"/>
<path d="M62.9328 99.0681C68.2178 98.9631 73.7342 99.0918 79.0376 99.0453C80.7479 99.0303 88.3001 98.9189 89.3463 99.224L89.3841 99.44C88.9445 100.365 89.0724 101.427 88.742 102.381C88.2551 103.487 88.0362 105.257 87.5355 106.276C86.3366 108.715 85.3252 111.172 83.7288 113.362C78.1815 121.563 72.6556 120.363 67.5454 112.332C66.4018 110.535 65.5148 108.191 64.5037 106.294C63.8556 105.079 64.0278 103.622 63.0707 102.359C63.0927 101.398 62.6425 99.7514 62.9328 99.0681Z" fill="#FEFEFE"/>
<path d="M99.6761 67.022C100.608 66.9023 103.75 66.9527 104.917 66.9677C107.855 67.0056 111.092 66.8817 113.99 67.0104C115.216 68.5194 114.867 69.614 115.143 71.4215C115.275 72.2871 115.806 73.4472 115.866 74.217C116.115 77.4029 116.04 80.6986 115.866 83.8879C115.826 84.5485 115.203 86.216 115.091 87.0908C114.955 88.1617 114.977 89.3634 114.569 90.2784C114.543 90.5372 114.521 90.5755 114.404 90.8095C114.252 90.9413 114.052 90.995 113.853 90.9945C109.054 90.9836 104.195 91.1065 99.4004 90.9865C99.4992 89.0904 99.6969 87.1786 99.7901 85.2809C99.9553 81.5504 99.9806 77.8151 99.866 74.0827C99.79 71.8604 99.5824 69.6536 99.5144 67.4337C99.5109 67.3198 99.6176 67.1162 99.6761 67.022Z" fill="#FEFEFE"/>
<path d="M38.1214 66.9943C39.9451 66.9315 52.0482 66.7787 52.8896 67.2143C52.8762 67.9606 52.6153 68.6896 52.501 69.4283C51.9223 73.2234 52.0209 77.1197 52.0319 80.9508C52.0385 83.2066 52.0883 85.5131 52.357 87.7548C52.4896 88.8615 52.8105 89.8628 53.0499 90.9414L52.1089 91.0069L37.9645 91.0068C37.7612 90.3124 37.2986 89.7972 37.1777 89.0098C36.6814 85.7788 36.0165 82.8461 35.9895 79.564C35.9578 75.7254 36.5659 72.1223 37.3454 68.3738C37.4392 67.9223 37.8568 67.3752 38.1214 66.9943Z" fill="#FEFEFE"/>
<path d="M92.5083 42.7891C93.7889 42.8145 95.084 43.9295 96.1528 44.5048C98.3466 45.6857 100.298 47.1011 102.224 48.6774C102.844 49.1847 103.372 49.8357 103.945 50.3945C106.411 52.6681 108.494 55.3912 110.08 58.3462C110.193 58.5564 110.068 58.7155 109.976 58.9031C108.433 59.0284 106.509 58.9785 104.939 58.9803C102.627 58.9948 100.315 58.9969 98.0026 58.9866C97.8655 58.3596 97.3469 57.4324 97.2538 56.8049C96.6604 52.8061 94.974 49.2197 93.4788 45.5245C93.1572 44.7298 92.4299 43.4032 92.5083 42.7891Z" fill="#FEFEFE"/>
<path d="M98.1496 99.08C99.6303 99.0244 109.106 98.8535 110.048 99.2358L110.088 99.4217C109.383 101.988 104.596 107.094 102.541 109.012C102.214 109.317 100.836 110.293 100.369 110.669C99.6349 111.403 93.1446 115.844 92.6221 114.866C92.7751 113.811 93.8054 111.983 94.0876 110.774C94.4399 109.264 95.4385 107.747 95.977 106.187C96.3395 105.105 96.6454 104.004 96.8935 102.89C97.2623 101.153 97.2008 100.622 98.1496 99.08Z" fill="#FEFEFE"/>
<path d="M59.286 42.8541L59.4133 42.8462C59.6267 43.2186 59.215 43.6237 59.0519 43.984C58.2977 45.5493 57.9839 47.5218 57.1694 49.0383C55.8361 51.5208 55.3242 54.2966 54.7374 57.0252C54.5997 57.6648 54.3107 58.2226 54.1568 58.8936C53.2231 59.0482 51.1532 58.983 50.1179 58.9852C47.5811 59.0084 45.0441 58.9973 42.5076 58.9521C42.1358 58.954 42.1006 58.8893 42.0146 58.5762C42.111 57.985 42.8619 56.5315 43.2438 56.0195C46.8386 51.2003 51.3272 46.8358 56.7114 44.0691C57.7675 43.5263 58.148 43.0985 59.286 42.8541Z" fill="#FEFEFE"/>
<path d="M52.9589 99.0129C53.2265 98.9891 53.3864 99.0166 53.6479 99.0482C54.9087 99.6562 54.8201 102.24 55.1208 103.348C55.8875 106.174 57.1453 108.803 58.1508 111.538C58.3638 112.117 59.5022 114.464 59.426 114.906L59.2571 115.012C58.0001 115.128 53.7119 112.145 52.4317 111.336C51.4818 110.42 50.2456 109.491 49.2308 108.71C47.9666 107.737 41.3573 100.607 42.1835 99.1757C42.6301 98.9402 51.6057 99.0541 52.9589 99.0129Z" fill="#FEFEFE"/>
</svg>
