<svg width="460" height="158" viewBox="0 0 460 158" fill="none" xmlns="http://www.w3.org/2000/svg">
<rect width="460" height="158" rx="11" fill="#1A1A1A"/>
<path d="M425.101 92.2925L418.061 110.174H417.849L410.504 92.2925H403.863L414.869 117.289L408.58 131.191H415.033L432 92.2925H425.101ZM375.351 77.454H369.203V118.693H375.351V77.454ZM352.213 77.454H337.428V118.693H343.624V103.082H352.236C353.972 103.141 355.703 102.856 357.328 102.243C358.953 101.629 360.44 100.7 361.702 99.509C362.963 98.318 363.976 96.8888 364.679 95.3044C365.383 93.7201 365.764 92.0121 365.8 90.2797C365.764 88.5442 365.382 86.8332 364.677 85.246C363.973 83.6588 362.959 82.2271 361.695 81.0338C360.431 79.8406 358.942 78.9097 357.314 78.2952C355.686 77.6806 353.952 77.3947 352.213 77.454ZM352.377 97.3245H343.624V83.2817H352.4C354.267 83.2817 356.058 84.0215 357.378 85.3382C358.699 86.655 359.44 88.4409 359.44 90.3031C359.44 92.1653 358.699 93.9512 357.378 95.268C356.058 96.5847 354.267 97.3245 352.4 97.3245H352.377ZM390.511 91.4031C388.259 91.2743 386.018 91.8035 384.063 92.926C382.108 94.0484 380.524 95.7153 379.505 97.7224L384.996 100.063C385.54 99.0705 386.363 98.2584 387.363 97.7262C388.364 97.1939 389.499 96.9648 390.628 97.067C391.403 96.9895 392.186 97.0657 392.932 97.2911C393.678 97.5165 394.372 97.8867 394.974 98.3804C395.576 98.8741 396.074 99.4817 396.44 100.168C396.805 100.854 397.031 101.606 397.105 102.38V102.801C395.137 101.74 392.935 101.185 390.698 101.186C384.808 101.186 378.801 104.416 378.801 110.548C378.801 116.072 383.611 119.629 389.056 119.629C390.605 119.727 392.152 119.405 393.532 118.696C394.912 117.987 396.074 116.918 396.894 115.603H397.128V118.786H403.136V102.918C403.136 95.5925 397.644 91.5201 390.557 91.5201L390.511 91.4031ZM389.783 114.012C387.765 114.012 384.949 112.982 384.949 110.501C384.949 107.318 388.445 106.101 391.496 106.101C393.464 106.049 395.409 106.526 397.128 107.482C396.902 109.272 396.033 110.919 394.682 112.12C393.332 113.32 391.592 113.992 389.783 114.012ZM167.27 119.582C161.431 119.601 155.819 117.325 151.65 113.247C147.482 109.168 145.093 103.616 145 97.7926C145.093 91.9694 147.482 86.417 151.65 82.3385C155.819 78.2599 161.431 75.9837 167.27 76.0029C170.053 75.9567 172.816 76.4649 175.399 77.4978C177.982 78.5306 180.333 80.0674 182.312 82.0179L178.065 86.2073C175.184 83.3919 171.303 81.827 167.27 81.854C163.057 81.854 159.016 83.5234 156.036 86.4949C153.057 89.4664 151.383 93.4966 151.383 97.699C151.383 101.901 153.057 105.932 156.036 108.903C159.016 111.874 163.057 113.544 167.27 113.544C169.321 113.628 171.366 113.282 173.274 112.528C175.182 111.774 176.91 110.629 178.346 109.167C180.256 107.114 181.407 104.472 181.608 101.678H167.27V95.8968H187.452C187.672 97.1247 187.774 98.3708 187.757 99.6181C187.959 104.799 186.094 109.849 182.57 113.661C180.581 115.665 178.19 117.229 175.553 118.249C172.917 119.269 170.094 119.724 167.27 119.582ZM218.968 105.539C219.045 107.412 218.742 109.28 218.076 111.032C217.411 112.785 216.398 114.385 215.097 115.736C213.796 117.088 212.234 118.164 210.506 118.899C208.778 119.633 206.919 120.012 205.04 120.012C203.161 120.012 201.302 119.633 199.574 118.899C197.846 118.164 196.284 117.088 194.983 115.736C193.682 114.385 192.669 112.785 192.004 111.032C191.339 109.28 191.035 107.412 191.112 105.539C191.035 103.667 191.339 101.799 192.004 100.047C192.669 98.2944 193.682 96.6943 194.983 95.3425C196.284 93.9907 197.846 92.9151 199.574 92.1804C201.302 91.4456 203.161 91.0669 205.04 91.0669C206.919 91.0669 208.778 91.4456 210.506 92.1804C212.234 92.9151 213.796 93.9907 215.097 95.3425C216.398 96.6943 217.411 98.2944 218.076 100.047C218.742 101.799 219.045 103.667 218.968 105.539ZM212.866 105.539C212.97 104.452 212.844 103.355 212.498 102.319C212.152 101.283 211.592 100.331 210.856 99.5228C210.119 98.7149 209.221 98.0694 208.219 97.6277C207.218 97.186 206.135 96.9578 205.04 96.9578C203.945 96.9578 202.862 97.186 201.861 97.6277C200.859 98.0694 199.961 98.7149 199.224 99.5228C198.488 100.331 197.928 101.283 197.582 102.319C197.236 103.355 197.11 104.452 197.214 105.539C197.11 106.627 197.236 107.724 197.582 108.76C197.928 109.796 198.488 110.748 199.224 111.556C199.961 112.364 200.859 113.01 201.861 113.451C202.862 113.893 203.945 114.121 205.04 114.121C206.135 114.121 207.218 113.893 208.219 113.451C209.221 113.01 210.119 112.364 210.856 111.556C211.592 110.748 212.152 109.796 212.498 108.76C212.844 107.724 212.97 106.627 212.866 105.539ZM250.179 105.539C250.179 109.22 248.712 112.751 246.103 115.353C243.493 117.956 239.953 119.418 236.263 119.418C232.572 119.418 229.032 117.956 226.423 115.353C223.813 112.751 222.347 109.22 222.347 105.539C222.347 101.859 223.813 98.3284 226.423 95.7256C229.032 93.1228 232.572 91.6606 236.263 91.6606C239.953 91.6606 243.493 93.1228 246.103 95.7256C248.712 98.3284 250.179 101.859 250.179 105.539ZM244.101 105.539C244.204 104.452 244.079 103.355 243.733 102.319C243.386 101.283 242.827 100.331 242.09 99.5228C241.353 98.7149 240.455 98.0694 239.454 97.6277C238.452 97.186 237.369 96.9578 236.274 96.9578C235.179 96.9578 234.096 97.186 233.095 97.6277C232.094 98.0694 231.196 98.7149 230.459 99.5228C229.722 100.331 229.163 101.283 228.816 102.319C228.47 103.355 228.345 104.452 228.448 105.539C228.345 106.627 228.47 107.724 228.816 108.76C229.163 109.796 229.722 110.748 230.459 111.556C231.196 112.364 232.094 113.01 233.095 113.451C234.096 113.893 235.179 114.121 236.274 114.121C237.369 114.121 238.452 113.893 239.454 113.451C240.455 113.01 241.353 112.364 242.09 111.556C242.827 110.748 243.386 109.796 243.733 108.76C244.079 107.724 244.204 106.627 244.101 105.539ZM280.639 92.3627V117.569C280.639 127.914 274.467 132.174 267.192 132.174C264.525 132.196 261.912 131.43 259.682 129.972C257.451 128.514 255.704 126.43 254.661 123.982L259.988 121.642C260.54 123.071 261.503 124.306 262.755 125.192C264.007 126.079 265.493 126.578 267.028 126.627C271.721 126.627 274.584 123.748 274.584 118.389V116.376H274.349C273.429 117.4 272.299 118.216 271.037 118.769C269.774 119.322 268.407 119.6 267.028 119.582C263.294 119.582 259.712 118.103 257.072 115.469C254.431 112.836 252.948 109.264 252.948 105.539C252.948 101.815 254.431 98.2433 257.072 95.6098C259.712 92.9762 263.294 91.4967 267.028 91.4967C268.416 91.4663 269.795 91.7301 271.073 92.2707C272.352 92.8113 273.5 93.6165 274.443 94.633H274.678V92.2925H280.639V92.3627ZM275.171 105.61C275.257 104.55 275.129 103.485 274.794 102.476C274.46 101.467 273.925 100.535 273.222 99.7363C272.52 98.9374 271.664 98.2873 270.704 97.8248C269.745 97.3622 268.702 97.0966 267.638 97.0436C266.553 97.0795 265.486 97.3307 264.499 97.7827C263.513 98.2347 262.627 98.8783 261.893 99.6759C261.158 100.473 260.591 101.409 260.224 102.428C259.856 103.447 259.696 104.528 259.753 105.61C259.703 106.684 259.868 107.757 260.239 108.766C260.61 109.776 261.18 110.701 261.914 111.488C262.648 112.275 263.533 112.908 264.516 113.349C265.499 113.791 266.56 114.032 267.638 114.059C268.696 114.018 269.734 113.764 270.692 113.313C271.649 112.862 272.505 112.223 273.208 111.434C273.912 110.645 274.448 109.722 274.785 108.722C275.123 107.721 275.254 106.662 275.171 105.61ZM291.504 77.5008V118.716H285.309V77.5008H291.504ZM315.909 110.174L320.744 113.357C319.453 115.278 317.707 116.851 315.66 117.937C313.613 119.023 311.329 119.588 309.01 119.582C307.166 119.609 305.335 119.261 303.629 118.562C301.923 117.862 300.378 116.824 299.085 115.511C297.793 114.199 296.782 112.638 296.112 110.924C295.442 109.21 295.128 107.378 295.188 105.539C294.913 102.379 295.815 99.2273 297.72 96.6865C299.625 94.1456 302.401 92.3929 305.519 91.7623C308.637 91.1317 311.878 91.6674 314.625 93.2673C317.372 94.8672 319.433 97.4193 320.415 100.437L321.049 102.052L302.275 109.799C302.86 111.111 303.825 112.217 305.047 112.976C306.268 113.736 307.689 114.113 309.127 114.059C310.495 114.037 311.835 113.67 313.022 112.99C314.208 112.31 315.202 111.341 315.909 110.174ZM301.102 105.118L313.727 99.9224C313.238 98.9685 312.48 98.1785 311.545 97.6502C310.611 97.1219 309.542 96.8785 308.47 96.95C307.446 96.9947 306.44 97.2425 305.513 97.6791C304.585 98.1156 303.754 98.7321 303.068 99.4926C302.382 100.253 301.855 101.142 301.517 102.108C301.18 103.074 301.038 104.097 301.102 105.118Z" fill="white"/>
<path d="M71.1337 76.7979L26.4004 123.54C26.9027 125.316 27.8054 126.953 29.0395 128.327C30.2736 129.702 31.8064 130.776 33.5207 131.469C35.2351 132.162 37.0856 132.455 38.9308 132.325C40.776 132.196 42.5671 131.647 44.1671 130.721L94.5004 102.13L71.1337 76.7979Z" fill="url(#paint0_linear_342_71)"/>
<path d="M116.367 68.852L94.6001 56.4185L70.1001 77.8614L94.7001 102.064L116.3 89.763C118.214 88.7638 119.817 87.2612 120.935 85.4181C122.053 83.5751 122.645 81.4618 122.645 79.3075C122.645 77.1532 122.053 75.04 120.935 73.197C119.817 71.3539 118.214 69.8513 116.3 68.852H116.367Z" fill="url(#paint1_linear_342_71)"/>
<path d="M26.4001 34.8428C26.1297 35.8397 25.9952 36.8685 26.0001 37.9013V120.482C26.0028 121.514 26.1372 122.542 26.4001 123.54L72.6668 77.9946L26.4001 34.8428Z" fill="url(#paint2_linear_342_71)"/>
<path d="M71.467 79.1918L94.6004 56.4191L44.3337 27.6955C42.4427 26.5909 40.2919 26.0059 38.1004 26C35.4537 25.9948 32.8778 26.8528 30.7655 28.4434C28.6532 30.0339 27.1202 32.2697 26.4004 34.8099L71.467 79.1918Z" fill="url(#paint3_linear_342_71)"/>
<path d="M153.832 32.923C156.021 32.923 157.913 33.3358 159.507 34.1616C161.12 34.9681 162.349 36.1299 163.194 37.647C164.058 39.164 164.49 40.9499 164.49 43.0047C164.49 45.0594 164.058 46.8453 163.194 48.3624C162.349 49.8603 161.12 51.0125 159.507 51.819C157.913 52.6063 156.021 53 153.832 53H147.581V32.923H153.832ZM153.832 50.8396C156.425 50.8396 158.402 50.1579 159.766 48.7945C161.129 47.4118 161.811 45.4819 161.811 43.0047C161.811 40.5083 161.12 38.5591 159.737 37.1573C158.374 35.7554 156.405 35.0545 153.832 35.0545H150.203V50.8396H153.832ZM170.569 32.923V53H167.947V32.923H170.569ZM181.402 53.2016C180.077 53.2016 178.886 52.9712 177.83 52.5103C176.793 52.0302 175.977 51.3773 175.382 50.5516C174.786 49.7066 174.479 48.7369 174.46 47.6423H177.254C177.35 48.5832 177.734 49.3802 178.406 50.0331C179.098 50.6668 180.096 50.9837 181.402 50.9837C182.65 50.9837 183.63 50.6764 184.34 50.0619C185.07 49.4282 185.435 48.6216 185.435 47.6423C185.435 46.8742 185.223 46.25 184.801 45.77C184.378 45.2899 183.85 44.925 183.217 44.6754C182.583 44.4257 181.728 44.1569 180.653 43.8688C179.328 43.5232 178.262 43.1775 177.456 42.8319C176.668 42.4862 175.987 41.9485 175.411 41.2188C174.854 40.4699 174.575 39.4713 174.575 38.2231C174.575 37.1285 174.854 36.1587 175.411 35.3138C175.967 34.4688 176.745 33.8159 177.744 33.355C178.762 32.8942 179.923 32.6637 181.229 32.6637C183.111 32.6637 184.647 33.1342 185.838 34.0752C187.048 35.0161 187.729 36.2643 187.883 37.8198H185.003C184.907 37.0517 184.503 36.3796 183.793 35.8035C183.082 35.2082 182.141 34.9105 180.97 34.9105C179.875 34.9105 178.982 35.1985 178.291 35.7746C177.6 36.3315 177.254 37.1189 177.254 38.1367C177.254 38.8664 177.456 39.4617 177.859 39.9226C178.281 40.3834 178.79 40.7387 179.386 40.9883C180 41.2188 180.855 41.4876 181.949 41.7949C183.274 42.1597 184.34 42.5246 185.147 42.8895C185.953 43.2351 186.644 43.7824 187.221 44.5313C187.797 45.2611 188.085 46.2596 188.085 47.5271C188.085 48.5064 187.825 49.4282 187.307 50.2923C186.789 51.1565 186.02 51.8574 185.003 52.3951C183.985 52.9328 182.785 53.2016 181.402 53.2016ZM205.365 38.7992C205.365 40.4699 204.789 41.8621 203.637 42.9759C202.504 44.0705 200.766 44.6178 198.423 44.6178H194.563V53H191.942V32.923H198.423C200.689 32.923 202.408 33.4703 203.579 34.5648C204.77 35.6594 205.365 37.0709 205.365 38.7992ZM198.423 42.4574C199.883 42.4574 200.958 42.1405 201.649 41.5068C202.341 40.8731 202.686 39.9706 202.686 38.7992C202.686 36.3219 201.265 35.0833 198.423 35.0833H194.563V42.4574H198.423ZM217.725 53.2016C215.863 53.2016 214.163 52.7696 212.627 51.9054C211.091 51.0221 209.871 49.8027 208.969 48.2472C208.085 46.6725 207.644 44.9058 207.644 42.9471C207.644 40.9883 208.085 39.2312 208.969 37.6758C209.871 36.1011 211.091 34.8817 212.627 34.0175C214.163 33.1342 215.863 32.6925 217.725 32.6925C219.607 32.6925 221.316 33.1342 222.853 34.0175C224.389 34.8817 225.599 36.0915 226.482 37.647C227.366 39.2024 227.807 40.9691 227.807 42.9471C227.807 44.925 227.366 46.6917 226.482 48.2472C225.599 49.8027 224.389 51.0221 222.853 51.9054C221.316 52.7696 219.607 53.2016 217.725 53.2016ZM217.725 50.926C219.127 50.926 220.385 50.5996 221.499 49.9467C222.632 49.2938 223.515 48.3624 224.149 47.1526C224.802 45.9428 225.128 44.541 225.128 42.9471C225.128 41.334 224.802 39.9322 224.149 38.7416C223.515 37.5317 222.642 36.6004 221.528 35.9475C220.414 35.2946 219.147 34.9681 217.725 34.9681C216.304 34.9681 215.037 35.2946 213.923 35.9475C212.809 36.6004 211.926 37.5317 211.273 38.7416C210.639 39.9322 210.323 41.334 210.323 42.9471C210.323 44.541 210.639 45.9428 211.273 47.1526C211.926 48.3624 212.809 49.2938 213.923 49.9467C215.056 50.5996 216.324 50.926 217.725 50.926ZM247.053 53H244.431L233.889 37.0133V53H231.268V32.8942H233.889L244.431 48.8521V32.8942H247.053V53ZM254.142 32.923V53H251.521V32.923H254.142ZM255.64 28.5734L249.505 31.8572V29.8984L255.64 26.2978V28.5734ZM275.201 32.923L267.626 53H264.601L257.026 32.923H259.82L266.128 50.2347L272.436 32.923H275.201ZM280.697 35.0545V41.7661H288.013V43.9264H280.697V50.8396H288.877V53H278.076V32.8942H288.877V35.0545H280.697ZM295.465 50.8684H302.493V53H292.844V32.923H295.465V50.8684ZM328.742 53H326.12L315.578 37.0133V53H312.957V32.8942H315.578L326.12 48.8521V32.8942H328.742V53ZM342.312 53.2016C340.45 53.2016 338.75 52.7696 337.214 51.9054C335.678 51.0221 334.458 49.8027 333.556 48.2472C332.672 46.6725 332.231 44.9058 332.231 42.9471C332.231 40.9883 332.672 39.2312 333.556 37.6758C334.458 36.1011 335.678 34.8817 337.214 34.0175C338.75 33.1342 340.45 32.6925 342.312 32.6925C344.194 32.6925 345.903 33.1342 347.44 34.0175C348.976 34.8817 350.186 36.0915 351.069 37.647C351.952 39.2024 352.394 40.9691 352.394 42.9471C352.394 44.925 351.952 46.6917 351.069 48.2472C350.186 49.8027 348.976 51.0221 347.44 51.9054C345.903 52.7696 344.194 53.2016 342.312 53.2016ZM342.312 50.926C343.714 50.926 344.972 50.5996 346.086 49.9467C347.219 49.2938 348.102 48.3624 348.736 47.1526C349.389 45.9428 349.715 44.541 349.715 42.9471C349.715 41.334 349.389 39.9322 348.736 38.7416C348.102 37.5317 347.228 36.6004 346.115 35.9475C345.001 35.2946 343.733 34.9681 342.312 34.9681C340.891 34.9681 339.624 35.2946 338.51 35.9475C337.396 36.6004 336.513 37.5317 335.86 38.7416C335.226 39.9322 334.91 41.334 334.91 42.9471C334.91 44.541 335.226 45.9428 335.86 47.1526C336.513 48.3624 337.396 49.2938 338.51 49.9467C339.643 50.5996 340.911 50.926 342.312 50.926Z" fill="white"/>
<defs>
<linearGradient id="paint0_linear_342_71" x1="60.4504" y1="76.7979" x2="60.4504" y2="132.355" gradientUnits="userSpaceOnUse">
<stop stop-color="#E0164E"/>
<stop offset="1" stop-color="#E1154E"/>
</linearGradient>
<linearGradient id="paint1_linear_342_71" x1="117" y1="69" x2="82" y2="79" gradientUnits="userSpaceOnUse">
<stop stop-color="#FF9307"/>
<stop offset="1" stop-color="#FFC201"/>
</linearGradient>
<linearGradient id="paint2_linear_342_71" x1="26" y1="47" x2="73" y2="79" gradientUnits="userSpaceOnUse">
<stop stop-color="#4285F4"/>
<stop offset="1" stop-color="#04EDF6"/>
</linearGradient>
<linearGradient id="paint3_linear_342_71" x1="43.0002" y1="41" x2="72.0002" y2="79" gradientUnits="userSpaceOnUse">
<stop stop-color="#46C464"/>
<stop offset="1" stop-color="#49F46B"/>
</linearGradient>
</defs>
</svg>
