<svg width="1212" height="295" viewBox="0 0 1212 295" fill="none" xmlns="http://www.w3.org/2000/svg">
<g clip-path="url(#clip0_334_156)">
<path d="M340.892 103.43H324.768C324.473 101.344 323.872 99.491 322.964 97.8711C322.056 96.2268 320.89 94.8278 319.467 93.6743C318.043 92.5208 316.399 91.6373 314.534 91.0237C312.693 90.4102 310.693 90.1034 308.533 90.1034C304.631 90.1034 301.231 91.0728 298.335 93.0117C295.439 94.926 293.194 97.7239 291.598 101.405C290.003 105.062 289.205 109.504 289.205 114.732C289.205 120.107 290.003 124.623 291.598 128.28C293.218 131.936 295.476 134.698 298.372 136.563C301.268 138.428 304.618 139.361 308.422 139.361C310.558 139.361 312.533 139.078 314.349 138.514C316.19 137.949 317.822 137.127 319.246 136.047C320.669 134.943 321.847 133.605 322.78 132.035C323.737 130.464 324.4 128.672 324.768 126.66L340.892 126.733C340.475 130.194 339.432 133.532 337.763 136.747C336.119 139.937 333.898 142.797 331.1 145.325C328.327 147.828 325.013 149.816 321.16 151.288C317.331 152.736 313 153.46 308.165 153.46C301.44 153.46 295.427 151.939 290.126 148.896C284.849 145.852 280.677 141.447 277.609 135.679C274.566 129.912 273.044 122.929 273.044 114.732C273.044 106.51 274.59 99.5155 277.683 93.748C280.775 87.9804 284.972 83.5873 290.273 80.5685C295.574 77.5252 301.538 76.0036 308.165 76.0036C312.533 76.0036 316.583 76.6171 320.313 77.8443C324.068 79.0714 327.394 80.863 330.29 83.2191C333.186 85.5507 335.542 88.4099 337.358 91.7968C339.199 95.1837 340.377 99.0615 340.892 103.43ZM377.578 153.534C371.859 153.534 366.914 152.319 362.742 149.89C358.594 147.435 355.391 144.024 353.133 139.655C350.875 135.262 349.746 130.169 349.746 124.377C349.746 118.536 350.875 113.431 353.133 109.063C355.391 104.669 358.594 101.258 362.742 98.8283C366.914 96.374 371.859 95.1469 377.578 95.1469C383.296 95.1469 388.229 96.374 392.377 98.8283C396.549 101.258 399.764 104.669 402.022 109.063C404.28 113.431 405.409 118.536 405.409 124.377C405.409 130.169 404.28 135.262 402.022 139.655C399.764 144.024 396.549 147.435 392.377 149.89C388.229 152.319 383.296 153.534 377.578 153.534ZM377.651 141.385C380.253 141.385 382.425 140.649 384.167 139.177C385.91 137.679 387.223 135.642 388.107 133.065C389.015 130.488 389.469 127.556 389.469 124.267C389.469 120.978 389.015 118.045 388.107 115.468C387.223 112.891 385.91 110.854 384.167 109.357C382.425 107.86 380.253 107.111 377.651 107.111C375.025 107.111 372.816 107.86 371.025 109.357C369.258 110.854 367.92 112.891 367.012 115.468C366.129 118.045 365.687 120.978 365.687 124.267C365.687 127.556 366.129 130.488 367.012 133.065C367.92 135.642 369.258 137.679 371.025 139.177C372.816 140.649 375.025 141.385 377.651 141.385ZM431.29 119.739V152.43H415.607V95.8832H430.553V105.86H431.216C432.468 102.571 434.566 99.9696 437.511 98.0552C440.456 96.1163 444.027 95.1469 448.224 95.1469C452.151 95.1469 455.575 96.0059 458.495 97.7239C461.416 99.4419 463.686 101.896 465.306 105.087C466.926 108.253 467.736 112.032 467.736 116.425V152.43H452.053V119.223C452.077 115.763 451.194 113.063 449.402 111.124C447.61 109.161 445.144 108.179 442.002 108.179C439.892 108.179 438.027 108.633 436.407 109.541C434.811 110.449 433.56 111.775 432.652 113.517C431.768 115.235 431.314 117.309 431.29 119.739ZM510.173 95.8832V107.664H476.12V95.8832H510.173ZM483.851 82.3356H499.534V135.053C499.534 136.501 499.755 137.63 500.196 138.44C500.638 139.226 501.252 139.778 502.037 140.097C502.847 140.416 503.78 140.576 504.835 140.576C505.571 140.576 506.308 140.514 507.044 140.391C507.78 140.244 508.345 140.134 508.737 140.06L511.204 151.73C510.418 151.976 509.314 152.258 507.891 152.577C506.467 152.921 504.737 153.129 502.7 153.203C498.92 153.35 495.607 152.847 492.76 151.693C489.938 150.54 487.741 148.748 486.17 146.319C484.599 143.889 483.826 140.821 483.851 137.115V82.3356ZM520.389 152.43V95.8832H535.593V105.749H536.182C537.213 102.24 538.943 99.5891 541.373 97.7975C543.803 95.9814 546.601 95.0733 549.767 95.0733C550.552 95.0733 551.399 95.1224 552.307 95.2205C553.215 95.3187 554.013 95.4537 554.7 95.6255V109.541C553.963 109.32 552.945 109.124 551.644 108.952C550.343 108.78 549.153 108.695 548.073 108.695C545.766 108.695 543.705 109.198 541.888 110.204C540.097 111.186 538.673 112.56 537.618 114.327C536.587 116.094 536.072 118.131 536.072 120.438V152.43H520.389ZM585.725 153.534C580.006 153.534 575.061 152.319 570.889 149.89C566.741 147.435 563.538 144.024 561.28 139.655C559.022 135.262 557.893 130.169 557.893 124.377C557.893 118.536 559.022 113.431 561.28 109.063C563.538 104.669 566.741 101.258 570.889 98.8283C575.061 96.374 580.006 95.1469 585.725 95.1469C591.443 95.1469 596.376 96.374 600.524 98.8283C604.696 101.258 607.911 104.669 610.169 109.063C612.427 113.431 613.556 118.536 613.556 124.377C613.556 130.169 612.427 135.262 610.169 139.655C607.911 144.024 604.696 147.435 600.524 149.89C596.376 152.319 591.443 153.534 585.725 153.534ZM585.798 141.385C588.4 141.385 590.572 140.649 592.315 139.177C594.057 137.679 595.37 135.642 596.254 133.065C597.162 130.488 597.616 127.556 597.616 124.267C597.616 120.978 597.162 118.045 596.254 115.468C595.37 112.891 594.057 110.854 592.315 109.357C590.572 107.86 588.4 107.111 585.798 107.111C583.172 107.111 580.964 107.86 579.172 109.357C577.405 110.854 576.067 112.891 575.159 115.468C574.276 118.045 573.834 120.978 573.834 124.267C573.834 127.556 574.276 130.488 575.159 133.065C576.067 135.642 577.405 137.679 579.172 139.177C580.964 140.649 583.172 141.385 585.798 141.385ZM639.437 77.0343V152.43H623.754V77.0343H639.437ZM677.769 153.534C671.953 153.534 666.946 152.356 662.749 150C658.577 147.619 655.362 144.257 653.104 139.913C650.846 135.544 649.717 130.378 649.717 124.414C649.717 118.598 650.846 113.493 653.104 109.099C655.362 104.706 658.54 101.283 662.639 98.8283C666.762 96.374 671.597 95.1469 677.144 95.1469C680.874 95.1469 684.347 95.7482 687.562 96.9508C690.802 98.1288 693.624 99.9082 696.029 102.289C698.459 104.669 700.349 107.664 701.699 111.271C703.048 114.855 703.723 119.052 703.723 123.862V128.169H655.975V118.45H688.961C688.961 116.192 688.47 114.192 687.488 112.45C686.507 110.707 685.144 109.345 683.402 108.363C681.684 107.357 679.684 106.854 677.401 106.854C675.021 106.854 672.91 107.406 671.069 108.51C669.253 109.59 667.83 111.051 666.799 112.891C665.768 114.707 665.24 116.732 665.216 118.966V128.206C665.216 131.004 665.731 133.421 666.762 135.458C667.817 137.495 669.302 139.066 671.216 140.171C673.131 141.275 675.401 141.827 678.027 141.827C679.77 141.827 681.365 141.582 682.813 141.091C684.261 140.6 685.5 139.864 686.531 138.882C687.562 137.9 688.347 136.698 688.887 135.274L703.392 136.231C702.656 139.717 701.146 142.76 698.864 145.361C696.606 147.938 693.685 149.951 690.102 151.399C686.543 152.822 682.432 153.534 677.769 153.534ZM738.246 152.43V77.0343H788.166V90.177H754.186V108.142H784.852V121.285H754.186V152.43H738.246ZM798.593 152.43V95.8832H814.276V152.43H798.593ZM806.472 88.594C804.14 88.594 802.14 87.8209 800.471 86.2747C798.826 84.704 798.004 82.8264 798.004 80.6421C798.004 78.4824 798.826 76.6294 800.471 75.0832C802.14 73.5125 804.14 72.7271 806.472 72.7271C808.803 72.7271 810.791 73.5125 812.435 75.0832C814.104 76.6294 814.939 78.4824 814.939 80.6421C814.939 82.8264 814.104 84.704 812.435 86.2747C810.791 87.8209 808.803 88.594 806.472 88.594ZM842.522 119.739V152.43H826.839V95.8832H841.786V105.86H842.448C843.7 102.571 845.798 99.9696 848.743 98.0552C851.689 96.1163 855.259 95.1469 859.456 95.1469C863.383 95.1469 866.807 96.0059 869.727 97.7239C872.648 99.4419 874.918 101.896 876.538 105.087C878.158 108.253 878.968 112.032 878.968 116.425V152.43H863.285V119.223C863.309 115.763 862.426 113.063 860.634 111.124C858.843 109.161 856.376 108.179 853.235 108.179C851.124 108.179 849.259 108.633 847.639 109.541C846.044 110.449 844.792 111.775 843.884 113.517C843 115.235 842.546 117.309 842.522 119.739ZM907.453 153.497C903.845 153.497 900.63 152.871 897.807 151.62C894.985 150.344 892.752 148.466 891.107 145.987C889.487 143.484 888.677 140.367 888.677 136.636C888.677 133.495 889.254 130.857 890.408 128.721C891.561 126.586 893.132 124.868 895.12 123.567C897.108 122.267 899.366 121.285 901.894 120.622C904.446 119.96 907.121 119.493 909.919 119.223C913.208 118.88 915.859 118.561 917.871 118.266C919.884 117.947 921.344 117.481 922.252 116.867C923.16 116.254 923.614 115.346 923.614 114.143V113.922C923.614 111.591 922.878 109.787 921.405 108.51C919.957 107.234 917.896 106.596 915.22 106.596C912.398 106.596 910.152 107.222 908.483 108.474C906.815 109.701 905.71 111.247 905.17 113.112L890.665 111.934C891.402 108.498 892.85 105.528 895.01 103.025C897.169 100.497 899.955 98.5583 903.366 97.2085C906.802 95.8341 910.778 95.1469 915.294 95.1469C918.436 95.1469 921.442 95.515 924.314 96.2513C927.21 96.9876 929.774 98.1288 932.008 99.675C934.266 101.221 936.045 103.209 937.346 105.639C938.647 108.044 939.297 110.928 939.297 114.29V152.43H924.424V144.588H923.982C923.074 146.355 921.859 147.914 920.338 149.264C918.816 150.589 916.988 151.632 914.852 152.393C912.717 153.129 910.251 153.497 907.453 153.497ZM911.944 142.674C914.251 142.674 916.288 142.22 918.055 141.312C919.822 140.379 921.209 139.128 922.215 137.557C923.221 135.986 923.725 134.207 923.725 132.219V126.218C923.234 126.537 922.559 126.832 921.7 127.102C920.865 127.347 919.92 127.58 918.865 127.801C917.81 127.997 916.754 128.181 915.699 128.353C914.644 128.501 913.687 128.635 912.828 128.758C910.987 129.028 909.379 129.458 908.005 130.047C906.631 130.636 905.563 131.433 904.802 132.44C904.041 133.421 903.661 134.648 903.661 136.121C903.661 138.256 904.434 139.888 905.98 141.017C907.551 142.122 909.539 142.674 911.944 142.674ZM967.147 119.739V152.43H951.464V95.8832H966.411V105.86H967.073C968.325 102.571 970.423 99.9696 973.368 98.0552C976.314 96.1163 979.884 95.1469 984.081 95.1469C988.008 95.1469 991.432 96.0059 994.352 97.7239C997.273 99.4419 999.543 101.896 1001.16 105.087C1002.78 108.253 1003.59 112.032 1003.59 116.425V152.43H987.91V119.223C987.934 115.763 987.051 113.063 985.259 111.124C983.468 109.161 981.001 108.179 977.86 108.179C975.749 108.179 973.884 108.633 972.264 109.541C970.669 110.449 969.417 111.775 968.509 113.517C967.625 115.235 967.171 117.309 967.147 119.739ZM1041.72 153.534C1035.91 153.534 1030.9 152.356 1026.7 150C1022.53 147.619 1019.32 144.257 1017.06 139.913C1014.8 135.544 1013.67 130.378 1013.67 124.414C1013.67 118.598 1014.8 113.493 1017.06 109.099C1019.32 104.706 1022.49 101.283 1026.59 98.8283C1030.72 96.374 1035.55 95.1469 1041.1 95.1469C1044.83 95.1469 1048.3 95.7482 1051.52 96.9508C1054.76 98.1288 1057.58 99.9082 1059.98 102.289C1062.41 104.669 1064.3 107.664 1065.65 111.271C1067 114.855 1067.68 119.052 1067.68 123.862V128.169H1019.93V118.45H1052.91C1052.91 116.192 1052.42 114.192 1051.44 112.45C1050.46 110.707 1049.1 109.345 1047.36 108.363C1045.64 107.357 1043.64 106.854 1041.35 106.854C1038.97 106.854 1036.86 107.406 1035.02 108.51C1033.21 109.59 1031.78 111.051 1030.75 112.891C1029.72 114.707 1029.19 116.732 1029.17 118.966V128.206C1029.17 131.004 1029.68 133.421 1030.72 135.458C1031.77 137.495 1033.26 139.066 1035.17 140.171C1037.08 141.275 1039.35 141.827 1041.98 141.827C1043.72 141.827 1045.32 141.582 1046.77 141.091C1048.21 140.6 1049.45 139.864 1050.48 138.882C1051.52 137.9 1052.3 136.698 1052.84 135.274L1067.35 136.231C1066.61 139.717 1065.1 142.76 1062.82 145.361C1060.56 147.938 1057.64 149.951 1054.06 151.399C1050.5 152.822 1046.39 153.534 1041.72 153.534ZM1077.91 152.43V95.8832H1093.59V152.43H1077.91ZM1085.79 88.594C1083.46 88.594 1081.46 87.8209 1079.79 86.2747C1078.14 84.704 1077.32 82.8264 1077.32 80.6421C1077.32 78.4824 1078.14 76.6294 1079.79 75.0832C1081.46 73.5125 1083.46 72.7271 1085.79 72.7271C1088.12 72.7271 1090.11 73.5125 1091.75 75.0832C1093.42 76.6294 1094.26 78.4824 1094.26 80.6421C1094.26 82.8264 1093.42 84.704 1091.75 86.2747C1090.11 87.8209 1088.12 88.594 1085.79 88.594ZM1106.16 152.43V95.8832H1121.36V105.749H1121.95C1122.98 102.24 1124.71 99.5891 1127.14 97.7975C1129.57 95.9814 1132.37 95.0733 1135.53 95.0733C1136.32 95.0733 1137.17 95.1224 1138.07 95.2205C1138.98 95.3187 1139.78 95.4537 1140.47 95.6255V109.541C1139.73 109.32 1138.71 109.124 1137.41 108.952C1136.11 108.78 1134.92 108.695 1133.84 108.695C1131.53 108.695 1129.47 109.198 1127.66 110.204C1125.86 111.186 1124.44 112.56 1123.39 114.327C1122.36 116.094 1121.84 118.131 1121.84 120.438V152.43H1106.16ZM1171.49 153.534C1165.77 153.534 1160.83 152.319 1156.66 149.89C1152.51 147.435 1149.31 144.024 1147.05 139.655C1144.79 135.262 1143.66 130.169 1143.66 124.377C1143.66 118.536 1144.79 113.431 1147.05 109.063C1149.31 104.669 1152.51 101.258 1156.66 98.8283C1160.83 96.374 1165.77 95.1469 1171.49 95.1469C1177.21 95.1469 1182.14 96.374 1186.29 98.8283C1190.46 101.258 1193.68 104.669 1195.94 109.063C1198.2 113.431 1199.32 118.536 1199.32 124.377C1199.32 130.169 1198.2 135.262 1195.94 139.655C1193.68 144.024 1190.46 147.435 1186.29 149.89C1182.14 152.319 1177.21 153.534 1171.49 153.534ZM1171.57 141.385C1174.17 141.385 1176.34 140.649 1178.08 139.177C1179.83 137.679 1181.14 135.642 1182.02 133.065C1182.93 130.488 1183.38 127.556 1183.38 124.267C1183.38 120.978 1182.93 118.045 1182.02 115.468C1181.14 112.891 1179.83 110.854 1178.08 109.357C1176.34 107.86 1174.17 107.111 1171.57 107.111C1168.94 107.111 1166.73 107.86 1164.94 109.357C1163.17 110.854 1161.84 112.891 1160.93 115.468C1160.04 118.045 1159.6 120.978 1159.6 124.267C1159.6 127.556 1160.04 130.488 1160.93 133.065C1161.84 135.642 1163.17 137.679 1164.94 139.177C1166.73 140.649 1168.94 141.385 1171.57 141.385Z" fill="white"/>
<path d="M305.33 203.231C304.926 201.994 304.393 200.886 303.732 199.906C303.083 198.914 302.305 198.069 301.399 197.371C300.504 196.673 299.488 196.14 298.349 195.773C297.21 195.405 295.961 195.221 294.601 195.221C292.372 195.221 290.345 195.797 288.52 196.948C286.695 198.1 285.244 199.796 284.166 202.037C283.088 204.279 282.549 207.028 282.549 210.286C282.549 213.544 283.094 216.294 284.184 218.535C285.274 220.776 286.75 222.473 288.612 223.624C290.474 224.775 292.568 225.351 294.895 225.351C297.051 225.351 298.949 224.892 300.59 223.973C302.244 223.042 303.53 221.732 304.448 220.041C305.379 218.339 305.845 216.336 305.845 214.034L307.241 214.328H295.924V210.286H310.254V214.328C310.254 217.427 309.592 220.121 308.27 222.411C306.959 224.702 305.146 226.478 302.832 227.739C300.529 228.988 297.883 229.613 294.895 229.613C291.564 229.613 288.636 228.829 286.113 227.261C283.603 225.694 281.643 223.465 280.235 220.574C278.838 217.684 278.14 214.254 278.14 210.286C278.14 207.31 278.538 204.634 279.334 202.258C280.143 199.869 281.282 197.836 282.751 196.158C284.221 194.48 285.96 193.194 287.969 192.3C289.978 191.406 292.188 190.959 294.601 190.959C296.585 190.959 298.435 191.259 300.149 191.859C301.876 192.447 303.413 193.286 304.761 194.376C306.12 195.454 307.253 196.746 308.159 198.253C309.066 199.747 309.69 201.407 310.033 203.231H305.33ZM329.3 229.687C326.581 229.687 324.236 229.086 322.264 227.886C320.304 226.674 318.792 224.983 317.726 222.816C316.673 220.635 316.146 218.1 316.146 215.21C316.146 212.319 316.673 209.772 317.726 207.567C318.792 205.35 320.274 203.623 322.172 202.386C324.083 201.137 326.312 200.512 328.86 200.512C330.329 200.512 331.781 200.757 333.214 201.247C334.647 201.737 335.951 202.533 337.127 203.636C338.303 204.726 339.239 206.171 339.938 207.971C340.636 209.772 340.985 211.989 340.985 214.622V216.459H319.233V212.711H336.576C336.576 211.119 336.257 209.698 335.62 208.449C334.996 207.2 334.102 206.214 332.938 205.491C331.787 204.769 330.427 204.407 328.86 204.407C327.133 204.407 325.638 204.836 324.377 205.693C323.128 206.538 322.166 207.641 321.493 209C320.819 210.36 320.482 211.817 320.482 213.373V215.871C320.482 218.002 320.85 219.809 321.584 221.291C322.331 222.76 323.366 223.881 324.689 224.653C326.012 225.412 327.549 225.792 329.3 225.792C330.439 225.792 331.468 225.633 332.387 225.314C333.318 224.983 334.12 224.493 334.794 223.844C335.467 223.183 335.988 222.362 336.355 221.383L340.544 222.558C340.103 223.979 339.362 225.228 338.321 226.306C337.28 227.372 335.994 228.205 334.463 228.805C332.932 229.393 331.211 229.687 329.3 229.687ZM347.58 229.099V200.88H351.769V205.142H352.063C352.577 203.746 353.508 202.613 354.855 201.743C356.203 200.874 357.721 200.439 359.411 200.439C359.73 200.439 360.128 200.445 360.606 200.457C361.083 200.47 361.445 200.488 361.69 200.512V204.922C361.543 204.885 361.206 204.83 360.679 204.756C360.165 204.671 359.62 204.628 359.044 204.628C357.672 204.628 356.448 204.915 355.37 205.491C354.304 206.055 353.459 206.838 352.834 207.843C352.222 208.835 351.916 209.968 351.916 211.241V229.099H347.58ZM377.801 229.687C375.082 229.687 372.737 229.086 370.765 227.886C368.805 226.674 367.293 224.983 366.227 222.816C365.174 220.635 364.647 218.1 364.647 215.21C364.647 212.319 365.174 209.772 366.227 207.567C367.293 205.35 368.775 203.623 370.673 202.386C372.584 201.137 374.813 200.512 377.361 200.512C378.83 200.512 380.282 200.757 381.715 201.247C383.148 201.737 384.452 202.533 385.628 203.636C386.804 204.726 387.74 206.171 388.439 207.971C389.137 209.772 389.486 211.989 389.486 214.622V216.459H367.734V212.711H385.077C385.077 211.119 384.758 209.698 384.121 208.449C383.497 207.2 382.603 206.214 381.439 205.491C380.288 204.769 378.928 204.407 377.361 204.407C375.634 204.407 374.139 204.836 372.878 205.693C371.629 206.538 370.667 207.641 369.994 209C369.32 210.36 368.983 211.817 368.983 213.373V215.871C368.983 218.002 369.351 219.809 370.085 221.291C370.832 222.76 371.867 223.881 373.19 224.653C374.513 225.412 376.05 225.792 377.801 225.792C378.94 225.792 379.969 225.633 380.888 225.314C381.819 224.983 382.621 224.493 383.295 223.844C383.968 223.183 384.489 222.362 384.856 221.383L389.045 222.558C388.604 223.979 387.863 225.228 386.822 226.306C385.781 227.372 384.495 228.205 382.964 228.805C381.433 229.393 379.712 229.687 377.801 229.687ZM400.417 212.123V229.099H396.081V200.88H400.27V205.289H400.637C401.299 203.856 402.303 202.705 403.65 201.835C404.998 200.953 406.737 200.512 408.868 200.512C410.778 200.512 412.45 200.904 413.883 201.688C415.316 202.46 416.431 203.636 417.227 205.216C418.023 206.783 418.421 208.767 418.421 211.168V229.099H414.085V211.462C414.085 209.245 413.51 207.518 412.358 206.281C411.207 205.032 409.627 204.407 407.619 204.407C406.235 204.407 404.998 204.707 403.907 205.307C402.83 205.908 401.978 206.783 401.354 207.935C400.729 209.086 400.417 210.482 400.417 212.123ZM437.808 229.687C435.162 229.687 432.884 229.062 430.973 227.813C429.063 226.563 427.593 224.843 426.564 222.65C425.535 220.458 425.021 217.953 425.021 215.136C425.021 212.27 425.548 209.741 426.601 207.549C427.667 205.344 429.149 203.623 431.047 202.386C432.958 201.137 435.187 200.512 437.734 200.512C439.718 200.512 441.507 200.88 443.099 201.615C444.691 202.35 445.995 203.378 447.012 204.701C448.028 206.024 448.659 207.567 448.904 209.331H444.568C444.238 208.045 443.503 206.906 442.364 205.914C441.237 204.909 439.718 204.407 437.808 204.407C436.118 204.407 434.636 204.848 433.362 205.73C432.1 206.6 431.114 207.83 430.404 209.423C429.706 211.003 429.357 212.858 429.357 214.989C429.357 217.169 429.7 219.068 430.386 220.684C431.084 222.301 432.064 223.557 433.325 224.451C434.599 225.345 436.093 225.792 437.808 225.792C438.934 225.792 439.957 225.596 440.876 225.204C441.794 224.812 442.572 224.249 443.209 223.514C443.846 222.779 444.299 221.897 444.568 220.868H448.904C448.659 222.534 448.053 224.034 447.085 225.369C446.13 226.692 444.862 227.745 443.282 228.529C441.715 229.301 439.89 229.687 437.808 229.687ZM455.242 229.099V200.88H459.578V229.099H455.242ZM457.447 196.177C456.602 196.177 455.873 195.889 455.261 195.313C454.661 194.738 454.36 194.046 454.36 193.237C454.36 192.429 454.661 191.737 455.261 191.161C455.873 190.586 456.602 190.298 457.447 190.298C458.292 190.298 459.015 190.586 459.615 191.161C460.227 191.737 460.533 192.429 460.533 193.237C460.533 194.046 460.227 194.738 459.615 195.313C459.015 195.889 458.292 196.177 457.447 196.177ZM479.35 229.687C476.631 229.687 474.286 229.086 472.314 227.886C470.355 226.674 468.842 224.983 467.776 222.816C466.723 220.635 466.196 218.1 466.196 215.21C466.196 212.319 466.723 209.772 467.776 207.567C468.842 205.35 470.324 203.623 472.222 202.386C474.133 201.137 476.362 200.512 478.91 200.512C480.379 200.512 481.831 200.757 483.264 201.247C484.697 201.737 486.001 202.533 487.177 203.636C488.353 204.726 489.289 206.171 489.988 207.971C490.686 209.772 491.035 211.989 491.035 214.622V216.459H469.283V212.711H486.626C486.626 211.119 486.307 209.698 485.67 208.449C485.046 207.2 484.152 206.214 482.988 205.491C481.837 204.769 480.477 204.407 478.91 204.407C477.183 204.407 475.688 204.836 474.427 205.693C473.178 206.538 472.216 207.641 471.543 209C470.869 210.36 470.532 211.817 470.532 213.373V215.871C470.532 218.002 470.9 219.809 471.634 221.291C472.382 222.76 473.416 223.881 474.739 224.653C476.062 225.412 477.599 225.792 479.35 225.792C480.49 225.792 481.518 225.633 482.437 225.314C483.368 224.983 484.17 224.493 484.844 223.844C485.517 223.183 486.038 222.362 486.405 221.383L490.594 222.558C490.153 223.979 489.412 225.228 488.371 226.306C487.33 227.372 486.044 228.205 484.513 228.805C482.982 229.393 481.261 229.687 479.35 229.687ZM532.169 207.2L528.274 208.302C528.029 207.653 527.668 207.022 527.19 206.41C526.725 205.785 526.088 205.271 525.279 204.866C524.471 204.462 523.436 204.26 522.175 204.26C520.448 204.26 519.009 204.658 517.857 205.454C516.718 206.238 516.149 207.236 516.149 208.449C516.149 209.527 516.541 210.378 517.325 211.003C518.108 211.627 519.333 212.148 520.999 212.564L525.188 213.593C527.711 214.205 529.591 215.142 530.828 216.404C532.065 217.653 532.683 219.264 532.683 221.236C532.683 222.852 532.218 224.298 531.287 225.571C530.368 226.845 529.082 227.849 527.429 228.584C525.775 229.319 523.853 229.687 521.66 229.687C518.782 229.687 516.4 229.062 514.514 227.813C512.628 226.563 511.433 224.738 510.931 222.338L515.046 221.309C515.438 222.828 516.179 223.967 517.269 224.726C518.372 225.486 519.811 225.865 521.587 225.865C523.608 225.865 525.212 225.437 526.4 224.579C527.6 223.71 528.201 222.669 528.201 221.456C528.201 220.476 527.858 219.656 527.172 218.994C526.486 218.321 525.433 217.818 524.012 217.488L519.309 216.385C516.724 215.773 514.826 214.824 513.613 213.538C512.413 212.24 511.813 210.617 511.813 208.669C511.813 207.077 512.26 205.669 513.154 204.444C514.061 203.219 515.291 202.258 516.847 201.56C518.415 200.861 520.191 200.512 522.175 200.512C524.967 200.512 527.159 201.125 528.752 202.35C530.356 203.574 531.495 205.191 532.169 207.2ZM556.993 217.561V200.88H561.329V229.099H556.993V224.322H556.699C556.038 225.755 555.009 226.974 553.613 227.978C552.217 228.97 550.453 229.466 548.322 229.466C546.558 229.466 544.991 229.08 543.619 228.309C542.247 227.525 541.169 226.349 540.386 224.781C539.602 223.201 539.21 221.211 539.21 218.811V200.88H543.545V218.517C543.545 220.574 544.121 222.215 545.272 223.44C546.436 224.665 547.918 225.277 549.718 225.277C550.796 225.277 551.892 225.002 553.007 224.451C554.134 223.899 555.077 223.054 555.836 221.915C556.608 220.776 556.993 219.325 556.993 217.561ZM577.574 229.76C575.786 229.76 574.163 229.423 572.706 228.75C571.248 228.064 570.091 227.078 569.233 225.792C568.376 224.493 567.947 222.926 567.947 221.089C567.947 219.472 568.266 218.161 568.903 217.157C569.54 216.141 570.391 215.344 571.456 214.769C572.522 214.193 573.698 213.764 574.984 213.483C576.282 213.189 577.586 212.956 578.897 212.785C580.612 212.564 582.002 212.399 583.067 212.289C584.145 212.166 584.929 211.964 585.419 211.682C585.921 211.401 586.172 210.911 586.172 210.213V210.066C586.172 208.253 585.676 206.845 584.684 205.84C583.704 204.836 582.216 204.334 580.22 204.334C578.15 204.334 576.527 204.787 575.351 205.693C574.175 206.6 573.349 207.567 572.871 208.596L568.756 207.126C569.491 205.412 570.471 204.077 571.695 203.121C572.932 202.154 574.28 201.48 575.737 201.1C577.207 200.708 578.652 200.512 580.073 200.512C580.979 200.512 582.02 200.623 583.196 200.843C584.384 201.051 585.529 201.486 586.631 202.147C587.746 202.809 588.671 203.807 589.406 205.142C590.14 206.477 590.508 208.265 590.508 210.507V229.099H586.172V225.277H585.952C585.658 225.89 585.168 226.545 584.482 227.243C583.796 227.941 582.884 228.535 581.745 229.025C580.606 229.515 579.215 229.76 577.574 229.76ZM578.236 225.865C579.95 225.865 581.395 225.528 582.571 224.855C583.759 224.181 584.653 223.312 585.254 222.246C585.866 221.18 586.172 220.06 586.172 218.884V214.916C585.988 215.136 585.584 215.338 584.96 215.522C584.347 215.693 583.637 215.847 582.828 215.981C582.032 216.104 581.255 216.214 580.495 216.312C579.748 216.398 579.142 216.471 578.676 216.532C577.55 216.679 576.496 216.918 575.517 217.249C574.549 217.567 573.765 218.051 573.165 218.7C572.577 219.337 572.283 220.207 572.283 221.309C572.283 222.816 572.84 223.955 573.955 224.726C575.082 225.486 576.509 225.865 578.236 225.865ZM618.41 207.2L614.515 208.302C614.27 207.653 613.909 207.022 613.431 206.41C612.966 205.785 612.329 205.271 611.52 204.866C610.712 204.462 609.677 204.26 608.416 204.26C606.689 204.26 605.249 204.658 604.098 205.454C602.959 206.238 602.39 207.236 602.39 208.449C602.39 209.527 602.782 210.378 603.565 211.003C604.349 211.627 605.574 212.148 607.24 212.564L611.428 213.593C613.951 214.205 615.832 215.142 617.069 216.404C618.306 217.653 618.924 219.264 618.924 221.236C618.924 222.852 618.459 224.298 617.528 225.571C616.609 226.845 615.323 227.849 613.67 228.584C612.016 229.319 610.093 229.687 607.901 229.687C605.023 229.687 602.641 229.062 600.755 227.813C598.868 226.563 597.674 224.738 597.172 222.338L601.287 221.309C601.679 222.828 602.42 223.967 603.51 224.726C604.613 225.486 606.052 225.865 607.828 225.865C609.848 225.865 611.453 225.437 612.641 224.579C613.841 223.71 614.441 222.669 614.441 221.456C614.441 220.476 614.098 219.656 613.413 218.994C612.727 218.321 611.673 217.818 610.253 217.488L605.55 216.385C602.965 215.773 601.067 214.824 599.854 213.538C598.654 212.24 598.054 210.617 598.054 208.669C598.054 207.077 598.501 205.669 599.395 204.444C600.301 203.219 601.532 202.258 603.088 201.56C604.655 200.861 606.431 200.512 608.416 200.512C611.208 200.512 613.4 201.125 614.993 202.35C616.597 203.574 617.736 205.191 618.41 207.2ZM652.567 200.88V204.554H637.355V200.88H652.567ZM641.912 229.099V196.985C641.912 195.368 642.291 194.021 643.051 192.943C643.81 191.866 644.796 191.057 646.008 190.518C647.221 189.979 648.501 189.71 649.848 189.71C650.914 189.71 651.783 189.796 652.457 189.967C653.13 190.139 653.633 190.298 653.963 190.445L652.714 194.193C652.494 194.119 652.187 194.027 651.795 193.917C651.416 193.807 650.914 193.752 650.289 193.752C648.856 193.752 647.821 194.113 647.184 194.836C646.56 195.558 646.247 196.618 646.247 198.014V229.099H641.912ZM658.643 229.099V200.88H662.979V229.099H658.643ZM660.848 196.177C660.003 196.177 659.274 195.889 658.662 195.313C658.062 194.738 657.762 194.046 657.762 193.237C657.762 192.429 658.062 191.737 658.662 191.161C659.274 190.586 660.003 190.298 660.848 190.298C661.693 190.298 662.416 190.586 663.016 191.161C663.628 191.737 663.934 192.429 663.934 193.237C663.934 194.046 663.628 194.738 663.016 195.313C662.416 195.889 661.693 196.177 660.848 196.177ZM675.256 212.123V229.099H670.92V200.88H675.109V205.289H675.476C676.138 203.856 677.142 202.705 678.489 201.835C679.837 200.953 681.576 200.512 683.707 200.512C685.618 200.512 687.289 200.904 688.722 201.688C690.155 202.46 691.27 203.636 692.066 205.216C692.862 206.783 693.26 208.767 693.26 211.168V229.099H688.924V211.462C688.924 209.245 688.349 207.518 687.198 206.281C686.046 205.032 684.466 204.407 682.458 204.407C681.074 204.407 679.837 204.707 678.747 205.307C677.669 205.908 676.818 206.783 676.193 207.935C675.568 209.086 675.256 210.482 675.256 212.123ZM709.487 229.76C707.699 229.76 706.076 229.423 704.618 228.75C703.161 228.064 702.003 227.078 701.146 225.792C700.289 224.493 699.86 222.926 699.86 221.089C699.86 219.472 700.179 218.161 700.815 217.157C701.452 216.141 702.304 215.344 703.369 214.769C704.435 214.193 705.61 213.764 706.896 213.483C708.195 213.189 709.499 212.956 710.81 212.785C712.524 212.564 713.914 212.399 714.98 212.289C716.058 212.166 716.842 211.964 717.332 211.682C717.834 211.401 718.085 210.911 718.085 210.213V210.066C718.085 208.253 717.589 206.845 716.597 205.84C715.617 204.836 714.129 204.334 712.132 204.334C710.063 204.334 708.44 204.787 707.264 205.693C706.088 206.6 705.261 207.567 704.784 208.596L700.668 207.126C701.403 205.412 702.383 204.077 703.608 203.121C704.845 202.154 706.192 201.48 707.65 201.1C709.119 200.708 710.565 200.512 711.985 200.512C712.892 200.512 713.933 200.623 715.109 200.843C716.297 201.051 717.442 201.486 718.544 202.147C719.659 202.809 720.583 203.807 721.318 205.142C722.053 206.477 722.42 208.265 722.42 210.507V229.099H718.085V225.277H717.864C717.57 225.89 717.08 226.545 716.395 227.243C715.709 227.941 714.796 228.535 713.657 229.025C712.518 229.515 711.128 229.76 709.487 229.76ZM710.148 225.865C711.863 225.865 713.308 225.528 714.484 224.855C715.672 224.181 716.566 223.312 717.166 222.246C717.779 221.18 718.085 220.06 718.085 218.884V214.916C717.901 215.136 717.497 215.338 716.872 215.522C716.26 215.693 715.549 215.847 714.741 215.981C713.945 216.104 713.167 216.214 712.408 216.312C711.661 216.398 711.055 216.471 710.589 216.532C709.462 216.679 708.409 216.918 707.429 217.249C706.462 217.567 705.678 218.051 705.078 218.7C704.49 219.337 704.196 220.207 704.196 221.309C704.196 222.816 704.753 223.955 705.868 224.726C706.994 225.486 708.421 225.865 710.148 225.865ZM734.67 212.123V229.099H730.334V200.88H734.523V205.289H734.89C735.552 203.856 736.556 202.705 737.903 201.835C739.25 200.953 740.99 200.512 743.121 200.512C745.031 200.512 746.703 200.904 748.136 201.688C749.569 202.46 750.684 203.636 751.48 205.216C752.276 206.783 752.674 208.767 752.674 211.168V229.099H748.338V211.462C748.338 209.245 747.763 207.518 746.611 206.281C745.46 205.032 743.88 204.407 741.871 204.407C740.487 204.407 739.25 204.707 738.16 205.307C737.083 205.908 736.231 206.783 735.607 207.935C734.982 209.086 734.67 210.482 734.67 212.123ZM772.061 229.687C769.415 229.687 767.137 229.062 765.226 227.813C763.316 226.563 761.846 224.843 760.817 222.65C759.788 220.458 759.274 217.953 759.274 215.136C759.274 212.27 759.801 209.741 760.854 207.549C761.919 205.344 763.401 203.623 765.3 202.386C767.21 201.137 769.44 200.512 771.987 200.512C773.971 200.512 775.759 200.88 777.352 201.615C778.944 202.35 780.248 203.378 781.265 204.701C782.281 206.024 782.912 207.567 783.157 209.331H778.821C778.491 208.045 777.756 206.906 776.617 205.914C775.49 204.909 773.971 204.407 772.061 204.407C770.37 204.407 768.888 204.848 767.615 205.73C766.353 206.6 765.367 207.83 764.657 209.423C763.959 211.003 763.61 212.858 763.61 214.989C763.61 217.169 763.953 219.068 764.638 220.684C765.337 222.301 766.316 223.557 767.578 224.451C768.852 225.345 770.346 225.792 772.061 225.792C773.187 225.792 774.21 225.596 775.129 225.204C776.047 224.812 776.825 224.249 777.462 223.514C778.099 222.779 778.552 221.897 778.821 220.868H783.157C782.912 222.534 782.306 224.034 781.338 225.369C780.383 226.692 779.115 227.745 777.535 228.529C775.968 229.301 774.143 229.687 772.061 229.687ZM770.003 228.952H773.604L773.31 230.421C774.265 230.568 775.141 230.966 775.937 231.616C776.733 232.277 777.131 233.324 777.131 234.757C777.131 236.337 776.476 237.623 775.165 238.615C773.867 239.619 771.95 240.122 769.415 240.122L769.268 237.256C770.407 237.256 771.35 237.072 772.097 236.704C772.857 236.349 773.236 235.749 773.236 234.904C773.236 234.059 772.924 233.483 772.299 233.177C771.675 232.871 770.664 232.663 769.268 232.552L770.003 228.952ZM797.799 229.76C796.011 229.76 794.388 229.423 792.931 228.75C791.473 228.064 790.316 227.078 789.458 225.792C788.601 224.493 788.172 222.926 788.172 221.089C788.172 219.472 788.491 218.161 789.128 217.157C789.765 216.141 790.616 215.344 791.681 214.769C792.747 214.193 793.923 213.764 795.209 213.483C796.507 213.189 797.811 212.956 799.122 212.785C800.837 212.564 802.227 212.399 803.292 212.289C804.37 212.166 805.154 211.964 805.644 211.682C806.146 211.401 806.397 210.911 806.397 210.213V210.066C806.397 208.253 805.901 206.845 804.909 205.84C803.929 204.836 802.441 204.334 800.445 204.334C798.375 204.334 796.752 204.787 795.576 205.693C794.4 206.6 793.574 207.567 793.096 208.596L788.981 207.126C789.716 205.412 790.695 204.077 791.92 203.121C793.157 202.154 794.504 201.48 795.962 201.1C797.432 200.708 798.877 200.512 800.298 200.512C801.204 200.512 802.245 200.623 803.421 200.843C804.609 201.051 805.754 201.486 806.856 202.147C807.971 202.809 808.896 203.807 809.63 205.142C810.365 206.477 810.733 208.265 810.733 210.507V229.099H806.397V225.277H806.177C805.883 225.89 805.393 226.545 804.707 227.243C804.021 227.941 803.109 228.535 801.969 229.025C800.83 229.515 799.44 229.76 797.799 229.76ZM798.46 225.865C800.175 225.865 801.62 225.528 802.796 224.855C803.984 224.181 804.878 223.312 805.478 222.246C806.091 221.18 806.397 220.06 806.397 218.884V214.916C806.213 215.136 805.809 215.338 805.184 215.522C804.572 215.693 803.862 215.847 803.053 215.981C802.257 216.104 801.48 216.214 800.72 216.312C799.973 216.398 799.367 216.471 798.901 216.532C797.775 216.679 796.721 216.918 795.741 217.249C794.774 217.567 793.99 218.051 793.39 218.7C792.802 219.337 792.508 220.207 792.508 221.309C792.508 222.816 793.065 223.955 794.18 224.726C795.307 225.486 796.734 225.865 798.46 225.865ZM838.635 207.2L834.74 208.302C834.495 207.653 834.134 207.022 833.656 206.41C833.19 205.785 832.554 205.271 831.745 204.866C830.937 204.462 829.902 204.26 828.64 204.26C826.914 204.26 825.474 204.658 824.323 205.454C823.184 206.238 822.615 207.236 822.615 208.449C822.615 209.527 823.006 210.378 823.79 211.003C824.574 211.627 825.799 212.148 827.465 212.564L831.653 213.593C834.176 214.205 836.056 215.142 837.293 216.404C838.53 217.653 839.149 219.264 839.149 221.236C839.149 222.852 838.684 224.298 837.753 225.571C836.834 226.845 835.548 227.849 833.895 228.584C832.241 229.319 830.318 229.687 828.126 229.687C825.248 229.687 822.866 229.062 820.979 227.813C819.093 226.563 817.899 224.738 817.397 222.338L821.512 221.309C821.904 222.828 822.645 223.967 823.735 224.726C824.838 225.486 826.277 225.865 828.053 225.865C830.073 225.865 831.678 225.437 832.866 224.579C834.066 223.71 834.666 222.669 834.666 221.456C834.666 220.476 834.323 219.656 833.638 218.994C832.952 218.321 831.898 217.818 830.478 217.488L825.774 216.385C823.19 215.773 821.292 214.824 820.079 213.538C818.879 212.24 818.279 210.617 818.279 208.669C818.279 207.077 818.726 205.669 819.62 204.444C820.526 203.219 821.757 202.258 823.313 201.56C824.88 200.861 826.656 200.512 828.64 200.512C831.433 200.512 833.625 201.125 835.217 202.35C836.822 203.574 837.961 205.191 838.635 207.2ZM871.69 229.687C869.044 229.687 866.766 229.062 864.855 227.813C862.945 226.563 861.475 224.843 860.446 222.65C859.417 220.458 858.903 217.953 858.903 215.136C858.903 212.27 859.43 209.741 860.483 207.549C861.549 205.344 863.031 203.623 864.929 202.386C866.84 201.137 869.069 200.512 871.616 200.512C873.6 200.512 875.389 200.88 876.981 201.615C878.573 202.35 879.877 203.378 880.894 204.701C881.91 206.024 882.541 207.567 882.786 209.331H878.45C878.12 208.045 877.385 206.906 876.246 205.914C875.119 204.909 873.6 204.407 871.69 204.407C870 204.407 868.518 204.848 867.244 205.73C865.982 206.6 864.996 207.83 864.286 209.423C863.588 211.003 863.239 212.858 863.239 214.989C863.239 217.169 863.582 219.068 864.268 220.684C864.966 222.301 865.946 223.557 867.207 224.451C868.481 225.345 869.975 225.792 871.69 225.792C872.817 225.792 873.839 225.596 874.758 225.204C875.676 224.812 876.454 224.249 877.091 223.514C877.728 222.779 878.181 221.897 878.45 220.868H882.786C882.541 222.534 881.935 224.034 880.967 225.369C880.012 226.692 878.744 227.745 877.164 228.529C875.597 229.301 873.772 229.687 871.69 229.687ZM900.588 229.687C898.041 229.687 895.805 229.08 893.883 227.868C891.972 226.655 890.478 224.959 889.4 222.779C888.334 220.599 887.802 218.051 887.802 215.136C887.802 212.197 888.334 209.631 889.4 207.439C890.478 205.246 891.972 203.544 893.883 202.331C895.805 201.119 898.041 200.512 900.588 200.512C903.136 200.512 905.365 201.119 907.275 202.331C909.198 203.544 910.693 205.246 911.758 207.439C912.836 209.631 913.375 212.197 913.375 215.136C913.375 218.051 912.836 220.599 911.758 222.779C910.693 224.959 909.198 226.655 907.275 227.868C905.365 229.08 903.136 229.687 900.588 229.687ZM900.588 225.792C902.523 225.792 904.116 225.296 905.365 224.304C906.614 223.312 907.539 222.007 908.139 220.39C908.739 218.774 909.039 217.022 909.039 215.136C909.039 213.25 908.739 211.493 908.139 209.864C907.539 208.235 906.614 206.918 905.365 205.914C904.116 204.909 902.523 204.407 900.588 204.407C898.653 204.407 897.061 204.909 895.812 205.914C894.562 206.918 893.638 208.235 893.037 209.864C892.437 211.493 892.137 213.25 892.137 215.136C892.137 217.022 892.437 218.774 893.037 220.39C893.638 222.007 894.562 223.312 895.812 224.304C897.061 225.296 898.653 225.792 900.588 225.792ZM919.993 229.099V200.88H924.182V205.289H924.549C925.137 203.783 926.086 202.613 927.397 201.78C928.707 200.935 930.281 200.512 932.118 200.512C933.98 200.512 935.529 200.935 936.766 201.78C938.016 202.613 938.989 203.783 939.688 205.289H939.982C940.704 203.832 941.788 202.674 943.233 201.817C944.679 200.947 946.412 200.512 948.432 200.512C950.955 200.512 953.019 201.302 954.624 202.882C956.228 204.45 957.03 206.893 957.03 210.213V229.099H952.695V210.213C952.695 208.131 952.125 206.642 950.986 205.748C949.847 204.854 948.506 204.407 946.963 204.407C944.979 204.407 943.442 205.007 942.351 206.208C941.261 207.396 940.716 208.902 940.716 210.727V229.099H936.307V209.772C936.307 208.167 935.787 206.875 934.746 205.895C933.705 204.903 932.363 204.407 930.722 204.407C929.595 204.407 928.542 204.707 927.562 205.307C926.595 205.908 925.811 206.74 925.211 207.806C924.623 208.859 924.329 210.078 924.329 211.462V229.099H919.993ZM992.074 200.88V204.554H976.862V200.88H992.074ZM981.419 229.099V196.985C981.419 195.368 981.798 194.021 982.558 192.943C983.317 191.866 984.303 191.057 985.516 190.518C986.728 189.979 988.008 189.71 989.355 189.71C990.421 189.71 991.29 189.796 991.964 189.967C992.638 190.139 993.14 190.298 993.47 190.445L992.221 194.193C992.001 194.119 991.694 194.027 991.303 193.917C990.923 193.807 990.421 193.752 989.796 193.752C988.363 193.752 987.328 194.113 986.691 194.836C986.067 195.558 985.754 196.618 985.754 198.014V229.099H981.419ZM1005.65 229.76C1003.86 229.76 1002.24 229.423 1000.78 228.75C999.32 228.064 998.163 227.078 997.305 225.792C996.448 224.493 996.019 222.926 996.019 221.089C996.019 219.472 996.338 218.161 996.975 217.157C997.612 216.141 998.463 215.344 999.528 214.769C1000.59 214.193 1001.77 213.764 1003.06 213.483C1004.35 213.189 1005.66 212.956 1006.97 212.785C1008.68 212.564 1010.07 212.399 1011.14 212.289C1012.22 212.166 1013 211.964 1013.49 211.682C1013.99 211.401 1014.24 210.911 1014.24 210.213V210.066C1014.24 208.253 1013.75 206.845 1012.76 205.84C1011.78 204.836 1010.29 204.334 1008.29 204.334C1006.22 204.334 1004.6 204.787 1003.42 205.693C1002.25 206.6 1001.42 207.567 1000.94 208.596L996.828 207.126C997.563 205.412 998.543 204.077 999.767 203.121C1001 202.154 1002.35 201.48 1003.81 201.1C1005.28 200.708 1006.72 200.512 1008.14 200.512C1009.05 200.512 1010.09 200.623 1011.27 200.843C1012.46 201.051 1013.6 201.486 1014.7 202.147C1015.82 202.809 1016.74 203.807 1017.48 205.142C1018.21 206.477 1018.58 208.265 1018.58 210.507V229.099H1014.24V225.277H1014.02C1013.73 225.89 1013.24 226.545 1012.55 227.243C1011.87 227.941 1010.96 228.535 1009.82 229.025C1008.68 229.515 1007.29 229.76 1005.65 229.76ZM1006.31 225.865C1008.02 225.865 1009.47 225.528 1010.64 224.855C1011.83 224.181 1012.73 223.312 1013.33 222.246C1013.94 221.18 1014.24 220.06 1014.24 218.884V214.916C1014.06 215.136 1013.66 215.338 1013.03 215.522C1012.42 215.693 1011.71 215.847 1010.9 215.981C1010.1 216.104 1009.33 216.214 1008.57 216.312C1007.82 216.398 1007.21 216.471 1006.75 216.532C1005.62 216.679 1004.57 216.918 1003.59 217.249C1002.62 217.567 1001.84 218.051 1001.24 218.7C1000.65 219.337 1000.36 220.207 1000.36 221.309C1000.36 222.816 1000.91 223.955 1002.03 224.726C1003.15 225.486 1004.58 225.865 1006.31 225.865ZM1037.96 229.687C1035.31 229.687 1033.03 229.062 1031.12 227.813C1029.21 226.563 1027.74 224.843 1026.71 222.65C1025.69 220.458 1025.17 217.953 1025.17 215.136C1025.17 212.27 1025.7 209.741 1026.75 207.549C1027.82 205.344 1029.3 203.623 1031.2 202.386C1033.11 201.137 1035.34 200.512 1037.88 200.512C1039.87 200.512 1041.66 200.88 1043.25 201.615C1044.84 202.35 1046.14 203.378 1047.16 204.701C1048.18 206.024 1048.81 207.567 1049.05 209.331H1044.72C1044.39 208.045 1043.65 206.906 1042.51 205.914C1041.39 204.909 1039.87 204.407 1037.96 204.407C1036.27 204.407 1034.79 204.848 1033.51 205.73C1032.25 206.6 1031.26 207.83 1030.55 209.423C1029.86 211.003 1029.51 212.858 1029.51 214.989C1029.51 217.169 1029.85 219.068 1030.54 220.684C1031.23 222.301 1032.21 223.557 1033.47 224.451C1034.75 225.345 1036.24 225.792 1037.96 225.792C1039.08 225.792 1040.11 225.596 1041.03 225.204C1041.94 224.812 1042.72 224.249 1043.36 223.514C1044 222.779 1044.45 221.897 1044.72 220.868H1049.05C1048.81 222.534 1048.2 224.034 1047.23 225.369C1046.28 226.692 1045.01 227.745 1043.43 228.529C1041.86 229.301 1040.04 229.687 1037.96 229.687ZM1055.39 229.099V200.88H1059.73V229.099H1055.39ZM1057.6 196.177C1056.75 196.177 1056.02 195.889 1055.41 195.313C1054.81 194.738 1054.51 194.046 1054.51 193.237C1054.51 192.429 1054.81 191.737 1055.41 191.161C1056.02 190.586 1056.75 190.298 1057.6 190.298C1058.44 190.298 1059.16 190.586 1059.76 191.161C1060.38 191.737 1060.68 192.429 1060.68 193.237C1060.68 194.046 1060.38 194.738 1059.76 195.313C1059.16 195.889 1058.44 196.177 1057.6 196.177ZM1072 191.474V229.099H1067.67V191.474H1072ZM1079.95 229.099V200.88H1084.28V229.099H1079.95ZM1082.15 196.177C1081.3 196.177 1080.58 195.889 1079.96 195.313C1079.36 194.738 1079.06 194.046 1079.06 193.237C1079.06 192.429 1079.36 191.737 1079.96 191.161C1080.58 190.586 1081.3 190.298 1082.15 190.298C1083 190.298 1083.72 190.586 1084.32 191.161C1084.93 191.737 1085.24 192.429 1085.24 193.237C1085.24 194.046 1084.93 194.738 1084.32 195.313C1083.72 195.889 1083 196.177 1082.15 196.177ZM1102.88 229.687C1100.53 229.687 1098.45 229.093 1096.65 227.904C1094.85 226.704 1093.44 225.014 1092.42 222.834C1091.41 220.642 1090.9 218.051 1090.9 215.063C1090.9 212.099 1091.41 209.527 1092.42 207.347C1093.44 205.167 1094.86 203.483 1096.67 202.294C1098.48 201.106 1100.58 200.512 1102.95 200.512C1104.79 200.512 1106.24 200.819 1107.31 201.431C1108.38 202.031 1109.2 202.717 1109.77 203.489C1110.34 204.248 1110.79 204.873 1111.11 205.363H1111.48V191.474H1115.81V229.099H1111.62V224.763H1111.11C1110.79 225.277 1110.34 225.926 1109.75 226.71C1109.16 227.482 1108.32 228.174 1107.23 228.786C1106.14 229.386 1104.69 229.687 1102.88 229.687ZM1103.47 225.792C1105.2 225.792 1106.67 225.339 1107.87 224.432C1109.08 223.514 1109.99 222.246 1110.61 220.629C1111.24 219 1111.55 217.12 1111.55 214.989C1111.55 212.883 1111.24 211.039 1110.63 209.459C1110.02 207.867 1109.11 206.63 1107.91 205.748C1106.71 204.854 1105.23 204.407 1103.47 204.407C1101.63 204.407 1100.1 204.879 1098.87 205.822C1097.66 206.753 1096.75 208.02 1096.14 209.625C1095.54 211.217 1095.24 213.005 1095.24 214.989C1095.24 216.998 1095.54 218.823 1096.15 220.464C1096.78 222.093 1097.7 223.391 1098.91 224.359C1100.13 225.314 1101.65 225.792 1103.47 225.792ZM1132.66 229.76C1130.87 229.76 1129.25 229.423 1127.79 228.75C1126.33 228.064 1125.17 227.078 1124.32 225.792C1123.46 224.493 1123.03 222.926 1123.03 221.089C1123.03 219.472 1123.35 218.161 1123.99 217.157C1124.62 216.141 1125.47 215.344 1126.54 214.769C1127.61 214.193 1128.78 213.764 1130.07 213.483C1131.37 213.189 1132.67 212.956 1133.98 212.785C1135.7 212.564 1137.09 212.399 1138.15 212.289C1139.23 212.166 1140.01 211.964 1140.5 211.682C1141.01 211.401 1141.26 210.911 1141.26 210.213V210.066C1141.26 208.253 1140.76 206.845 1139.77 205.84C1138.79 204.836 1137.3 204.334 1135.3 204.334C1133.23 204.334 1131.61 204.787 1130.44 205.693C1129.26 206.6 1128.43 207.567 1127.96 208.596L1123.84 207.126C1124.57 205.412 1125.55 204.077 1126.78 203.121C1128.02 202.154 1129.36 201.48 1130.82 201.1C1132.29 200.708 1133.74 200.512 1135.16 200.512C1136.06 200.512 1137.1 200.623 1138.28 200.843C1139.47 201.051 1140.61 201.486 1141.72 202.147C1142.83 202.809 1143.75 203.807 1144.49 205.142C1145.22 206.477 1145.59 208.265 1145.59 210.507V229.099H1141.26V225.277H1141.04C1140.74 225.89 1140.25 226.545 1139.57 227.243C1138.88 227.941 1137.97 228.535 1136.83 229.025C1135.69 229.515 1134.3 229.76 1132.66 229.76ZM1133.32 225.865C1135.03 225.865 1136.48 225.528 1137.66 224.855C1138.84 224.181 1139.74 223.312 1140.34 222.246C1140.95 221.18 1141.26 220.06 1141.26 218.884V214.916C1141.07 215.136 1140.67 215.338 1140.04 215.522C1139.43 215.693 1138.72 215.847 1137.91 215.981C1137.12 216.104 1136.34 216.214 1135.58 216.312C1134.83 216.398 1134.23 216.471 1133.76 216.532C1132.63 216.679 1131.58 216.918 1130.6 217.249C1129.63 217.567 1128.85 218.051 1128.25 218.7C1127.66 219.337 1127.37 220.207 1127.37 221.309C1127.37 222.816 1127.92 223.955 1129.04 224.726C1130.17 225.486 1131.59 225.865 1133.32 225.865ZM1164.16 229.687C1161.81 229.687 1159.73 229.093 1157.93 227.904C1156.13 226.704 1154.72 225.014 1153.71 222.834C1152.69 220.642 1152.18 218.051 1152.18 215.063C1152.18 212.099 1152.69 209.527 1153.71 207.347C1154.72 205.167 1156.14 203.483 1157.95 202.294C1159.76 201.106 1161.86 200.512 1164.23 200.512C1166.07 200.512 1167.52 200.819 1168.59 201.431C1169.67 202.031 1170.49 202.717 1171.05 203.489C1171.63 204.248 1172.07 204.873 1172.39 205.363H1172.76V191.474H1177.09V229.099H1172.91V224.763H1172.39C1172.07 225.277 1171.62 225.926 1171.03 226.71C1170.44 227.482 1169.61 228.174 1168.51 228.786C1167.42 229.386 1165.97 229.687 1164.16 229.687ZM1164.75 225.792C1166.49 225.792 1167.96 225.339 1169.16 224.432C1170.36 223.514 1171.27 222.246 1171.9 220.629C1172.52 219 1172.83 217.12 1172.83 214.989C1172.83 212.883 1172.53 211.039 1171.91 209.459C1171.3 207.867 1170.39 206.63 1169.19 205.748C1167.99 204.854 1166.51 204.407 1164.75 204.407C1162.91 204.407 1161.38 204.879 1160.16 205.822C1158.94 206.753 1158.03 208.02 1157.42 209.625C1156.82 211.217 1156.52 213.005 1156.52 214.989C1156.52 216.998 1156.82 218.823 1157.44 220.464C1158.06 222.093 1158.98 223.391 1160.19 224.359C1161.42 225.314 1162.94 225.792 1164.75 225.792ZM1197.47 229.687C1194.75 229.687 1192.4 229.086 1190.43 227.886C1188.47 226.674 1186.96 224.983 1185.89 222.816C1184.84 220.635 1184.31 218.1 1184.31 215.21C1184.31 212.319 1184.84 209.772 1185.89 207.567C1186.96 205.35 1188.44 203.623 1190.34 202.386C1192.25 201.137 1194.48 200.512 1197.03 200.512C1198.5 200.512 1199.95 200.757 1201.38 201.247C1202.81 201.737 1204.12 202.533 1205.29 203.636C1206.47 204.726 1207.41 206.171 1208.11 207.971C1208.8 209.772 1209.15 211.989 1209.15 214.622V216.459H1187.4V212.711H1204.74C1204.74 211.119 1204.43 209.698 1203.79 208.449C1203.16 207.2 1202.27 206.214 1201.11 205.491C1199.95 204.769 1198.6 204.407 1197.03 204.407C1195.3 204.407 1193.81 204.836 1192.55 205.693C1191.3 206.538 1190.33 207.641 1189.66 209C1188.99 210.36 1188.65 211.817 1188.65 213.373V215.871C1188.65 218.002 1189.02 219.809 1189.75 221.291C1190.5 222.76 1191.53 223.881 1192.86 224.653C1194.18 225.412 1195.72 225.792 1197.47 225.792C1198.61 225.792 1199.64 225.633 1200.56 225.314C1201.49 224.983 1202.29 224.493 1202.96 223.844C1203.64 223.183 1204.16 222.362 1204.52 221.383L1208.71 222.558C1208.27 223.979 1207.53 225.228 1206.49 226.306C1205.45 227.372 1204.16 228.205 1202.63 228.805C1201.1 229.393 1199.38 229.687 1197.47 229.687Z" fill="white" fill-opacity="0.66"/>
<path d="M127.551 9C132.317 9.00009 136.181 12.8646 136.181 17.6309V37.0088C173.365 45.108 203.663 71.6465 217.018 106.563H169.179C156.572 88.6671 135.748 76.9747 112.193 76.9746C80.7997 76.9747 54.2574 97.7426 45.5537 126.289H222.544C223.752 132.887 224.386 139.686 224.386 146.633L224.377 148.083C223.704 201.222 186.087 245.457 136.03 256.287V276.556C136.03 281.322 132.167 285.187 127.4 285.187H97.5049C92.7413 285.186 88.8789 281.324 88.8789 276.561V256.398C51.1679 248.428 20.4448 221.517 7.13281 186.085H54.7773C67.3377 204.33 88.3685 216.291 112.193 216.291C143.813 216.291 170.512 195.223 179.019 166.358H1.72852C0.674376 160.415 0.0876882 154.31 0.00878906 148.083L0 146.633C4.1031e-05 92.6649 38.1058 47.5984 88.8789 36.8672V17.6309C88.8789 12.8647 92.7436 9.00024 97.5098 9H127.551ZM97.29 280.866L97.5049 280.871C97.4014 280.871 97.2989 280.866 97.1973 280.858C97.2281 280.861 97.259 280.865 97.29 280.866Z" fill="white"/>
</g>
<defs>
<clipPath id="clip0_334_156">
<rect width="1212" height="295" fill="white"/>
</clipPath>
</defs>
</svg>
