<svg width="651" height="651" viewBox="0 0 651 651" fill="none" xmlns="http://www.w3.org/2000/svg">
<mask id="path-1-inside-1_327_95" fill="white">
<path d="M231.37 22.6924C236.502 20.4086 242.514 22.7176 244.798 27.8496L262.554 67.751C353.49 45.1458 448.786 72.9681 513.396 137.76L410.378 183.604C366.079 157.144 310.032 151.92 259.307 174.492C191.703 204.576 154.449 274.733 163.062 344.546L538.867 177.312V177.314L544.201 174.941C553.125 187.99 561 202.026 567.656 216.984L568.347 218.549C620.142 336.957 578.292 472.959 474.825 543.173L493.511 585.162C496.019 590.799 493.483 597.402 487.847 599.91L423.469 628.558C417.838 631.063 411.241 628.53 408.735 622.899L390.134 581.099C298.513 604.092 202.388 575.844 137.629 510.131L240.227 464.475C284.757 491.725 341.507 497.328 392.811 474.498C460.901 444.197 498.204 373.244 488.862 302.936L201.058 431.01C201.058 431.011 201.06 431.012 201.061 431.013L107.086 472.831C98.8114 460.585 91.4579 447.479 85.1611 433.567L84.46 432.008C31.289 312.523 73.8712 174.698 179.166 104.556L161.522 64.9072C159.239 59.7753 161.548 53.7642 166.68 51.4805L231.37 22.6924ZM487.912 598.771L488.341 598.541C488.346 598.538 488.35 598.535 488.354 598.532C488.21 598.615 488.062 598.695 487.912 598.771Z"/>
</mask>
<path d="M231.37 22.6924L230.354 20.4083L230.354 20.4083L231.37 22.6924ZM244.798 27.8496L247.082 26.8332V26.8332L244.798 27.8496ZM262.554 67.751L260.27 68.7674L261.122 70.6829L263.157 70.1771L262.554 67.751ZM513.396 137.76L514.412 140.044L517.731 138.567L515.166 135.994L513.396 137.76ZM410.378 183.604L409.096 185.75L410.209 186.415L411.394 185.888L410.378 183.604ZM259.307 174.492L258.29 172.208H258.29L259.307 174.492ZM163.062 344.546L160.58 344.852L160.994 348.202L164.078 346.83L163.062 344.546ZM538.867 177.312H541.367V173.464L537.851 175.028L538.867 177.312ZM538.867 177.314H536.367V181.163L539.883 179.599L538.867 177.314ZM544.201 174.941L546.265 173.53L545.089 171.81L543.185 172.657L544.201 174.941ZM567.656 216.984L569.943 215.975L569.94 215.968L567.656 216.984ZM568.347 218.549L570.637 217.547L570.634 217.539L568.347 218.549ZM474.825 543.173L473.421 541.104L471.691 542.279L472.541 544.189L474.825 543.173ZM493.511 585.162L495.795 584.146V584.146L493.511 585.162ZM487.847 599.91L488.863 602.194L488.863 602.194L487.847 599.91ZM423.469 628.558L422.452 626.274H422.452L423.469 628.558ZM408.735 622.899L406.451 623.916H406.451L408.735 622.899ZM390.134 581.099L392.418 580.082L391.563 578.162L389.525 578.674L390.134 581.099ZM137.629 510.131L136.612 507.847L133.314 509.314L135.848 511.886L137.629 510.131ZM240.227 464.475L241.531 462.342L240.411 461.656L239.21 462.191L240.227 464.475ZM392.811 474.498L393.827 476.782V476.782L392.811 474.498ZM488.862 302.936L491.341 302.606L490.9 299.292L487.846 300.651L488.862 302.936ZM201.058 431.01L200.041 428.726L196.987 430.085L199.154 432.63L201.058 431.01ZM201.061 431.013L202.077 433.297L205.131 431.938L202.964 429.392L201.061 431.013ZM107.086 472.831L105.015 474.231L106.188 475.967L108.102 475.115L107.086 472.831ZM85.1611 433.567L82.881 434.593L82.8836 434.598L85.1611 433.567ZM84.46 432.008L82.1759 433.024L82.1798 433.033L84.46 432.008ZM179.166 104.556L180.552 106.636L182.308 105.467L181.45 103.539L179.166 104.556ZM161.522 64.9072L159.238 65.9236L159.238 65.9236L161.522 64.9072ZM166.68 51.4805L167.696 53.7645L167.696 53.7645L166.68 51.4805ZM487.912 598.771L486.728 596.57L489.043 601.001L487.912 598.771ZM488.341 598.541L489.525 600.743L489.551 600.729L489.576 600.715L488.341 598.541ZM488.354 598.532L489.593 600.704L487.116 596.361L488.354 598.532ZM231.37 22.6924L232.387 24.9764C236.257 23.254 240.791 24.9955 242.514 28.866L244.798 27.8496L247.082 26.8332C244.237 20.4397 236.747 17.5633 230.354 20.4083L231.37 22.6924ZM244.798 27.8496L242.514 28.866L260.27 68.7674L262.554 67.751L264.838 66.7346L247.082 26.8332L244.798 27.8496ZM262.554 67.751L263.157 70.1771C353.226 47.7874 447.625 75.3447 511.625 139.525L513.396 137.76L515.166 135.994C449.946 70.5915 353.753 42.5042 261.951 65.3248L262.554 67.751ZM513.396 137.76L512.379 135.476L409.362 181.319L410.378 183.604L411.394 185.888L514.412 140.044L513.396 137.76ZM410.378 183.604L411.66 181.457C366.693 154.599 309.79 149.291 258.29 172.208L259.307 174.492L260.323 176.776C310.274 154.548 365.466 159.689 409.096 185.75L410.378 183.604ZM259.307 174.492L258.29 172.208C189.654 202.752 151.837 273.978 160.58 344.852L163.062 344.546L165.543 344.24C157.061 275.488 193.752 206.4 260.323 176.776L259.307 174.492ZM163.062 344.546L164.078 346.83L539.884 179.597L538.867 177.312L537.851 175.028L162.045 342.262L163.062 344.546ZM538.867 177.312H536.367V177.314H538.867H541.367V177.312H538.867ZM538.867 177.314L539.883 179.599L545.217 177.226L544.201 174.941L543.185 172.657L537.851 175.03L538.867 177.314ZM544.201 174.941L542.138 176.353C550.977 189.277 558.777 203.181 565.372 218.001L567.656 216.984L569.94 215.968C563.222 200.871 555.274 186.703 546.265 173.53L544.201 174.941ZM567.656 216.984L565.369 217.994L566.06 219.558L568.347 218.549L570.634 217.539L569.943 215.975L567.656 216.984ZM568.347 218.549L566.056 219.551C617.361 336.837 575.909 471.555 473.421 541.104L474.825 543.173L476.229 545.242C580.676 474.363 622.924 337.077 570.637 217.547L568.347 218.549ZM474.825 543.173L472.541 544.189L491.227 586.179L493.511 585.162L495.795 584.146L477.109 542.156L474.825 543.173ZM493.511 585.162L491.227 586.179C493.174 590.554 491.205 595.679 486.83 597.626L487.847 599.91L488.863 602.194C495.761 599.124 498.864 591.044 495.795 584.146L493.511 585.162ZM487.847 599.91L486.83 597.626L422.452 626.274L423.469 628.558L424.485 630.842L488.863 602.194L487.847 599.91ZM423.469 628.558L422.452 626.274C418.083 628.218 412.964 626.252 411.019 621.883L408.735 622.899L406.451 623.916C409.519 630.808 417.593 633.909 424.485 630.842L423.469 628.558ZM408.735 622.899L411.019 621.883L392.418 580.082L390.134 581.099L387.85 582.115L406.451 623.916L408.735 622.899ZM390.134 581.099L389.525 578.674C298.777 601.448 203.558 573.469 139.41 508.376L137.629 510.131L135.848 511.886C201.219 578.219 298.248 606.736 390.742 583.523L390.134 581.099ZM137.629 510.131L138.645 512.415L241.243 466.759L240.227 464.475L239.21 462.191L136.612 507.847L137.629 510.131ZM240.227 464.475L238.922 466.607C284.124 494.268 341.74 499.961 393.827 476.782L392.811 474.498L391.794 472.214C341.274 494.696 285.391 489.182 241.531 462.342L240.227 464.475ZM392.811 474.498L393.827 476.782C462.958 446.018 500.824 373.984 491.341 302.606L488.862 302.936L486.384 303.265C495.584 372.505 458.844 442.376 391.794 472.214L392.811 474.498ZM488.862 302.936L487.846 300.651L200.041 428.726L201.058 431.01L202.074 433.294L489.879 305.22L488.862 302.936ZM201.058 431.01L199.154 432.63C199.188 432.67 199.219 432.704 199.244 432.73C199.269 432.757 199.291 432.779 199.307 432.795C199.323 432.811 199.337 432.823 199.345 432.831C199.349 432.835 199.352 432.838 199.354 432.839C199.355 432.84 199.356 432.841 199.356 432.842C199.357 432.842 199.357 432.842 199.357 432.842C199.357 432.842 199.357 432.842 199.357 432.842C199.357 432.843 199.356 432.841 199.354 432.84C199.352 432.838 199.349 432.835 199.345 432.831C199.338 432.824 199.325 432.812 199.309 432.796C199.293 432.78 199.271 432.759 199.246 432.733C199.221 432.707 199.191 432.673 199.157 432.633L201.061 431.013L202.964 429.392C202.93 429.352 202.899 429.318 202.874 429.292C202.849 429.266 202.827 429.244 202.811 429.228C202.795 429.212 202.781 429.199 202.774 429.192C202.77 429.188 202.766 429.185 202.764 429.183C202.763 429.182 202.762 429.181 202.762 429.181C202.762 429.181 202.761 429.18 202.761 429.18C202.761 429.18 202.761 429.18 202.761 429.18C202.761 429.18 202.762 429.181 202.764 429.183C202.766 429.184 202.769 429.187 202.773 429.191C202.78 429.198 202.793 429.211 202.809 429.226C202.826 429.242 202.847 429.264 202.872 429.29C202.897 429.316 202.927 429.349 202.961 429.389L201.058 431.01ZM201.061 431.013L200.044 428.729L106.07 470.547L107.086 472.831L108.102 475.115L202.077 433.297L201.061 431.013ZM107.086 472.831L109.157 471.431C100.962 459.302 93.6771 446.32 87.4387 432.537L85.1611 433.567L82.8836 434.598C89.2387 448.639 96.6612 461.869 105.015 474.231L107.086 472.831ZM85.1611 433.567L87.4413 432.542L86.7401 430.983L84.46 432.008L82.1798 433.033L82.881 434.593L85.1611 433.567ZM84.46 432.008L86.744 430.991C34.0768 312.639 76.2542 176.115 180.552 106.636L179.166 104.556L177.78 102.475C71.4881 173.282 28.5013 312.408 82.1759 433.024L84.46 432.008ZM179.166 104.556L181.45 103.539L163.807 63.8908L161.522 64.9072L159.238 65.9236L176.882 105.572L179.166 104.556ZM161.522 64.9072L163.807 63.8908C162.084 60.0204 163.826 55.4869 167.696 53.7645L166.68 51.4805L165.663 49.1964C159.27 52.0414 156.393 59.5302 159.238 65.9236L161.522 64.9072ZM166.68 51.4805L167.696 53.7645L232.387 24.9764L231.37 22.6924L230.354 20.4083L165.663 49.1964L166.68 51.4805ZM487.912 598.771L489.096 600.973L489.525 600.743L488.341 598.541L487.157 596.339L486.728 596.57L487.912 598.771ZM488.341 598.541L489.576 600.715C489.606 600.698 489.632 600.682 489.654 600.668C489.676 600.655 489.695 600.643 489.709 600.633C489.724 600.624 489.736 600.616 489.743 600.611C489.747 600.609 489.75 600.606 489.752 600.605C489.754 600.604 489.755 600.603 489.755 600.603C489.756 600.602 489.755 600.603 489.754 600.604C489.753 600.605 489.75 600.606 489.747 600.608C489.741 600.612 489.731 600.619 489.718 600.628C489.705 600.636 489.687 600.647 489.667 600.66C489.646 600.673 489.622 600.688 489.593 600.704L488.354 598.532L487.116 596.361C487.086 596.378 487.06 596.393 487.039 596.406C487.017 596.42 486.999 596.432 486.984 596.441C486.97 596.45 486.959 596.458 486.952 596.463C486.948 596.465 486.945 596.467 486.943 596.468C486.942 596.469 486.941 596.47 486.941 596.47C486.94 596.47 486.94 596.471 486.94 596.471C486.94 596.471 486.941 596.47 486.942 596.469C486.943 596.468 486.946 596.467 486.949 596.464C486.955 596.46 486.966 596.453 486.979 596.445C486.993 596.436 487.01 596.424 487.031 596.412C487.052 596.399 487.077 596.384 487.106 596.367L488.341 598.541ZM488.354 598.532L487.116 596.361C486.997 596.428 486.887 596.488 486.781 596.542L487.912 598.771L489.043 601.001C489.238 600.902 489.422 600.802 489.593 600.704L488.354 598.532Z" fill="#D7E9FF" mask="url(#path-1-inside-1_327_95)"/>
</svg>
