<svg width="1549" height="1040" viewBox="0 0 1549 1040" fill="none" xmlns="http://www.w3.org/2000/svg">
<g clip-path="url(#clip0_343_120)">
<path d="M382.619 -45.8619C383.01 -49.4153 386.207 -51.9792 389.761 -51.5887L419.622 -48.3066C423.175 -47.9159 425.739 -44.7188 425.348 -41.1655L421.748 -8.4038C421.357 -4.8505 418.16 -2.2866 414.607 -2.67705L384.745 -5.95916C381.192 -6.34972 378.628 -9.54687 379.019 -13.1002L382.619 -45.8619Z" fill="#CBE0FA" stroke="#CBE0FA" stroke-width="4.31512"/>
<path d="M357.26 184.858L399.84 189.538L396.91 216.193C396.52 219.746 393.322 222.31 389.769 221.92L360.052 218.654C356.502 218.263 353.94 215.069 354.33 211.518L357.26 184.858Z" fill="#CBE0FA" stroke="#CBE0FA" stroke-width="4.31512"/>
<path d="M289.448 53.2102L499.01 76.2436L494.632 116.073L285.07 93.0393L289.448 53.2102Z" fill="#CBE0FA"/>
<path d="M501.467 76.5138C501.947 83.2041 501.834 90.0316 501.075 96.937L500.908 98.3775C493.439 159.22 438.407 202.917 377.297 196.2L375.856 196.033C328.754 190.251 291.927 155.963 280.812 112.417L328.172 117.623C338.663 137.13 358.262 151.318 381.944 153.921C420.184 158.124 454.592 130.531 458.795 92.2899C459.569 85.2548 459.265 78.3496 458.018 71.7382L501.467 76.5138ZM403.252 -26.6751C450.123 -20.9215 486.818 13.0605 498.129 56.3025L450.576 51.0759C440 31.9092 420.579 18.0118 397.165 15.4383C358.924 11.2352 324.516 38.8282 320.313 77.069C319.564 83.8794 319.826 90.5679 320.975 96.9862L277.596 92.2183C277.197 86.1954 277.281 80.0629 277.883 73.8644L278.032 72.4219C284.802 10.8304 340.22 -33.6118 401.812 -26.8423L403.252 -26.6751Z" fill="#CBE0FA"/>
<path d="M102.793 156.889L145.372 161.569L142.442 188.224C142.052 191.777 138.855 194.341 135.301 193.951L105.585 190.685C102.034 190.294 99.472 187.1 99.8623 183.549L102.793 156.889Z" fill="#CBE0FA" stroke="#CBE0FA" stroke-width="4.31512"/>
<path d="M34.98 25.2412L244.542 48.2746L240.165 88.1037L30.6023 65.0703L34.98 25.2412Z" fill="#CBE0FA"/>
<path d="M246.999 48.5448C247.48 55.2351 247.366 62.0626 246.607 68.968L246.44 70.4085C238.971 131.251 183.939 174.948 122.829 168.231L121.388 168.064C74.2865 162.282 37.4596 127.994 26.3445 84.4482L73.7038 89.6535C84.1956 109.161 103.794 123.349 127.476 125.952C165.717 130.155 200.124 102.562 204.328 64.3209C205.101 57.2858 204.797 50.3806 203.55 43.7692L246.999 48.5448ZM148.785 -54.6441C195.656 -48.8905 232.35 -14.9085 243.661 28.3335L196.108 23.1069C185.532 3.94021 166.111 -9.95715 142.697 -12.5307C104.456 -16.7338 70.0483 10.8592 65.8452 49.1C65.0967 55.9104 65.3582 62.5989 66.5071 69.0172L23.1277 64.2493C22.7292 58.2264 22.813 52.0939 23.415 45.8954L23.5647 44.4529C30.3343 -17.1386 85.7525 -61.5808 147.344 -54.8113L148.785 -54.6441Z" fill="#CBE0FA"/>
<path d="M636.093 -18.0021C636.483 -21.5554 639.68 -24.1194 643.234 -23.7288L673.095 -20.4467C676.648 -20.0561 679.212 -16.8589 678.822 -13.3056L675.221 19.4561C674.83 23.0094 671.633 25.5733 668.08 25.1828L638.218 21.9007C634.665 21.5101 632.101 18.313 632.492 14.7596L636.093 -18.0021Z" fill="#CBE0FA" stroke="#CBE0FA" stroke-width="4.31512"/>
<path d="M610.733 212.718L653.313 217.398L650.383 244.053C649.993 247.606 646.796 250.17 643.242 249.78L613.526 246.513C609.975 246.123 607.413 242.929 607.803 239.378L610.733 212.718Z" fill="#CBE0FA" stroke="#CBE0FA" stroke-width="4.31512"/>
<path d="M542.921 81.0701L752.483 104.104L748.106 143.933L538.543 120.899L542.921 81.0701Z" fill="#CBE0FA"/>
<path d="M754.94 104.374C755.42 111.064 755.307 117.891 754.548 124.797L754.381 126.237C746.912 187.08 691.88 230.777 630.77 224.06L629.329 223.893C582.227 218.111 545.401 183.823 534.285 140.277L581.645 145.482C592.137 164.99 611.735 179.178 635.417 181.781C673.658 185.984 708.065 158.39 712.269 120.15C713.042 113.115 712.738 106.21 711.491 99.598L754.94 104.374ZM656.725 1.18478C703.596 6.93833 740.291 40.9203 751.602 84.1624L704.049 78.9358C693.473 59.7691 674.052 45.8717 650.638 43.2981C612.397 39.0951 577.989 66.688 573.786 104.929C573.038 111.739 573.299 118.428 574.448 124.846L531.069 120.078C530.67 114.055 530.754 107.923 531.356 101.724L531.506 100.282C538.275 38.6902 593.693 -5.75196 655.285 1.0176L656.725 1.18478Z" fill="#CBE0FA"/>
<path d="M889.566 9.85781C889.957 6.30444 893.154 3.7405 896.707 4.13106L926.569 7.41317C930.122 7.80381 932.686 11.0009 932.295 14.5542L928.694 47.3159C928.304 50.8692 925.107 53.4331 921.553 53.0427L891.692 49.7606C888.139 49.37 885.575 46.1729 885.965 42.6195L889.566 9.85781Z" fill="#CBE0FA" stroke="#CBE0FA" stroke-width="4.31512"/>
<path d="M864.207 240.578L906.787 245.258L903.857 271.913C903.466 275.466 900.269 278.03 896.716 277.64L866.999 274.373C863.448 273.983 860.887 270.788 861.277 267.238L864.207 240.578Z" fill="#CBE0FA" stroke="#CBE0FA" stroke-width="4.31512"/>
<path d="M796.395 108.93L1005.96 131.963L1001.58 171.792L792.017 148.759L796.395 108.93Z" fill="#CBE0FA"/>
<path d="M1008.41 132.234C1008.89 138.924 1008.78 145.751 1008.02 152.657L1007.85 154.097C1000.39 214.939 945.354 258.637 884.243 251.92L882.803 251.753C835.701 245.971 798.874 211.683 787.759 168.137L835.118 173.342C845.61 192.85 865.208 207.037 888.891 209.64C927.131 213.843 961.539 186.25 965.742 148.01C966.515 140.975 966.212 134.069 964.964 127.458L1008.41 132.234ZM910.199 29.0446C957.07 34.7982 993.765 68.7802 1005.08 112.022L957.523 106.796C946.947 87.6289 927.525 73.7316 904.111 71.158C865.871 66.955 831.463 94.5479 827.26 132.789C826.511 139.599 826.773 146.288 827.922 152.706L784.542 147.938C784.144 141.915 784.228 135.783 784.83 129.584L784.979 128.142C791.749 66.5501 847.167 22.1079 908.759 28.8775L910.199 29.0446Z" fill="#CBE0FA"/>
<path d="M1143.04 37.7177C1143.43 34.1643 1146.63 31.6004 1150.18 31.9909L1180.04 35.273C1183.6 35.6637 1186.16 38.8608 1185.77 42.4141L1182.17 75.1758C1181.78 78.7291 1178.58 81.293 1175.03 80.9025L1145.17 77.6204C1141.61 77.2299 1139.05 74.0327 1139.44 70.4794L1143.04 37.7177Z" fill="#CBE0FA" stroke="#CBE0FA" stroke-width="4.31512"/>
<path d="M1117.68 268.438L1160.26 273.118L1157.33 299.773C1156.94 303.326 1153.74 305.89 1150.19 305.499L1120.47 302.233C1116.92 301.843 1114.36 298.648 1114.75 295.097L1117.68 268.438Z" fill="#CBE0FA" stroke="#CBE0FA" stroke-width="4.31512"/>
<path d="M1049.87 136.79L1259.43 159.823L1255.05 199.652L1045.49 176.619L1049.87 136.79Z" fill="#CBE0FA"/>
<path d="M1261.89 160.093C1262.37 166.784 1262.25 173.611 1261.5 180.517L1261.33 181.957C1253.86 242.799 1198.83 286.496 1137.72 279.78L1136.28 279.613C1089.17 273.831 1052.35 239.543 1041.23 195.997L1088.59 201.202C1099.08 220.71 1118.68 234.897 1142.36 237.5C1180.6 241.703 1215.01 214.11 1219.22 175.87C1219.99 168.834 1219.69 161.929 1218.44 155.318L1261.89 160.093ZM1163.67 56.9045C1210.54 62.6581 1247.24 96.6401 1258.55 139.882L1211 134.655C1200.42 115.489 1181 101.591 1157.59 99.0179C1119.34 94.8148 1084.94 122.408 1080.73 160.649C1079.98 167.459 1080.25 174.148 1081.4 180.566L1038.02 175.798C1037.62 169.775 1037.7 163.643 1038.3 157.444L1038.45 156.001C1045.22 94.4099 1100.64 49.9678 1162.23 56.7373L1163.67 56.9045Z" fill="#CBE0FA"/>
<path d="M1396.51 65.5773C1396.9 62.0239 1400.1 59.46 1403.65 59.8505L1433.52 63.1326C1437.07 63.5233 1439.63 66.7204 1439.24 70.2737L1435.64 103.035C1435.25 106.589 1432.05 109.153 1428.5 108.762L1398.64 105.48C1395.09 105.089 1392.52 101.892 1392.91 98.339L1396.51 65.5773Z" fill="#CBE0FA" stroke="#CBE0FA" stroke-width="4.31512"/>
<path d="M1371.15 296.297L1413.73 300.977L1410.8 327.632C1410.41 331.186 1407.22 333.75 1403.66 333.359L1373.95 330.093C1370.4 329.703 1367.83 326.508 1368.22 322.957L1371.15 296.297Z" fill="#CBE0FA" stroke="#CBE0FA" stroke-width="4.31512"/>
<path d="M1303.34 164.649L1512.9 187.683L1508.53 227.512L1298.96 204.479L1303.34 164.649Z" fill="#CBE0FA"/>
<path d="M1515.36 187.953C1515.84 194.643 1515.73 201.471 1514.97 208.376L1514.8 209.817C1507.33 270.659 1452.3 314.356 1391.19 307.639L1389.75 307.472C1342.65 301.691 1305.82 267.402 1294.71 223.856L1342.07 229.062C1352.56 248.569 1372.16 262.757 1395.84 265.36C1434.08 269.563 1468.49 241.97 1472.69 203.729C1473.46 196.694 1473.16 189.789 1471.91 183.177L1515.36 187.953ZM1417.15 84.7641C1464.02 90.5177 1500.71 124.5 1512.02 167.742L1464.47 162.515C1453.89 143.348 1434.47 129.451 1411.06 126.877C1372.82 122.674 1338.41 150.267 1334.21 188.508C1333.46 195.319 1333.72 202.007 1334.87 208.425L1291.49 203.657C1291.09 197.635 1291.17 191.502 1291.78 185.304L1291.93 183.861C1298.7 122.27 1354.11 77.8274 1415.71 84.5969L1417.15 84.7641Z" fill="#CBE0FA"/>
<path d="M513.948 -14.2146L556.527 -9.53461L553.598 17.1203C553.207 20.6737 550.01 23.2376 546.457 22.847L516.74 19.5808C513.189 19.1906 510.627 15.996 511.018 12.4451L513.948 -14.2146Z" fill="#CBE0FA" stroke="#CBE0FA" stroke-width="4.31512"/>
<path d="M658.154 -122.559C658.635 -115.869 658.521 -109.041 657.762 -102.136L657.595 -100.695C650.127 -39.853 595.094 3.84411 533.984 -2.87248L532.544 -3.03966C485.442 -8.8214 448.615 -43.1096 437.5 -86.6556L484.859 -81.4502C495.351 -61.9425 514.949 -47.7551 538.631 -45.152C576.872 -40.9491 611.28 -68.5421 615.483 -106.783C616.256 -113.818 615.952 -120.723 614.705 -127.335L658.154 -122.559ZM559.94 -225.748C606.811 -219.994 643.505 -186.012 654.816 -142.77L607.264 -147.997C596.687 -167.164 577.266 -181.061 553.852 -183.634C515.611 -187.838 481.204 -160.245 477 -122.004C476.252 -115.193 476.513 -108.505 477.662 -102.087L434.283 -106.855C433.885 -112.877 433.968 -119.01 434.57 -125.208L434.72 -126.651C441.49 -188.242 496.908 -232.685 558.499 -225.915L559.94 -225.748Z" fill="#CBE0FA"/>
<path d="M767.421 13.645L810.001 18.325L807.071 44.9799C806.681 48.5333 803.484 51.0972 799.93 50.7067L770.214 47.4405C766.663 47.0502 764.101 43.8556 764.491 40.3048L767.421 13.645Z" fill="#CBE0FA" stroke="#CBE0FA" stroke-width="4.31512"/>
<path d="M911.628 -94.6994C912.108 -88.0091 911.995 -81.1815 911.236 -74.2762L911.069 -72.8356C903.6 -11.9934 848.568 31.7037 787.458 24.9871L786.017 24.82C738.915 19.0382 702.089 -15.25 690.973 -58.796L738.333 -53.5906C748.825 -34.0829 768.423 -19.8955 792.105 -17.2924C830.346 -13.0895 864.753 -40.6825 868.957 -78.9232C869.73 -85.9583 869.426 -92.8635 868.179 -99.475L911.628 -94.6994ZM813.413 -197.888C860.284 -192.135 896.979 -158.153 908.29 -114.911L860.737 -120.137C850.161 -139.304 830.74 -153.201 807.326 -155.775C769.085 -159.978 734.677 -132.385 730.474 -94.1441C729.726 -87.3337 729.987 -80.6452 731.136 -74.227L687.757 -78.9949C687.358 -85.0177 687.442 -91.1502 688.044 -97.3488L688.194 -98.7912C694.963 -160.383 750.381 -204.825 811.973 -198.055L813.413 -197.888Z" fill="#CBE0FA"/>
<path d="M1020.9 41.5049L1063.47 46.1849L1060.54 72.8398C1060.15 76.3931 1056.96 78.9571 1053.4 78.5665L1023.69 75.3003C1020.14 74.91 1017.57 71.7155 1017.96 68.1646L1020.9 41.5049Z" fill="#CBE0FA" stroke="#CBE0FA" stroke-width="4.31512"/>
<path d="M1165.1 -66.8395C1165.58 -60.1492 1165.47 -53.3216 1164.71 -46.4163L1164.54 -44.9757C1157.07 15.8664 1102.04 59.5636 1040.93 52.847L1039.49 52.6798C992.389 46.8981 955.562 12.6099 944.447 -30.9361L991.806 -25.7307C1002.3 -6.22299 1021.9 7.96441 1045.58 10.5674C1083.82 14.7704 1118.23 -12.8226 1122.43 -51.0633C1123.2 -58.0985 1122.9 -65.0036 1121.65 -71.6151L1165.1 -66.8395ZM1066.89 -170.028C1113.76 -164.275 1150.45 -130.293 1161.76 -87.0508L1114.21 -92.2774C1103.63 -111.444 1084.21 -125.341 1060.8 -127.915C1022.56 -132.118 988.151 -104.525 983.948 -66.2842C983.199 -59.4739 983.461 -52.7853 984.61 -46.3671L941.23 -51.135C940.832 -57.1579 940.916 -63.2903 941.518 -69.4889L941.667 -70.9314C948.437 -132.523 1003.86 -176.965 1065.45 -170.196L1066.89 -170.028Z" fill="#CBE0FA"/>
<path d="M1274.37 69.3647L1316.95 74.0447L1314.02 100.7C1313.63 104.253 1310.43 106.817 1306.88 106.426L1277.16 103.16C1273.61 102.77 1271.05 99.5753 1271.44 96.0245L1274.37 69.3647Z" fill="#CBE0FA" stroke="#CBE0FA" stroke-width="4.31512"/>
<path d="M1206.56 -62.2832L1416.12 -39.2498L1411.74 0.579329L1202.18 -22.4541L1206.56 -62.2832Z" fill="#CBE0FA"/>
<path d="M1418.58 -38.9796C1419.06 -32.2893 1418.94 -25.4618 1418.18 -18.5564L1418.02 -17.1159C1410.55 43.7263 1355.52 87.4235 1294.41 80.7069L1292.96 80.5397C1245.86 74.7579 1209.04 40.4698 1197.92 -3.07624L1245.28 2.12912C1255.77 21.6369 1275.37 35.8243 1299.05 38.4273C1337.29 42.6303 1371.7 15.0372 1375.9 -23.2035C1376.68 -30.2386 1376.37 -37.1438 1375.13 -43.7552L1418.58 -38.9796ZM1320.36 -142.168C1367.23 -136.415 1403.93 -102.433 1415.24 -59.1909L1367.68 -64.4175C1357.11 -83.5842 1337.69 -97.4816 1314.27 -100.055C1276.03 -104.258 1241.62 -76.6652 1237.42 -38.4244C1236.67 -31.614 1236.93 -24.9255 1238.08 -18.5072L1194.7 -23.2752C1194.31 -29.298 1194.39 -35.4305 1194.99 -41.629L1195.14 -43.0715C1201.91 -104.663 1257.33 -149.105 1318.92 -142.336L1320.36 -142.168Z" fill="#CBE0FA"/>
<path d="M1527.84 97.2246L1570.42 101.905L1567.49 128.56C1567.1 132.113 1563.9 134.677 1560.35 134.286L1530.63 131.02C1527.08 130.63 1524.52 127.435 1524.91 123.884L1527.84 97.2246Z" fill="#CBE0FA" stroke="#CBE0FA" stroke-width="4.31512"/>
<path d="M1460.03 -34.4233L1669.59 -11.3899L1665.21 28.4392L1455.65 5.40576L1460.03 -34.4233Z" fill="#CBE0FA"/>
<path d="M1672.05 -11.1198C1672.53 -4.42948 1672.42 2.39809 1671.66 9.30343L1671.49 10.744C1664.02 71.5862 1608.99 115.283 1547.88 108.567L1546.44 108.4C1499.34 102.618 1462.51 68.3296 1451.39 24.7836L1498.75 29.989C1509.24 49.4967 1528.84 63.6841 1552.53 66.2872C1590.77 70.4901 1625.17 42.8971 1629.38 4.65639C1630.15 -2.37874 1629.85 -9.28391 1628.6 -15.8954L1672.05 -11.1198ZM1573.83 -114.309C1620.7 -108.555 1657.4 -74.5731 1668.71 -31.331L1621.16 -36.5576C1610.58 -55.7243 1591.16 -69.6217 1567.75 -72.1953C1529.51 -76.3983 1495.1 -48.8054 1490.89 -10.5645C1490.15 -3.75416 1490.41 2.93438 1491.56 9.35263L1448.18 4.58471C1447.78 -1.43814 1447.86 -7.57061 1448.46 -13.7692L1448.61 -15.2116C1455.38 -76.8032 1510.8 -121.245 1572.39 -114.476L1573.83 -114.309Z" fill="#CBE0FA"/>
<path d="M185.026 580.299C185.416 576.745 188.613 574.181 192.167 574.572L222.028 577.854C225.581 578.245 228.145 581.442 227.755 584.995L224.154 617.757C223.763 621.31 220.566 623.874 217.013 623.484L187.152 620.201C183.598 619.811 181.034 616.614 181.425 613.06L185.026 580.299Z" fill="#CBE0FA" stroke="#CBE0FA" stroke-width="4.31512"/>
<path d="M159.667 811.019L202.246 815.699L199.316 842.354C198.926 845.907 195.729 848.471 192.175 848.081L162.459 844.814C158.908 844.424 156.346 841.23 156.736 837.679L159.667 811.019Z" fill="#CBE0FA" stroke="#CBE0FA" stroke-width="4.31512"/>
<path d="M91.854 679.371L301.416 702.404L297.039 742.233L87.4763 719.2L91.854 679.371Z" fill="#CBE0FA"/>
<path d="M303.873 702.674C304.354 709.365 304.24 716.192 303.481 723.098L303.314 724.538C295.845 785.38 240.813 829.078 179.703 822.361L178.262 822.194C131.161 816.412 94.3336 782.124 83.2185 738.578L130.578 743.783C141.07 763.291 160.668 777.478 184.35 780.081C222.591 784.284 256.998 756.691 261.202 718.451C261.975 711.415 261.671 704.51 260.424 697.899L303.873 702.674ZM205.659 599.486C252.53 605.239 289.224 639.221 300.535 682.463L252.982 677.237C242.406 658.07 222.985 644.172 199.571 641.599C161.33 637.396 126.922 664.989 122.719 703.23C121.971 710.04 122.232 716.729 123.381 723.147L80.0018 718.379C79.6033 712.356 79.6871 706.224 80.289 700.025L80.4387 698.583C87.2084 636.991 142.627 592.549 204.218 599.318L205.659 599.486Z" fill="#CBE0FA"/>
<path d="M-162.613 651.402L46.949 674.435L42.5713 714.264L-166.991 691.231L-162.613 651.402Z" fill="#CBE0FA"/>
<path d="M49.4058 674.705C49.8863 681.396 49.7729 688.223 49.0139 695.129L48.8468 696.569C41.3782 757.411 -13.6541 801.109 -74.7643 794.392L-76.2049 794.225C-123.307 788.443 -160.134 754.155 -171.249 710.609L-123.889 715.814C-113.398 735.322 -93.7995 749.509 -70.1173 752.112C-31.8766 756.315 2.53111 728.722 6.73438 690.482C7.50763 683.446 7.20387 676.541 5.95654 669.93L49.4058 674.705ZM-48.8087 571.517C-1.93772 577.27 34.7569 611.252 46.0676 654.494L-1.48486 649.268C-12.0613 630.101 -31.4824 616.203 -54.8964 613.63C-93.1373 609.427 -127.545 637.02 -131.748 675.261C-132.497 682.071 -132.235 688.76 -131.086 695.178L-174.466 690.41C-174.864 684.387 -174.78 678.255 -174.178 672.056L-174.029 670.614C-167.259 609.022 -111.841 564.58 -50.2492 571.349L-48.8087 571.517Z" fill="#CBE0FA"/>
<path d="M438.499 608.159C438.89 604.605 442.087 602.041 445.64 602.432L475.502 605.714C479.055 606.105 481.619 609.302 481.228 612.855L477.627 645.617C477.237 649.17 474.04 651.734 470.486 651.343L440.625 648.061C437.072 647.671 434.508 644.474 434.898 640.92L438.499 608.159Z" fill="#CBE0FA" stroke="#CBE0FA" stroke-width="4.31512"/>
<path d="M413.14 838.879L455.72 843.559L452.79 870.214C452.399 873.767 449.202 876.331 445.649 875.941L415.932 872.674C412.382 872.284 409.82 869.09 410.21 865.539L413.14 838.879Z" fill="#CBE0FA" stroke="#CBE0FA" stroke-width="4.31512"/>
<path d="M345.328 707.23L554.89 730.264L550.512 770.093L340.95 747.06L345.328 707.23Z" fill="#CBE0FA"/>
<path d="M557.347 730.534C557.827 737.225 557.714 744.052 556.955 750.957L556.788 752.398C549.319 813.24 494.287 856.937 433.177 850.221L431.736 850.054C384.634 844.272 347.807 809.984 336.692 766.438L384.051 771.643C394.543 791.151 414.141 805.338 437.824 807.941C476.064 812.144 510.472 784.551 514.675 746.31C515.449 739.275 515.145 732.37 513.897 725.759L557.347 730.534ZM459.132 627.345C506.003 633.099 542.698 667.081 554.009 710.323L506.456 705.096C495.88 685.93 476.458 672.032 453.045 669.459C414.804 665.256 380.396 692.849 376.193 731.09C375.444 737.9 375.706 744.588 376.855 751.007L333.475 746.239C333.077 740.216 333.161 734.083 333.763 727.885L333.912 726.442C340.682 664.851 396.1 620.409 457.692 627.178L459.132 627.345Z" fill="#CBE0FA"/>
<path d="M691.973 636.018C692.364 632.465 695.561 629.901 699.114 630.291L728.975 633.574C732.529 633.964 735.093 637.161 734.702 640.715L731.101 673.476C730.711 677.03 727.513 679.594 723.96 679.203L694.099 675.921C690.545 675.53 687.982 672.333 688.372 668.78L691.973 636.018Z" fill="#CBE0FA" stroke="#CBE0FA" stroke-width="4.31512"/>
<path d="M666.614 866.739L709.193 871.419L706.264 898.074C705.873 901.627 702.676 904.191 699.123 903.8L669.406 900.534C665.855 900.144 663.293 896.949 663.684 893.399L666.614 866.739Z" fill="#CBE0FA" stroke="#CBE0FA" stroke-width="4.31512"/>
<path d="M598.801 735.09L808.364 758.124L803.986 797.953L594.424 774.919L598.801 735.09Z" fill="#CBE0FA"/>
<path d="M810.82 758.394C811.301 765.084 811.187 771.912 810.428 778.817L810.261 780.258C802.793 841.1 747.76 884.797 686.65 878.081L685.21 877.913C638.108 872.132 601.281 837.844 590.166 794.298L637.525 799.503C648.017 819.011 667.615 833.198 691.297 835.801C729.538 840.004 763.946 812.411 768.149 774.17C768.922 767.135 768.618 760.23 767.371 753.619L810.82 758.394ZM712.606 655.205C759.477 660.959 796.171 694.941 807.482 738.183L759.93 732.956C749.353 713.79 729.932 699.892 706.518 697.319C668.277 693.116 633.87 720.709 629.666 758.949C628.918 765.76 629.179 772.448 630.328 778.867L586.949 774.099C586.551 768.076 586.634 761.943 587.236 755.745L587.386 754.302C594.156 692.711 649.574 648.269 711.165 655.038L712.606 655.205Z" fill="#CBE0FA"/>
<path d="M945.447 663.878C945.837 660.325 949.034 657.761 952.588 658.151L982.449 661.433C986.002 661.824 988.566 665.021 988.176 668.575L984.575 701.336C984.184 704.889 980.987 707.453 977.434 707.063L947.572 703.781C944.019 703.39 941.455 700.193 941.846 696.64L945.447 663.878Z" fill="#CBE0FA" stroke="#CBE0FA" stroke-width="4.31512"/>
<path d="M920.087 894.599L962.667 899.279L959.737 925.934C959.347 929.487 956.15 932.051 952.596 931.66L922.88 928.394C919.329 928.004 916.767 924.809 917.157 921.258L920.087 894.599Z" fill="#CBE0FA" stroke="#CBE0FA" stroke-width="4.31512"/>
<path d="M852.275 762.95L1061.84 785.984L1057.46 825.813L847.897 802.779L852.275 762.95Z" fill="#CBE0FA"/>
<path d="M1064.29 786.254C1064.77 792.944 1064.66 799.772 1063.9 806.677L1063.73 808.118C1056.27 868.96 1001.23 912.657 940.124 905.94L938.683 905.773C891.581 899.991 854.755 865.703 843.639 822.157L890.999 827.363C901.491 846.87 921.089 861.058 944.771 863.661C983.012 867.864 1017.42 840.271 1021.62 802.03C1022.4 794.995 1022.09 788.09 1020.84 781.478L1064.29 786.254ZM966.079 683.065C1012.95 688.818 1049.65 722.8 1060.96 766.042L1013.4 760.816C1002.83 741.649 983.406 727.752 959.992 725.178C921.751 720.975 887.343 748.568 883.14 786.809C882.392 793.619 882.653 800.308 883.802 806.726L840.423 801.958C840.024 795.935 840.108 789.803 840.71 783.604L840.86 782.162C847.629 720.57 903.047 676.128 964.639 682.898L966.079 683.065Z" fill="#CBE0FA"/>
<path d="M1198.92 691.737C1199.31 688.184 1202.51 685.62 1206.06 686.011L1235.92 689.293C1239.48 689.683 1242.04 692.881 1241.65 696.434L1238.05 729.196C1237.66 732.749 1234.46 735.313 1230.91 734.922L1201.05 731.64C1197.49 731.25 1194.93 728.052 1195.32 724.499L1198.92 691.737Z" fill="#CBE0FA" stroke="#CBE0FA" stroke-width="4.31512"/>
<path d="M1173.56 922.458L1216.14 927.138L1213.21 953.793C1212.82 957.346 1209.62 959.91 1206.07 959.52L1176.35 956.253C1172.8 955.863 1170.24 952.669 1170.63 949.118L1173.56 922.458Z" fill="#CBE0FA" stroke="#CBE0FA" stroke-width="4.31512"/>
<path d="M1105.75 790.81L1315.31 813.843L1310.93 853.672L1101.37 830.639L1105.75 790.81Z" fill="#CBE0FA"/>
<path d="M1317.77 814.114C1318.25 820.804 1318.13 827.631 1317.38 834.537L1317.21 835.977C1309.74 896.82 1254.71 940.517 1193.6 933.8L1192.16 933.633C1145.06 927.851 1108.23 893.563 1097.11 850.017L1144.47 855.222C1154.96 874.73 1174.56 888.918 1198.24 891.521C1236.49 895.724 1270.89 868.13 1275.1 829.89C1275.87 822.855 1275.57 815.949 1274.32 809.338L1317.77 814.114ZM1219.55 710.925C1266.42 716.678 1303.12 750.66 1314.43 793.902L1266.88 788.676C1256.3 769.509 1236.88 755.612 1213.47 753.038C1175.22 748.835 1140.82 776.428 1136.61 814.669C1135.87 821.479 1136.13 828.168 1137.28 834.586L1093.9 829.818C1093.5 823.795 1093.58 817.663 1094.18 811.464L1094.33 810.022C1101.1 748.43 1156.52 703.988 1218.11 710.758L1219.55 710.925Z" fill="#CBE0FA"/>
<path d="M1452.39 719.597C1452.78 716.044 1455.98 713.48 1459.53 713.871L1489.4 717.153C1492.95 717.543 1495.51 720.74 1495.12 724.294L1491.52 757.055C1491.13 760.609 1487.93 763.173 1484.38 762.782L1454.52 759.5C1450.97 759.11 1448.4 755.912 1448.79 752.359L1452.39 719.597Z" fill="#CBE0FA" stroke="#CBE0FA" stroke-width="4.31512"/>
<path d="M1427.03 950.318L1469.61 954.998L1466.68 981.653C1466.29 985.206 1463.1 987.77 1459.54 987.38L1429.83 984.113C1426.28 983.723 1423.71 980.528 1424.1 976.978L1427.03 950.318Z" fill="#CBE0FA" stroke="#CBE0FA" stroke-width="4.31512"/>
<path d="M1359.22 818.669L1568.78 841.703L1564.41 881.532L1354.84 858.499L1359.22 818.669Z" fill="#CBE0FA"/>
<path d="M1571.24 841.973C1571.72 848.664 1571.61 855.491 1570.85 862.397L1570.68 863.837C1563.21 924.679 1508.18 968.377 1447.07 961.66L1445.63 961.493C1398.53 955.711 1361.7 921.423 1350.59 877.877L1397.95 883.082C1408.44 902.59 1428.04 916.777 1451.72 919.38C1489.96 923.583 1524.37 895.99 1528.57 857.75C1529.34 850.715 1529.04 843.809 1527.79 837.198L1571.24 841.973ZM1473.03 738.785C1519.9 744.538 1556.59 778.52 1567.9 821.762L1520.35 816.536C1509.77 797.369 1490.35 783.472 1466.94 780.898C1428.7 776.695 1394.29 804.288 1390.09 842.529C1389.34 849.339 1389.6 856.028 1390.75 862.446L1347.37 857.678C1346.97 851.655 1347.05 845.523 1347.66 839.324L1347.81 837.882C1354.58 776.29 1409.99 731.848 1471.59 738.617L1473.03 738.785Z" fill="#CBE0FA"/>
<path d="M339.169 376.922C339.559 373.368 342.757 370.804 346.31 371.195L376.171 374.477C379.724 374.868 382.288 378.065 381.898 381.618L378.297 414.38C377.906 417.933 374.709 420.497 371.156 420.107L341.295 416.825C337.741 416.434 335.177 413.237 335.568 409.683L339.169 376.922Z" fill="#CBE0FA" stroke="#CBE0FA" stroke-width="4.31512"/>
<path d="M313.81 607.642L356.389 612.322L353.459 638.977C353.069 642.53 349.872 645.094 346.318 644.703L316.602 641.437C313.051 641.047 310.489 637.852 310.879 634.302L313.81 607.642Z" fill="#CBE0FA" stroke="#CBE0FA" stroke-width="4.31512"/>
<path d="M245.997 475.994L455.559 499.027L451.182 538.856L241.619 515.823L245.997 475.994Z" fill="#CBE0FA"/>
<path d="M458.016 499.297C458.497 505.988 458.383 512.815 457.624 519.721L457.457 521.161C449.989 582.003 394.956 625.701 333.846 618.984L332.405 618.817C285.304 613.035 248.477 578.747 237.362 535.201L284.721 540.406C295.213 559.914 314.811 574.101 338.493 576.704C376.734 580.907 411.141 553.314 415.345 515.074C416.118 508.039 415.814 501.133 414.567 494.522L458.016 499.297ZM359.802 396.109C406.673 401.862 443.367 435.844 454.678 479.086L407.125 473.86C396.549 454.693 377.128 440.796 353.714 438.222C315.473 434.019 281.065 461.612 276.862 499.853C276.114 506.663 276.375 513.352 277.524 519.77L234.145 515.002C233.746 508.979 233.83 502.847 234.432 496.648L234.582 495.206C241.351 433.614 296.77 389.172 358.361 395.941L359.802 396.109Z" fill="#CBE0FA"/>
<path d="M84.701 348.953C85.0916 345.399 88.2887 342.835 91.8421 343.226L121.703 346.508C125.257 346.899 127.821 350.096 127.43 353.649L123.829 386.411C123.439 389.964 120.241 392.528 116.688 392.138L86.8269 388.856C83.2735 388.465 80.7096 385.268 81.1001 381.714L84.701 348.953Z" fill="#CBE0FA" stroke="#CBE0FA" stroke-width="4.31512"/>
<path d="M59.3418 579.673L101.921 584.353L98.9916 611.008C98.6011 614.561 95.4039 617.125 91.8506 616.734L62.134 613.468C58.5832 613.078 56.0213 609.883 56.4116 606.333L59.3418 579.673Z" fill="#CBE0FA" stroke="#CBE0FA" stroke-width="4.31512"/>
<path d="M-8.4707 448.025L201.092 471.058L196.714 510.887L-12.8484 487.854L-8.4707 448.025Z" fill="#CBE0FA"/>
<path d="M203.548 471.328C204.029 478.019 203.916 484.846 203.157 491.752L202.989 493.192C195.521 554.034 140.488 597.732 79.3783 591.015L77.9377 590.848C30.8358 585.066 -5.99107 550.778 -17.1062 507.232L30.2531 512.437C40.745 531.945 60.343 546.132 84.0253 548.735C122.266 552.938 156.674 525.345 160.877 487.105C161.65 480.07 161.346 473.164 160.099 466.553L203.548 471.328ZM105.334 368.14C152.205 373.893 188.9 407.875 200.21 451.117L152.658 445.891C142.081 426.724 122.66 412.827 99.2462 410.253C61.0053 406.05 26.5977 433.643 22.3945 471.884C21.646 478.694 21.9075 485.383 23.0564 491.801L-20.3229 487.033C-20.7215 481.01 -20.6376 474.878 -20.0357 468.679L-19.886 467.237C-13.1164 405.645 42.3018 361.203 103.893 367.972L105.334 368.14Z" fill="#CBE0FA"/>
<path d="M592.642 404.782C593.032 401.228 596.23 398.664 599.783 399.055L629.644 402.337C633.197 402.728 635.761 405.925 635.371 409.478L631.77 442.24C631.379 445.793 628.182 448.357 624.629 447.967L594.768 444.684C591.214 444.294 588.65 441.097 589.041 437.543L592.642 404.782Z" fill="#CBE0FA" stroke="#CBE0FA" stroke-width="4.31512"/>
<path d="M567.283 635.502L609.862 640.182L606.933 666.837C606.542 670.39 603.345 672.954 599.791 672.563L570.075 669.297C566.524 668.907 563.962 665.712 564.353 662.161L567.283 635.502Z" fill="#CBE0FA" stroke="#CBE0FA" stroke-width="4.31512"/>
<path d="M499.47 503.854L709.033 526.887L704.655 566.716L495.093 543.683L499.47 503.854Z" fill="#CBE0FA"/>
<path d="M711.489 527.157C711.97 533.848 711.856 540.675 711.097 547.581L710.93 549.021C703.462 609.863 648.429 653.56 587.319 646.844L585.879 646.677C538.777 640.895 501.95 606.607 490.835 563.061L538.194 568.266C548.686 587.774 568.284 601.961 591.966 604.564C630.207 608.767 664.615 581.174 668.818 542.933C669.591 535.898 669.287 528.993 668.04 522.382L711.489 527.157ZM613.275 423.968C660.146 429.722 696.84 463.704 708.151 506.946L660.599 501.719C650.022 482.553 630.601 468.655 607.187 466.082C568.946 461.879 534.539 489.472 530.335 527.713C529.587 534.523 529.848 541.211 530.997 547.63L487.618 542.862C487.219 536.839 487.303 530.706 487.905 524.508L488.055 523.065C494.825 461.474 550.243 417.032 611.834 423.801L613.275 423.968Z" fill="#CBE0FA"/>
<path d="M846.116 432.641C846.506 429.088 849.703 426.524 853.257 426.915L883.118 430.197C886.671 430.588 889.235 433.785 888.845 437.338L885.244 470.1C884.853 473.653 881.656 476.217 878.103 475.826L848.241 472.544C844.688 472.154 842.124 468.957 842.515 465.403L846.116 432.641Z" fill="#CBE0FA" stroke="#CBE0FA" stroke-width="4.31512"/>
<path d="M820.756 663.362L863.336 668.042L860.406 694.697C860.016 698.25 856.818 700.814 853.265 700.423L823.549 697.157C819.998 696.767 817.436 693.572 817.826 690.022L820.756 663.362Z" fill="#CBE0FA" stroke="#CBE0FA" stroke-width="4.31512"/>
<path d="M752.944 531.714L962.506 554.747L958.128 594.576L748.566 571.543L752.944 531.714Z" fill="#CBE0FA"/>
<path d="M964.963 555.017C965.443 561.707 965.33 568.535 964.571 575.44L964.404 576.881C956.935 637.723 901.903 681.42 840.793 674.704L839.352 674.537C792.25 668.755 755.423 634.467 744.308 590.921L791.668 596.126C802.16 615.634 821.758 629.821 845.44 632.424C883.681 636.627 918.088 609.034 922.292 570.793C923.065 563.758 922.761 556.853 921.514 550.242L964.963 555.017ZM866.748 451.828C913.619 457.582 950.314 491.564 961.625 534.806L914.072 529.579C903.496 510.413 884.075 496.515 860.661 493.942C822.42 489.739 788.012 517.332 783.809 555.572C783.061 562.383 783.322 569.071 784.471 575.49L741.092 570.722C740.693 564.699 740.777 558.566 741.379 552.368L741.529 550.925C748.298 489.334 803.716 444.892 865.308 451.661L866.748 451.828Z" fill="#CBE0FA"/>
<path d="M1099.59 460.501C1099.98 456.948 1103.18 454.384 1106.73 454.775L1136.59 458.057C1140.14 458.447 1142.71 461.644 1142.32 465.198L1138.72 497.959C1138.33 501.513 1135.13 504.077 1131.58 503.686L1101.72 500.404C1098.16 500.014 1095.6 496.816 1095.99 493.263L1099.59 460.501Z" fill="#CBE0FA" stroke="#CBE0FA" stroke-width="4.31512"/>
<path d="M1074.23 691.222L1116.81 695.902L1113.88 722.557C1113.49 726.11 1110.29 728.674 1106.74 728.283L1077.02 725.017C1073.47 724.627 1070.91 721.432 1071.3 717.881L1074.23 691.222Z" fill="#CBE0FA" stroke="#CBE0FA" stroke-width="4.31512"/>
<path d="M1006.42 559.573L1215.98 582.607L1211.6 622.436L1002.04 599.403L1006.42 559.573Z" fill="#CBE0FA"/>
<path d="M1218.44 582.877C1218.92 589.567 1218.8 596.395 1218.04 603.3L1217.88 604.741C1210.41 665.583 1155.38 709.28 1094.27 702.564L1092.83 702.396C1045.72 696.615 1008.9 662.326 997.782 618.78L1045.14 623.986C1055.63 643.494 1075.23 657.681 1098.91 660.284C1137.15 664.487 1171.56 636.894 1175.77 598.653C1176.54 591.618 1176.23 584.713 1174.99 578.101L1218.44 582.877ZM1120.22 479.688C1167.09 485.442 1203.79 519.424 1215.1 562.666L1167.55 557.439C1156.97 538.272 1137.55 524.375 1114.13 521.802C1075.89 517.599 1041.49 545.191 1037.28 583.432C1036.53 590.243 1036.8 596.931 1037.94 603.349L994.565 598.582C994.167 592.559 994.251 586.426 994.852 580.228L995.002 578.785C1001.77 517.194 1057.19 472.751 1118.78 479.521L1120.22 479.688Z" fill="#CBE0FA"/>
<path d="M1353.06 488.361C1353.45 484.808 1356.65 482.244 1360.2 482.634L1390.07 485.916C1393.62 486.307 1396.18 489.504 1395.79 493.057L1392.19 525.819C1391.8 529.372 1388.6 531.936 1385.05 531.546L1355.19 528.264C1351.64 527.873 1349.07 524.676 1349.46 521.123L1353.06 488.361Z" fill="#CBE0FA" stroke="#CBE0FA" stroke-width="4.31512"/>
<path d="M1327.7 719.081L1370.28 723.761L1367.35 750.416C1366.96 753.969 1363.77 756.533 1360.21 756.143L1330.5 752.876C1326.94 752.486 1324.38 749.292 1324.77 745.741L1327.7 719.081Z" fill="#CBE0FA" stroke="#CBE0FA" stroke-width="4.31512"/>
<path d="M1259.89 587.433L1469.45 610.467L1465.08 650.296L1255.51 627.262L1259.89 587.433Z" fill="#CBE0FA"/>
<path d="M1471.91 610.737C1472.39 617.427 1472.28 624.255 1471.52 631.16L1471.35 632.6C1463.88 693.443 1408.85 737.14 1347.74 730.423L1346.3 730.256C1299.2 724.474 1262.37 690.186 1251.26 646.64L1298.61 651.845C1309.11 671.353 1328.7 685.541 1352.39 688.144C1390.63 692.347 1425.04 664.754 1429.24 626.513C1430.01 619.478 1429.71 612.573 1428.46 605.961L1471.91 610.737ZM1373.7 507.548C1420.57 513.301 1457.26 547.283 1468.57 590.525L1421.02 585.299C1410.44 566.132 1391.02 552.235 1367.61 549.661C1329.37 545.458 1294.96 573.051 1290.76 611.292C1290.01 618.102 1290.27 624.791 1291.42 631.209L1248.04 626.441C1247.64 620.418 1247.72 614.286 1248.33 608.087L1248.48 606.645C1255.25 545.053 1310.66 500.611 1372.26 507.381L1373.7 507.548Z" fill="#CBE0FA"/>
<path d="M1513.36 615.293L1722.93 638.326L1718.55 678.156L1508.99 655.122L1513.36 615.293Z" fill="#CBE0FA"/>
<path d="M1725.38 638.597C1725.86 645.287 1725.75 652.114 1724.99 659.02L1724.82 660.46C1717.36 721.302 1662.32 765 1601.21 758.283L1599.77 758.116C1552.67 752.334 1515.84 718.046 1504.73 674.5L1552.09 679.705C1562.58 699.213 1582.18 713.4 1605.86 716.003C1644.1 720.206 1678.51 692.613 1682.71 654.373C1683.49 647.338 1683.18 640.432 1681.93 633.821L1725.38 638.597ZM1627.17 535.408C1674.04 541.161 1710.73 575.143 1722.05 618.385L1674.49 613.159C1663.92 593.992 1644.5 580.095 1621.08 577.521C1582.84 573.318 1548.43 600.911 1544.23 639.152C1543.48 645.962 1543.74 652.651 1544.89 659.069L1501.51 654.301C1501.11 648.278 1501.2 642.146 1501.8 635.947L1501.95 634.505C1508.72 572.913 1564.14 528.471 1625.73 535.241L1627.17 535.408Z" fill="#CBE0FA"/>
<path d="M138.593 1002.75C138.984 999.201 142.181 996.637 145.734 997.027L175.595 1000.31C179.149 1000.7 181.713 1003.9 181.322 1007.45L177.721 1040.21C177.331 1043.77 174.133 1046.33 170.58 1045.94L140.719 1042.66C137.166 1042.27 134.602 1039.07 134.992 1035.52L138.593 1002.75Z" fill="#CBE0FA" stroke="#CBE0FA" stroke-width="4.31512"/>
<path d="M257.44 1125.13C257.921 1131.82 257.808 1138.65 257.049 1145.55L256.881 1146.99C249.413 1207.84 194.381 1251.53 133.27 1244.82L131.83 1244.65C84.7279 1238.87 47.901 1204.58 36.7859 1161.03L84.1452 1166.24C94.6371 1185.75 114.235 1199.93 137.917 1202.54C176.158 1206.74 210.566 1179.15 214.769 1140.91C215.542 1133.87 215.239 1126.97 213.991 1120.35L257.44 1125.13ZM159.226 1021.94C206.097 1027.69 242.792 1061.68 254.102 1104.92L206.55 1099.69C195.973 1080.53 176.552 1066.63 153.138 1064.05C114.897 1059.85 80.4898 1087.44 76.2866 1125.69C75.5381 1132.5 75.7996 1139.18 76.9485 1145.6L33.5691 1140.83C33.1706 1134.81 33.2545 1128.68 33.8564 1122.48L34.0061 1121.04C40.7757 1059.45 96.1939 1015 157.785 1021.77L159.226 1021.94Z" fill="#CBE0FA"/>
<path d="M-17.1647 122.468C-16.7741 118.915 -13.577 116.351 -10.0236 116.741L19.8376 120.023C23.3908 120.414 25.9549 123.611 25.5643 127.164L21.9634 159.926C21.5728 163.479 18.3756 166.043 14.8223 165.653L-15.0389 162.371C-18.5922 161.98 -21.1562 158.783 -20.7656 155.23L-17.1647 122.468Z" fill="#CBE0FA" stroke="#CBE0FA" stroke-width="4.31512"/>
<path d="M-42.5239 353.188L0.0556158 357.868L-2.87408 384.523C-3.26464 388.076 -6.46181 390.64 -10.0152 390.25L-39.7317 386.983C-43.2826 386.593 -45.8444 383.399 -45.4541 379.848L-42.5239 353.188Z" fill="#CBE0FA" stroke="#CBE0FA" stroke-width="4.31512"/>
<path d="M-110.336 221.54L99.2259 244.573L94.8482 284.403L-114.714 261.369L-110.336 221.54Z" fill="#CBE0FA"/>
<path d="M101.683 244.844C102.163 251.534 102.05 258.361 101.291 265.267L101.124 266.707C93.6551 327.55 38.6227 371.247 -22.4875 364.53L-23.928 364.363C-71.0299 358.581 -107.857 324.293 -118.972 280.747L-71.6126 285.952C-61.1208 305.46 -41.5227 319.648 -17.8404 322.251C20.4003 326.454 54.808 298.86 59.0112 260.62C59.7845 253.585 59.4807 246.679 58.2334 240.068L101.683 244.844ZM3.46817 141.655C50.3391 147.408 87.0338 181.39 98.3445 224.632L50.792 219.406C40.2156 200.239 20.7944 186.342 -2.61953 183.768C-40.8604 179.565 -75.2681 207.158 -79.4712 245.399C-80.2197 252.209 -79.9582 258.898 -78.8093 265.316L-122.189 260.548C-122.587 254.525 -122.503 248.393 -121.901 242.194L-121.752 240.752C-114.982 179.16 -59.5639 134.718 2.02761 141.488L3.46817 141.655Z" fill="#CBE0FA"/>
<path d="M489.782 178.187C490.173 174.634 493.37 172.07 496.923 172.461L526.784 175.743C530.338 176.133 532.902 179.331 532.511 182.884L528.91 215.646C528.52 219.199 525.322 221.763 521.769 221.372L491.908 218.09C488.355 217.7 485.791 214.502 486.181 210.949L489.782 178.187Z" fill="#CBE0FA" stroke="#CBE0FA" stroke-width="4.31512"/>
<path d="M464.423 408.907L507.002 413.587L504.073 440.242C503.682 443.796 500.485 446.36 496.932 445.969L467.215 442.703C463.664 442.313 461.102 439.118 461.493 435.567L464.423 408.907Z" fill="#CBE0FA" stroke="#CBE0FA" stroke-width="4.31512"/>
<path d="M396.61 277.26L606.173 300.293L601.795 340.122L392.233 317.089L396.61 277.26Z" fill="#CBE0FA"/>
<path d="M608.629 300.563C609.11 307.253 608.997 314.081 608.238 320.986L608.07 322.427C600.602 383.269 545.569 426.966 484.459 420.25L483.019 420.082C435.917 414.301 399.09 380.012 387.975 336.466L435.334 341.672C445.826 361.18 465.424 375.367 489.106 377.97C527.347 382.173 561.755 354.58 565.958 316.339C566.731 309.304 566.428 302.399 565.18 295.787L608.629 300.563ZM510.415 197.374C557.286 203.128 593.981 237.11 605.291 280.352L557.739 275.125C547.162 255.959 527.741 242.061 504.327 239.488C466.086 235.285 431.679 262.877 427.476 301.118C426.727 307.929 426.989 314.617 428.137 321.035L384.758 316.268C384.36 310.245 384.443 304.112 385.045 297.914L385.195 296.471C391.965 234.88 447.383 190.437 508.974 197.207L510.415 197.374Z" fill="#CBE0FA"/>
<path d="M236.308 150.328C236.699 146.774 239.896 144.21 243.45 144.601L273.311 147.883C276.864 148.274 279.428 151.471 279.037 155.024L275.437 187.786C275.046 191.339 271.849 193.903 268.295 193.512L238.434 190.23C234.881 189.84 232.317 186.643 232.708 183.089L236.308 150.328Z" fill="#CBE0FA" stroke="#CBE0FA" stroke-width="4.31512"/>
<path d="M210.949 381.048L253.529 385.728L250.599 412.383C250.209 415.936 247.011 418.5 243.458 418.109L213.741 414.843C210.191 414.453 207.629 411.258 208.019 407.707L210.949 381.048Z" fill="#CBE0FA" stroke="#CBE0FA" stroke-width="4.31512"/>
<path d="M143.137 249.4L352.699 272.433L348.321 312.262L138.759 289.229L143.137 249.4Z" fill="#CBE0FA"/>
<path d="M355.156 272.703C355.636 279.394 355.523 286.221 354.764 293.126L354.597 294.567C347.128 355.409 292.096 399.106 230.986 392.39L229.545 392.223C182.443 386.441 145.616 352.153 134.501 308.607L181.861 313.812C192.352 333.32 211.95 347.507 235.633 350.11C273.873 354.313 308.281 326.72 312.484 288.479C313.258 281.444 312.954 274.539 311.707 267.928L355.156 272.703ZM256.941 169.514C303.812 175.268 340.507 209.25 351.818 252.492L304.265 247.265C293.689 228.099 274.268 214.201 250.854 211.628C212.613 207.425 178.205 235.018 174.002 273.258C173.253 280.069 173.515 286.757 174.664 293.176L131.284 288.408C130.886 282.385 130.97 276.252 131.572 270.054L131.721 268.611C138.491 207.02 193.909 162.578 255.501 169.347L256.941 169.514Z" fill="#CBE0FA"/>
<path d="M996.729 233.907C997.119 230.354 1000.32 227.79 1003.87 228.18L1033.73 231.462C1037.28 231.853 1039.85 235.05 1039.46 238.603L1035.86 271.365C1035.47 274.918 1032.27 277.482 1028.72 277.092L998.855 273.81C995.301 273.419 992.737 270.222 993.128 266.669L996.729 233.907Z" fill="#CBE0FA" stroke="#CBE0FA" stroke-width="4.31512"/>
<path d="M971.37 464.627L1013.95 469.307L1011.02 495.962C1010.63 499.515 1007.43 502.079 1003.88 501.689L974.162 498.422C970.611 498.032 968.049 494.838 968.439 491.287L971.37 464.627Z" fill="#CBE0FA" stroke="#CBE0FA" stroke-width="4.31512"/>
<path d="M903.557 332.979L1113.12 356.012L1108.74 395.842L899.179 372.808L903.557 332.979Z" fill="#CBE0FA"/>
<path d="M1115.58 356.283C1116.06 362.973 1115.94 369.8 1115.18 376.706L1115.02 378.146C1107.55 438.989 1052.52 482.686 991.406 475.969L989.966 475.802C942.864 470.02 906.037 435.732 894.922 392.186L942.281 397.391C952.773 416.899 972.371 431.086 996.053 433.69C1034.29 437.892 1068.7 410.299 1072.9 372.059C1073.68 365.024 1073.37 358.118 1072.13 351.507L1115.58 356.283ZM1017.36 253.094C1064.23 258.847 1100.93 292.829 1112.24 336.071L1064.69 330.845C1054.11 311.678 1034.69 297.781 1011.27 295.207C973.033 291.004 938.625 318.597 934.422 356.838C933.674 363.648 933.935 370.337 935.084 376.755L891.705 371.987C891.306 365.964 891.39 359.832 891.992 353.633L892.142 352.191C898.911 290.599 954.33 246.157 1015.92 252.927L1017.36 253.094Z" fill="#CBE0FA"/>
<path d="M1250.2 261.767C1250.59 258.214 1253.79 255.65 1257.34 256.04L1287.21 259.322C1290.76 259.713 1293.32 262.91 1292.93 266.463L1289.33 299.225C1288.94 302.778 1285.74 305.342 1282.19 304.952L1252.33 301.67C1248.78 301.279 1246.21 298.082 1246.6 294.529L1250.2 261.767Z" fill="#CBE0FA" stroke="#CBE0FA" stroke-width="4.31512"/>
<path d="M1224.84 492.487L1267.42 497.167L1264.49 523.822C1264.1 527.375 1260.91 529.939 1257.35 529.549L1227.64 526.282C1224.09 525.892 1221.52 522.698 1221.91 519.147L1224.84 492.487Z" fill="#CBE0FA" stroke="#CBE0FA" stroke-width="4.31512"/>
<path d="M1157.03 360.839L1366.59 383.873L1362.22 423.702L1152.65 400.668L1157.03 360.839Z" fill="#CBE0FA"/>
<path d="M1369.05 384.143C1369.53 390.833 1369.42 397.661 1368.66 404.566L1368.49 406.006C1361.02 466.849 1305.99 510.546 1244.88 503.829L1243.44 503.662C1196.34 497.88 1159.51 463.592 1148.4 420.046L1195.76 425.251C1206.25 444.759 1225.84 458.947 1249.53 461.55C1287.77 465.753 1322.18 438.16 1326.38 399.919C1327.15 392.884 1326.85 385.979 1325.6 379.367L1369.05 384.143ZM1270.84 280.954C1317.71 286.707 1354.4 320.689 1365.71 363.931L1318.16 358.705C1307.58 339.538 1288.16 325.641 1264.75 323.067C1226.51 318.864 1192.1 346.457 1187.9 384.698C1187.15 391.508 1187.41 398.197 1188.56 404.615L1145.18 399.847C1144.78 393.824 1144.86 387.692 1145.47 381.493L1145.62 380.051C1152.39 318.459 1207.8 274.017 1269.4 280.787L1270.84 280.954Z" fill="#CBE0FA"/>
<path d="M1503.68 289.626C1504.07 286.073 1507.26 283.509 1510.82 283.899L1540.68 287.181C1544.23 287.572 1546.8 290.769 1546.41 294.323L1542.8 327.084C1542.41 330.638 1539.22 333.201 1535.66 332.811L1505.8 329.529C1502.25 329.138 1499.69 325.941 1500.08 322.388L1503.68 289.626Z" fill="#CBE0FA" stroke="#CBE0FA" stroke-width="4.31512"/>
<path d="M1478.32 520.346L1520.9 525.026L1517.97 551.681C1517.58 555.234 1514.38 557.798 1510.83 557.408L1481.11 554.142C1477.56 553.751 1475 550.557 1475.39 547.006L1478.32 520.346Z" fill="#CBE0FA" stroke="#CBE0FA" stroke-width="4.31512"/>
<path d="M1410.5 388.698L1620.07 411.732L1615.69 451.561L1406.13 428.527L1410.5 388.698Z" fill="#CBE0FA"/>
<path d="M1622.52 412.002C1623 418.692 1622.89 425.52 1622.13 432.425L1621.96 433.866C1614.5 494.708 1559.46 538.405 1498.35 531.688L1496.91 531.521C1449.81 525.739 1412.98 491.451 1401.87 447.905L1449.23 453.111C1459.72 472.618 1479.32 486.806 1503 489.409C1541.24 493.612 1575.65 466.019 1579.85 427.778C1580.63 420.743 1580.32 413.838 1579.07 407.226L1622.52 412.002ZM1524.31 308.813C1571.18 314.567 1607.88 348.548 1619.19 391.791L1571.63 386.564C1561.06 367.397 1541.64 353.5 1518.22 350.926C1479.98 346.723 1445.57 374.316 1441.37 412.557C1440.62 419.367 1440.88 426.056 1442.03 432.474L1398.65 427.706C1398.25 421.683 1398.34 415.551 1398.94 409.352L1399.09 407.91C1405.86 346.318 1461.28 301.876 1522.87 308.646L1524.31 308.813Z" fill="#CBE0FA"/>
<path d="M-17.1647 122.468C-16.7741 118.915 -13.577 116.351 -10.0236 116.741L19.8376 120.023C23.3908 120.414 25.9549 123.611 25.5643 127.164L21.9634 159.926C21.5728 163.479 18.3756 166.043 14.8223 165.653L-15.0389 162.371C-18.5922 161.98 -21.1562 158.783 -20.7656 155.23L-17.1647 122.468Z" fill="#CBE0FA" stroke="#CBE0FA" stroke-width="4.31512"/>
<path d="M-42.5239 353.188L0.0556158 357.868L-2.87408 384.523C-3.26464 388.076 -6.46181 390.64 -10.0152 390.25L-39.7317 386.983C-43.2826 386.593 -45.8444 383.399 -45.4541 379.848L-42.5239 353.188Z" fill="#CBE0FA" stroke="#CBE0FA" stroke-width="4.31512"/>
<path d="M-110.336 221.54L99.2259 244.573L94.8482 284.403L-114.714 261.369L-110.336 221.54Z" fill="#CBE0FA"/>
<path d="M101.683 244.844C102.163 251.534 102.05 258.361 101.291 265.267L101.124 266.707C93.6551 327.55 38.6227 371.247 -22.4875 364.53L-23.928 364.363C-71.0299 358.581 -107.857 324.293 -118.972 280.747L-71.6126 285.952C-61.1208 305.46 -41.5227 319.648 -17.8404 322.251C20.4003 326.454 54.808 298.86 59.0112 260.62C59.7845 253.585 59.4807 246.679 58.2334 240.068L101.683 244.844ZM3.46817 141.655C50.3391 147.408 87.0338 181.39 98.3445 224.632L50.792 219.406C40.2156 200.239 20.7944 186.342 -2.61953 183.768C-40.8604 179.565 -75.2681 207.158 -79.4712 245.399C-80.2197 252.209 -79.9582 258.898 -78.8093 265.316L-122.189 260.548C-122.587 254.525 -122.503 248.393 -121.901 242.194L-121.752 240.752C-114.982 179.16 -59.5639 134.718 2.02761 141.488L3.46817 141.655Z" fill="#CBE0FA"/>
<path d="M236.308 150.328C236.699 146.774 239.896 144.21 243.45 144.601L273.311 147.883C276.864 148.274 279.428 151.471 279.037 155.024L275.437 187.786C275.046 191.339 271.849 193.903 268.295 193.512L238.434 190.23C234.881 189.84 232.317 186.643 232.708 183.089L236.308 150.328Z" fill="#CBE0FA" stroke="#CBE0FA" stroke-width="4.31512"/>
<path d="M210.949 381.048L253.529 385.728L250.599 412.383C250.209 415.936 247.011 418.5 243.458 418.109L213.741 414.843C210.191 414.453 207.629 411.258 208.019 407.707L210.949 381.048Z" fill="#CBE0FA" stroke="#CBE0FA" stroke-width="4.31512"/>
<path d="M143.137 249.4L352.699 272.433L348.321 312.262L138.759 289.229L143.137 249.4Z" fill="#CBE0FA"/>
<path d="M355.156 272.703C355.636 279.394 355.523 286.221 354.764 293.126L354.597 294.567C347.128 355.409 292.096 399.106 230.986 392.39L229.545 392.223C182.443 386.441 145.616 352.153 134.501 308.607L181.861 313.812C192.352 333.32 211.95 347.507 235.633 350.11C273.873 354.313 308.281 326.72 312.484 288.479C313.258 281.444 312.954 274.539 311.707 267.928L355.156 272.703ZM256.941 169.514C303.812 175.268 340.507 209.25 351.818 252.492L304.265 247.265C293.689 228.099 274.268 214.201 250.854 211.628C212.613 207.425 178.205 235.018 174.002 273.258C173.253 280.069 173.515 286.757 174.664 293.176L131.284 288.408C130.886 282.385 130.97 276.252 131.572 270.054L131.721 268.611C138.491 207.02 193.909 162.578 255.501 169.347L256.941 169.514Z" fill="#CBE0FA"/>
<path d="M489.782 178.187C490.173 174.634 493.37 172.07 496.923 172.461L526.784 175.743C530.338 176.133 532.902 179.331 532.511 182.884L528.91 215.646C528.52 219.199 525.322 221.763 521.769 221.372L491.908 218.09C488.355 217.7 485.791 214.502 486.181 210.949L489.782 178.187Z" fill="#CBE0FA" stroke="#CBE0FA" stroke-width="4.31512"/>
<path d="M464.423 408.907L507.002 413.587L504.073 440.242C503.682 443.796 500.485 446.36 496.932 445.969L467.215 442.703C463.664 442.313 461.102 439.118 461.493 435.567L464.423 408.907Z" fill="#CBE0FA" stroke="#CBE0FA" stroke-width="4.31512"/>
<path d="M396.61 277.26L606.173 300.293L601.795 340.122L392.233 317.089L396.61 277.26Z" fill="#CBE0FA"/>
<path d="M608.629 300.563C609.11 307.253 608.997 314.081 608.238 320.986L608.07 322.427C600.602 383.269 545.569 426.966 484.459 420.25L483.019 420.082C435.917 414.301 399.09 380.012 387.975 336.466L435.334 341.672C445.826 361.18 465.424 375.367 489.106 377.97C527.347 382.173 561.755 354.58 565.958 316.339C566.731 309.304 566.428 302.399 565.18 295.787L608.629 300.563ZM510.415 197.374C557.286 203.128 593.981 237.11 605.291 280.352L557.739 275.125C547.162 255.959 527.741 242.061 504.327 239.488C466.086 235.285 431.679 262.877 427.476 301.118C426.727 307.929 426.989 314.617 428.137 321.035L384.758 316.268C384.36 310.245 384.443 304.112 385.045 297.914L385.195 296.471C391.965 234.88 447.383 190.437 508.974 197.207L510.415 197.374Z" fill="#CBE0FA"/>
<path d="M743.256 206.047C743.646 202.494 746.843 199.93 750.397 200.32L780.258 203.602C783.811 203.993 786.375 207.19 785.985 210.743L782.384 243.505C781.993 247.058 778.796 249.622 775.243 249.232L745.382 245.95C741.828 245.559 739.264 242.362 739.655 238.809L743.256 206.047Z" fill="#CBE0FA" stroke="#CBE0FA" stroke-width="4.31512"/>
<path d="M717.897 436.767L760.476 441.447L757.546 468.102C757.156 471.655 753.959 474.219 750.405 473.829L720.689 470.563C717.138 470.172 714.576 466.978 714.966 463.427L717.897 436.767Z" fill="#CBE0FA" stroke="#CBE0FA" stroke-width="4.31512"/>
<path d="M650.084 305.119L859.646 328.153L855.269 367.982L645.706 344.948L650.084 305.119Z" fill="#CBE0FA"/>
<path d="M862.103 328.423C862.584 335.113 862.47 341.941 861.711 348.846L861.544 350.286C854.075 411.129 799.043 454.826 737.933 448.109L736.492 447.942C689.391 442.16 652.564 407.872 641.448 364.326L688.808 369.531C699.3 389.039 718.898 403.227 742.58 405.83C780.821 410.033 815.228 382.44 819.432 344.199C820.205 337.164 819.901 330.259 818.654 323.647L862.103 328.423ZM763.889 225.234C810.76 230.987 847.454 264.969 858.765 308.211L811.212 302.985C800.636 283.818 781.215 269.921 757.801 267.347C719.56 263.144 685.152 290.737 680.949 328.978C680.201 335.788 680.462 342.477 681.611 348.895L638.232 344.127C637.833 338.104 637.917 331.972 638.519 325.773L638.669 324.331C645.438 262.739 700.856 218.297 762.448 225.067L763.889 225.234Z" fill="#CBE0FA"/>
<path d="M996.729 233.907C997.119 230.354 1000.32 227.79 1003.87 228.18L1033.73 231.462C1037.28 231.853 1039.85 235.05 1039.46 238.603L1035.86 271.365C1035.47 274.918 1032.27 277.482 1028.72 277.092L998.855 273.81C995.301 273.419 992.737 270.222 993.128 266.669L996.729 233.907Z" fill="#CBE0FA" stroke="#CBE0FA" stroke-width="4.31512"/>
<path d="M971.37 464.627L1013.95 469.307L1011.02 495.962C1010.63 499.515 1007.43 502.079 1003.88 501.689L974.162 498.422C970.611 498.032 968.049 494.838 968.439 491.287L971.37 464.627Z" fill="#CBE0FA" stroke="#CBE0FA" stroke-width="4.31512"/>
<path d="M903.557 332.979L1113.12 356.012L1108.74 395.842L899.179 372.808L903.557 332.979Z" fill="#CBE0FA"/>
<path d="M1115.58 356.283C1116.06 362.973 1115.94 369.8 1115.18 376.706L1115.02 378.146C1107.55 438.989 1052.52 482.686 991.406 475.969L989.966 475.802C942.864 470.02 906.037 435.732 894.922 392.186L942.281 397.391C952.773 416.899 972.371 431.086 996.053 433.69C1034.29 437.892 1068.7 410.299 1072.9 372.059C1073.68 365.024 1073.37 358.118 1072.13 351.507L1115.58 356.283ZM1017.36 253.094C1064.23 258.847 1100.93 292.829 1112.24 336.071L1064.69 330.845C1054.11 311.678 1034.69 297.781 1011.27 295.207C973.033 291.004 938.625 318.597 934.422 356.838C933.674 363.648 933.935 370.337 935.084 376.755L891.705 371.987C891.306 365.964 891.39 359.832 891.992 353.633L892.142 352.191C898.911 290.599 954.33 246.157 1015.92 252.927L1017.36 253.094Z" fill="#CBE0FA"/>
<path d="M1250.2 261.767C1250.59 258.214 1253.79 255.65 1257.34 256.04L1287.21 259.322C1290.76 259.713 1293.32 262.91 1292.93 266.463L1289.33 299.225C1288.94 302.778 1285.74 305.342 1282.19 304.952L1252.33 301.67C1248.78 301.279 1246.21 298.082 1246.6 294.529L1250.2 261.767Z" fill="#CBE0FA" stroke="#CBE0FA" stroke-width="4.31512"/>
<path d="M1224.84 492.487L1267.42 497.167L1264.49 523.822C1264.1 527.375 1260.91 529.939 1257.35 529.549L1227.64 526.282C1224.09 525.892 1221.52 522.698 1221.91 519.147L1224.84 492.487Z" fill="#CBE0FA" stroke="#CBE0FA" stroke-width="4.31512"/>
<path d="M1157.03 360.839L1366.59 383.873L1362.22 423.702L1152.65 400.668L1157.03 360.839Z" fill="#CBE0FA"/>
<path d="M1369.05 384.143C1369.53 390.833 1369.42 397.661 1368.66 404.566L1368.49 406.006C1361.02 466.849 1305.99 510.546 1244.88 503.829L1243.44 503.662C1196.34 497.88 1159.51 463.592 1148.4 420.046L1195.76 425.251C1206.25 444.759 1225.84 458.947 1249.53 461.55C1287.77 465.753 1322.18 438.16 1326.38 399.919C1327.15 392.884 1326.85 385.979 1325.6 379.367L1369.05 384.143ZM1270.84 280.954C1317.71 286.707 1354.4 320.689 1365.71 363.931L1318.16 358.705C1307.58 339.538 1288.16 325.641 1264.75 323.067C1226.51 318.864 1192.1 346.457 1187.9 384.698C1187.15 391.508 1187.41 398.197 1188.56 404.615L1145.18 399.847C1144.78 393.824 1144.86 387.692 1145.47 381.493L1145.62 380.051C1152.39 318.459 1207.8 274.017 1269.4 280.787L1270.84 280.954Z" fill="#CBE0FA"/>
<path d="M1503.68 289.626C1504.07 286.073 1507.26 283.509 1510.82 283.899L1540.68 287.181C1544.23 287.572 1546.8 290.769 1546.41 294.323L1542.8 327.084C1542.41 330.638 1539.22 333.201 1535.66 332.811L1505.8 329.529C1502.25 329.138 1499.69 325.941 1500.08 322.388L1503.68 289.626Z" fill="#CBE0FA" stroke="#CBE0FA" stroke-width="4.31512"/>
<path d="M1478.32 520.346L1520.9 525.026L1517.97 551.681C1517.58 555.234 1514.38 557.798 1510.83 557.408L1481.11 554.142C1477.56 553.751 1475 550.557 1475.39 547.006L1478.32 520.346Z" fill="#CBE0FA" stroke="#CBE0FA" stroke-width="4.31512"/>
<path d="M1410.5 388.698L1620.07 411.732L1615.69 451.561L1406.13 428.527L1410.5 388.698Z" fill="#CBE0FA"/>
<path d="M1622.52 412.002C1623 418.692 1622.89 425.52 1622.13 432.425L1621.96 433.866C1614.5 494.708 1559.46 538.405 1498.35 531.688L1496.91 531.521C1449.81 525.739 1412.98 491.451 1401.87 447.905L1449.23 453.111C1459.72 472.618 1479.32 486.806 1503 489.409C1541.24 493.612 1575.65 466.019 1579.85 427.778C1580.63 420.743 1580.32 413.838 1579.07 407.226L1622.52 412.002ZM1524.31 308.813C1571.18 314.567 1607.88 348.548 1619.19 391.791L1571.63 386.564C1561.06 367.397 1541.64 353.5 1518.22 350.926C1479.98 346.723 1445.57 374.316 1441.37 412.557C1440.62 419.367 1440.88 426.056 1442.03 432.474L1398.65 427.706C1398.25 421.683 1398.34 415.551 1398.94 409.352L1399.09 407.91C1405.86 346.318 1461.28 301.876 1522.87 308.646L1524.31 308.813Z" fill="#CBE0FA"/>
<path d="M36.7264 776.268C37.117 772.715 40.3141 770.151 43.8675 770.541L73.7287 773.824C77.2819 774.214 79.846 777.411 79.4554 780.965L75.8545 813.726C75.464 817.28 72.2667 819.844 68.7134 819.453L38.8523 816.171C35.2989 815.78 32.7349 812.583 33.1255 809.03L36.7264 776.268Z" fill="#CBE0FA" stroke="#CBE0FA" stroke-width="4.31512"/>
<path d="M11.3672 1006.99L53.9467 1011.67L51.017 1038.32C50.6265 1041.88 47.4293 1044.44 43.876 1044.05L14.1594 1040.78C10.6086 1040.39 8.0467 1037.2 8.43698 1033.65L11.3672 1006.99Z" fill="#CBE0FA" stroke="#CBE0FA" stroke-width="4.31512"/>
<path d="M-56.4453 875.34L153.117 898.374L148.739 938.203L-60.823 915.169L-56.4453 875.34Z" fill="#CBE0FA"/>
<path d="M155.574 898.644C156.054 905.335 155.941 912.162 155.182 919.068L155.015 920.508C147.546 981.35 92.5138 1025.05 31.4037 1018.33L29.9631 1018.16C-17.1388 1012.38 -53.9657 978.094 -65.0808 934.548L-17.7215 939.753C-7.22965 959.261 12.3684 973.448 36.0507 976.051C74.2914 980.254 108.699 952.661 112.902 914.421C113.676 907.385 113.372 900.48 112.125 893.869L155.574 898.644ZM57.3593 795.456C104.23 801.209 140.925 835.191 152.236 878.433L104.683 873.207C94.1067 854.04 74.6855 840.142 51.2716 837.569C13.0307 833.366 -21.3769 860.959 -25.5801 899.2C-26.3286 906.01 -26.0671 912.699 -24.9182 919.117L-68.2976 914.349C-68.6961 908.326 -68.6122 902.194 -68.0103 895.995L-67.8606 894.553C-61.091 832.961 -5.67281 788.519 55.9187 795.288L57.3593 795.456Z" fill="#CBE0FA"/>
<path d="M290.2 804.128C290.591 800.575 293.788 798.011 297.341 798.401L327.202 801.683C330.756 802.074 333.32 805.271 332.929 808.825L329.328 841.586C328.938 845.139 325.74 847.703 322.187 847.313L292.326 844.031C288.773 843.64 286.209 840.443 286.599 836.89L290.2 804.128Z" fill="#CBE0FA" stroke="#CBE0FA" stroke-width="4.31512"/>
<path d="M264.841 1034.85L307.42 1039.53L304.491 1066.18C304.1 1069.74 300.903 1072.3 297.35 1071.91L267.633 1068.64C264.082 1068.25 261.52 1065.06 261.911 1061.51L264.841 1034.85Z" fill="#CBE0FA" stroke="#CBE0FA" stroke-width="4.31512"/>
<path d="M197.028 903.2L406.591 926.234L402.213 966.063L192.651 943.029L197.028 903.2Z" fill="#CBE0FA"/>
<path d="M409.047 926.504C409.528 933.195 409.415 940.022 408.656 946.927L408.488 948.368C401.02 1009.21 345.987 1052.91 284.877 1046.19L283.437 1046.02C236.335 1040.24 199.508 1005.95 188.393 962.408L235.752 967.613C246.244 987.121 265.842 1001.31 289.524 1003.91C327.765 1008.11 362.173 980.521 366.376 942.28C367.149 935.245 366.845 928.34 365.598 921.729L409.047 926.504ZM310.833 823.315C357.704 829.069 394.399 863.051 405.709 906.293L358.157 901.066C347.58 881.9 328.159 868.002 304.745 865.429C266.504 861.226 232.097 888.819 227.894 927.06C227.145 933.87 227.407 940.558 228.555 946.977L185.176 942.209C184.778 936.186 184.861 930.053 185.463 923.855L185.613 922.412C192.383 860.821 247.801 816.379 309.392 823.148L310.833 823.315Z" fill="#CBE0FA"/>
<path d="M543.673 831.988C544.064 828.435 547.261 825.871 550.814 826.261L580.675 829.543C584.229 829.934 586.793 833.131 586.402 836.684L582.801 869.446C582.411 872.999 579.214 875.563 575.66 875.173L545.799 871.891C542.246 871.5 539.682 868.303 540.072 864.75L543.673 831.988Z" fill="#CBE0FA" stroke="#CBE0FA" stroke-width="4.31512"/>
<path d="M450.501 931.06L660.064 954.093L655.686 993.923L446.124 970.889L450.501 931.06Z" fill="#CBE0FA"/>
<path d="M662.521 954.364C663.001 961.054 662.888 967.882 662.129 974.787L661.962 976.228C654.493 1037.07 599.461 1080.77 538.35 1074.05L536.91 1073.88C489.808 1068.1 452.981 1033.81 441.866 990.268L489.225 995.473C499.717 1014.98 519.315 1029.17 542.997 1031.77C581.238 1035.97 615.646 1008.38 619.849 970.14C620.622 963.105 620.319 956.2 619.071 949.589L662.521 954.364ZM564.306 851.175C611.177 856.929 647.872 890.911 659.182 934.153L611.63 928.926C601.053 909.76 581.632 895.862 558.218 893.289C519.977 889.086 485.57 916.679 481.367 954.919C480.618 961.73 480.88 968.418 482.029 974.837L438.649 970.069C438.251 964.046 438.335 957.913 438.936 951.715L439.086 950.272C445.856 888.681 501.274 844.239 562.866 851.008L564.306 851.175Z" fill="#CBE0FA"/>
<path d="M797.147 859.848C797.537 856.294 800.735 853.73 804.288 854.121L834.149 857.403C837.702 857.794 840.266 860.991 839.876 864.544L836.275 897.306C835.884 900.859 832.687 903.423 829.134 903.033L799.273 899.751C795.719 899.36 793.155 896.163 793.546 892.609L797.147 859.848Z" fill="#CBE0FA" stroke="#CBE0FA" stroke-width="4.31512"/>
<path d="M703.975 958.92L913.537 981.953L909.16 1021.78L699.597 998.749L703.975 958.92Z" fill="#CBE0FA"/>
<path d="M915.994 982.224C916.475 988.914 916.361 995.742 915.602 1002.65L915.435 1004.09C907.967 1064.93 852.934 1108.63 791.824 1101.91L790.384 1101.74C743.282 1095.96 706.455 1061.67 695.34 1018.13L742.699 1023.33C753.191 1042.84 772.789 1057.03 796.471 1059.63C834.712 1063.83 869.119 1036.24 873.323 998C874.096 990.965 873.792 984.06 872.545 977.448L915.994 982.224ZM817.78 879.035C864.651 884.789 901.345 918.771 912.656 962.013L865.104 956.786C854.527 937.619 835.106 923.722 811.692 921.148C773.451 916.945 739.043 944.538 734.84 982.779C734.092 989.59 734.353 996.278 735.502 1002.7L692.123 997.928C691.724 991.906 691.808 985.773 692.41 979.575L692.56 978.132C699.329 916.541 754.748 872.098 816.339 878.868L817.78 879.035Z" fill="#CBE0FA"/>
<path d="M1050.62 887.708C1051.01 884.154 1054.21 881.59 1057.76 881.981L1087.62 885.263C1091.18 885.654 1093.74 888.851 1093.35 892.404L1089.75 925.166C1089.36 928.719 1086.16 931.283 1082.61 930.893L1052.75 927.61C1049.19 927.22 1046.63 924.023 1047.02 920.469L1050.62 887.708Z" fill="#CBE0FA" stroke="#CBE0FA" stroke-width="4.31512"/>
<path d="M957.449 986.78L1167.01 1009.81L1162.63 1049.64L953.071 1026.61L957.449 986.78Z" fill="#CBE0FA"/>
<path d="M1169.47 1010.08C1169.95 1016.77 1169.83 1023.6 1169.08 1030.51L1168.91 1031.95C1161.44 1092.79 1106.41 1136.49 1045.3 1129.77L1043.86 1129.6C996.755 1123.82 959.928 1089.53 948.813 1045.99L996.173 1051.19C1006.66 1070.7 1026.26 1084.89 1049.94 1087.49C1088.19 1091.69 1122.59 1064.1 1126.8 1025.86C1127.57 1018.82 1127.27 1011.92 1126.02 1005.31L1169.47 1010.08ZM1071.25 906.895C1118.12 912.649 1154.82 946.631 1166.13 989.873L1118.58 984.646C1108 965.479 1088.58 951.582 1065.17 949.008C1026.92 944.805 992.517 972.398 988.314 1010.64C987.565 1017.45 987.827 1024.14 988.976 1030.56L945.596 1025.79C945.198 1019.77 945.282 1013.63 945.884 1007.43L946.033 1005.99C952.803 944.4 1008.22 899.958 1069.81 906.728L1071.25 906.895Z" fill="#CBE0FA"/>
<path d="M1552.71 941.887C1553.1 938.333 1556.29 935.77 1559.85 936.16L1589.71 939.442C1593.26 939.833 1595.83 943.03 1595.44 946.583L1591.83 979.345C1591.44 982.898 1588.25 985.462 1584.69 985.072L1554.83 981.79C1551.28 981.399 1548.72 978.202 1549.11 974.649L1552.71 941.887Z" fill="#CBE0FA" stroke="#CBE0FA" stroke-width="4.31512"/>
<path d="M1671.55 1064.26C1672.03 1070.95 1671.92 1077.78 1671.16 1084.69L1671 1086.13C1663.53 1146.97 1608.49 1190.67 1547.38 1183.95L1545.94 1183.78C1498.84 1178 1462.01 1143.71 1450.9 1100.17L1498.26 1105.37C1508.75 1124.88 1528.35 1139.07 1552.03 1141.67C1590.27 1145.87 1624.68 1118.28 1628.88 1080.04C1629.66 1073 1629.35 1066.1 1628.1 1059.49L1671.55 1064.26ZM1573.34 961.074C1620.21 966.828 1656.91 1000.81 1668.22 1044.05L1620.66 1038.83C1610.09 1019.66 1590.67 1005.76 1567.25 1003.19C1529.01 998.985 1494.6 1026.58 1490.4 1064.82C1489.65 1071.63 1489.91 1078.32 1491.06 1084.74L1447.68 1079.97C1447.28 1073.94 1447.37 1067.81 1447.97 1061.61L1448.12 1060.17C1454.89 998.58 1510.31 954.137 1571.9 960.907L1573.34 961.074Z" fill="#CBE0FA"/>
<path d="M1304.09 915.567C1304.48 912.014 1307.68 909.45 1311.24 909.84L1341.1 913.122C1344.65 913.513 1347.21 916.71 1346.82 920.263L1343.22 953.025C1342.83 956.578 1339.63 959.142 1336.08 958.752L1306.22 955.47C1302.67 955.079 1300.1 951.882 1300.49 948.329L1304.09 915.567Z" fill="#CBE0FA" stroke="#CBE0FA" stroke-width="4.31512"/>
<path d="M1210.92 1014.64L1420.48 1037.67L1416.11 1077.5L1206.54 1054.47L1210.92 1014.64Z" fill="#CBE0FA"/>
<path d="M1422.94 1037.94C1423.42 1044.63 1423.31 1051.46 1422.55 1058.37L1422.38 1059.81C1414.91 1120.65 1359.88 1164.35 1298.77 1157.63L1297.33 1157.46C1250.23 1151.68 1213.4 1117.39 1202.29 1073.85L1249.65 1079.05C1260.14 1098.56 1279.74 1112.75 1303.42 1115.35C1341.66 1119.55 1376.07 1091.96 1380.27 1053.72C1381.04 1046.68 1380.74 1039.78 1379.49 1033.17L1422.94 1037.94ZM1324.73 934.754C1371.6 940.508 1408.29 974.49 1419.6 1017.73L1372.05 1012.51C1361.47 993.339 1342.05 979.441 1318.64 976.868C1280.4 972.665 1245.99 1000.26 1241.79 1038.5C1241.04 1045.31 1241.3 1052 1242.45 1058.42L1199.07 1053.65C1198.67 1047.62 1198.76 1041.49 1199.36 1035.29L1199.51 1033.85C1206.28 972.26 1261.69 927.818 1323.29 934.587L1324.73 934.754Z" fill="#CBE0FA"/>
</g>
<defs>
<clipPath id="clip0_343_120">
<rect width="1549" height="1040" fill="white"/>
</clipPath>
</defs>
</svg>
